<?xml version="1.0" encoding="utf-8" standalone="no"?>
<!DOCTYPE svg PUBLIC "-//W3C//DTD SVG 1.1//EN"
  "http://www.w3.org/Graphics/SVG/1.1/DTD/svg11.dtd">
<svg xmlns:xlink="http://www.w3.org/1999/xlink" width="228pt" height="216pt" viewBox="0 0 228 216" xmlns="http://www.w3.org/2000/svg" version="1.1">
 <metadata>
  <rdf:RDF xmlns:dc="http://purl.org/dc/elements/1.1/" xmlns:cc="http://creativecommons.org/ns#" xmlns:rdf="http://www.w3.org/1999/02/22-rdf-syntax-ns#">
   <cc:Work>
    <dc:type rdf:resource="http://purl.org/dc/dcmitype/StillImage"/>
    <dc:date>2024-08-15T16:25:50.973153</dc:date>
    <dc:format>image/svg+xml</dc:format>
    <dc:creator>
     <cc:Agent>
      <dc:title>Matplotlib v3.7.1, https://matplotlib.org/</dc:title>
     </cc:Agent>
    </dc:creator>
   </cc:Work>
  </rdf:RDF>
 </metadata>
 <defs>
  <style type="text/css">*{stroke-linejoin: round; stroke-linecap: butt}</style>
 </defs>
 <g id="figure_1">
  <g id="patch_1">
   <path d="M 0 216 
L 228 216 
L 228 0 
L 0 0 
z
" style="fill: #ffffff"/>
  </g>
  <g id="axes_1">
   <g id="patch_2">
    <path d="M 40.793562 89.53625 
L 213.200695 89.53625 
L 213.200695 21.84 
L 40.793562 21.84 
z
" style="fill: #ffffff"/>
   </g>
   <g id="matplotlib.axis_1">
    <g id="xtick_1">
     <g id="line2d_1">
      <path d="M 212.946344 89.53625 
L 212.946344 21.84 
" clip-path="url(#p1fb2780f88)" style="fill: none; stroke-dasharray: 0.8,1.32; stroke-dashoffset: 0; stroke: #b0b0b0; stroke-width: 0.8"/>
     </g>
     <g id="line2d_2">
      <defs>
       <path id="m730808865e" d="M 0 0 
L 0 -3.5 
" style="stroke: #666666; stroke-width: 0.8"/>
      </defs>
      <g>
       <use xlink:href="#m730808865e" x="212.946344" y="89.53625" style="fill: #666666; stroke: #666666; stroke-width: 0.8"/>
      </g>
     </g>
     <g id="text_1">
      <!-- 1 -->
      <g style="fill: #666666" transform="translate(210.721969 98.7625) scale(0.08 -0.08)">
       <defs>
        <path id="ArialMT-31" d="M 2384 0 
L 1822 0 
L 1822 3584 
Q 1619 3391 1289 3197 
Q 959 3003 697 2906 
L 697 3450 
Q 1169 3672 1522 3987 
Q 1875 4303 2022 4600 
L 2384 4600 
L 2384 0 
z
" transform="scale(0.015625)"/>
       </defs>
       <use xlink:href="#ArialMT-31"/>
      </g>
     </g>
    </g>
    <g id="xtick_2">
     <g id="line2d_3">
      <path d="M 154.673274 89.53625 
L 154.673274 21.84 
" clip-path="url(#p1fb2780f88)" style="fill: none; stroke-dasharray: 0.8,1.32; stroke-dashoffset: 0; stroke: #b0b0b0; stroke-width: 0.8"/>
     </g>
     <g id="line2d_4">
      <g>
       <use xlink:href="#m730808865e" x="154.673274" y="89.53625" style="fill: #666666; stroke: #666666; stroke-width: 0.8"/>
      </g>
     </g>
     <g id="text_2">
      <!-- 10 -->
      <g style="fill: #666666" transform="translate(150.224524 98.7625) scale(0.08 -0.08)">
       <defs>
        <path id="ArialMT-30" d="M 266 2259 
Q 266 3072 433 3567 
Q 600 4063 929 4331 
Q 1259 4600 1759 4600 
Q 2128 4600 2406 4451 
Q 2684 4303 2865 4023 
Q 3047 3744 3150 3342 
Q 3253 2941 3253 2259 
Q 3253 1453 3087 958 
Q 2922 463 2592 192 
Q 2263 -78 1759 -78 
Q 1097 -78 719 397 
Q 266 969 266 2259 
z
M 844 2259 
Q 844 1131 1108 757 
Q 1372 384 1759 384 
Q 2147 384 2411 759 
Q 2675 1134 2675 2259 
Q 2675 3391 2411 3762 
Q 2147 4134 1753 4134 
Q 1366 4134 1134 3806 
Q 844 3388 844 2259 
z
" transform="scale(0.015625)"/>
       </defs>
       <use xlink:href="#ArialMT-31"/>
       <use xlink:href="#ArialMT-30" x="55.615234"/>
      </g>
     </g>
    </g>
    <g id="xtick_3">
     <g id="line2d_5">
      <path d="M 96.400203 89.53625 
L 96.400203 21.84 
" clip-path="url(#p1fb2780f88)" style="fill: none; stroke-dasharray: 0.8,1.32; stroke-dashoffset: 0; stroke: #b0b0b0; stroke-width: 0.8"/>
     </g>
     <g id="line2d_6">
      <g>
       <use xlink:href="#m730808865e" x="96.400203" y="89.53625" style="fill: #666666; stroke: #666666; stroke-width: 0.8"/>
      </g>
     </g>
     <g id="text_3">
      <!-- 100 -->
      <g style="fill: #666666" transform="translate(89.727078 98.7625) scale(0.08 -0.08)">
       <use xlink:href="#ArialMT-31"/>
       <use xlink:href="#ArialMT-30" x="55.615234"/>
       <use xlink:href="#ArialMT-30" x="111.230469"/>
      </g>
     </g>
    </g>
    <g id="xtick_4">
     <g id="line2d_7">
      <path d="M 195.404402 89.53625 
L 195.404402 21.84 
" clip-path="url(#p1fb2780f88)" style="fill: none; stroke-dasharray: 0.8,1.32; stroke-dashoffset: 0; stroke: #b0b0b0; stroke-opacity: 0.3; stroke-width: 0.8"/>
     </g>
     <g id="line2d_8">
      <defs>
       <path id="m10225b04cc" d="M 0 0 
L 0 -2 
" style="stroke: #666666; stroke-width: 0.6"/>
      </defs>
      <g>
       <use xlink:href="#m10225b04cc" x="195.404402" y="89.53625" style="fill: #666666; stroke: #666666; stroke-width: 0.6"/>
      </g>
     </g>
    </g>
    <g id="xtick_5">
     <g id="line2d_9">
      <path d="M 185.143024 89.53625 
L 185.143024 21.84 
" clip-path="url(#p1fb2780f88)" style="fill: none; stroke-dasharray: 0.8,1.32; stroke-dashoffset: 0; stroke: #b0b0b0; stroke-opacity: 0.3; stroke-width: 0.8"/>
     </g>
     <g id="line2d_10">
      <g>
       <use xlink:href="#m10225b04cc" x="185.143024" y="89.53625" style="fill: #666666; stroke: #666666; stroke-width: 0.6"/>
      </g>
     </g>
    </g>
    <g id="xtick_6">
     <g id="line2d_11">
      <path d="M 177.86246 89.53625 
L 177.86246 21.84 
" clip-path="url(#p1fb2780f88)" style="fill: none; stroke-dasharray: 0.8,1.32; stroke-dashoffset: 0; stroke: #b0b0b0; stroke-opacity: 0.3; stroke-width: 0.8"/>
     </g>
     <g id="line2d_12">
      <g>
       <use xlink:href="#m10225b04cc" x="177.86246" y="89.53625" style="fill: #666666; stroke: #666666; stroke-width: 0.6"/>
      </g>
     </g>
    </g>
    <g id="xtick_7">
     <g id="line2d_13">
      <path d="M 172.215216 89.53625 
L 172.215216 21.84 
" clip-path="url(#p1fb2780f88)" style="fill: none; stroke-dasharray: 0.8,1.32; stroke-dashoffset: 0; stroke: #b0b0b0; stroke-opacity: 0.3; stroke-width: 0.8"/>
     </g>
     <g id="line2d_14">
      <g>
       <use xlink:href="#m10225b04cc" x="172.215216" y="89.53625" style="fill: #666666; stroke: #666666; stroke-width: 0.6"/>
      </g>
     </g>
    </g>
    <g id="xtick_8">
     <g id="line2d_15">
      <path d="M 167.601081 89.53625 
L 167.601081 21.84 
" clip-path="url(#p1fb2780f88)" style="fill: none; stroke-dasharray: 0.8,1.32; stroke-dashoffset: 0; stroke: #b0b0b0; stroke-opacity: 0.3; stroke-width: 0.8"/>
     </g>
     <g id="line2d_16">
      <g>
       <use xlink:href="#m10225b04cc" x="167.601081" y="89.53625" style="fill: #666666; stroke: #666666; stroke-width: 0.6"/>
      </g>
     </g>
    </g>
    <g id="xtick_9">
     <g id="line2d_17">
      <path d="M 163.699886 89.53625 
L 163.699886 21.84 
" clip-path="url(#p1fb2780f88)" style="fill: none; stroke-dasharray: 0.8,1.32; stroke-dashoffset: 0; stroke: #b0b0b0; stroke-opacity: 0.3; stroke-width: 0.8"/>
     </g>
     <g id="line2d_18">
      <g>
       <use xlink:href="#m10225b04cc" x="163.699886" y="89.53625" style="fill: #666666; stroke: #666666; stroke-width: 0.6"/>
      </g>
     </g>
    </g>
    <g id="xtick_10">
     <g id="line2d_19">
      <path d="M 160.320518 89.53625 
L 160.320518 21.84 
" clip-path="url(#p1fb2780f88)" style="fill: none; stroke-dasharray: 0.8,1.32; stroke-dashoffset: 0; stroke: #b0b0b0; stroke-opacity: 0.3; stroke-width: 0.8"/>
     </g>
     <g id="line2d_20">
      <g>
       <use xlink:href="#m10225b04cc" x="160.320518" y="89.53625" style="fill: #666666; stroke: #666666; stroke-width: 0.6"/>
      </g>
     </g>
    </g>
    <g id="xtick_11">
     <g id="line2d_21">
      <path d="M 157.339703 89.53625 
L 157.339703 21.84 
" clip-path="url(#p1fb2780f88)" style="fill: none; stroke-dasharray: 0.8,1.32; stroke-dashoffset: 0; stroke: #b0b0b0; stroke-opacity: 0.3; stroke-width: 0.8"/>
     </g>
     <g id="line2d_22">
      <g>
       <use xlink:href="#m10225b04cc" x="157.339703" y="89.53625" style="fill: #666666; stroke: #666666; stroke-width: 0.6"/>
      </g>
     </g>
    </g>
    <g id="xtick_12">
     <g id="line2d_23">
      <path d="M 137.131331 89.53625 
L 137.131331 21.84 
" clip-path="url(#p1fb2780f88)" style="fill: none; stroke-dasharray: 0.8,1.32; stroke-dashoffset: 0; stroke: #b0b0b0; stroke-opacity: 0.3; stroke-width: 0.8"/>
     </g>
     <g id="line2d_24">
      <g>
       <use xlink:href="#m10225b04cc" x="137.131331" y="89.53625" style="fill: #666666; stroke: #666666; stroke-width: 0.6"/>
      </g>
     </g>
    </g>
    <g id="xtick_13">
     <g id="line2d_25">
      <path d="M 126.869953 89.53625 
L 126.869953 21.84 
" clip-path="url(#p1fb2780f88)" style="fill: none; stroke-dasharray: 0.8,1.32; stroke-dashoffset: 0; stroke: #b0b0b0; stroke-opacity: 0.3; stroke-width: 0.8"/>
     </g>
     <g id="line2d_26">
      <g>
       <use xlink:href="#m10225b04cc" x="126.869953" y="89.53625" style="fill: #666666; stroke: #666666; stroke-width: 0.6"/>
      </g>
     </g>
    </g>
    <g id="xtick_14">
     <g id="line2d_27">
      <path d="M 119.589389 89.53625 
L 119.589389 21.84 
" clip-path="url(#p1fb2780f88)" style="fill: none; stroke-dasharray: 0.8,1.32; stroke-dashoffset: 0; stroke: #b0b0b0; stroke-opacity: 0.3; stroke-width: 0.8"/>
     </g>
     <g id="line2d_28">
      <g>
       <use xlink:href="#m10225b04cc" x="119.589389" y="89.53625" style="fill: #666666; stroke: #666666; stroke-width: 0.6"/>
      </g>
     </g>
    </g>
    <g id="xtick_15">
     <g id="line2d_29">
      <path d="M 113.942145 89.53625 
L 113.942145 21.84 
" clip-path="url(#p1fb2780f88)" style="fill: none; stroke-dasharray: 0.8,1.32; stroke-dashoffset: 0; stroke: #b0b0b0; stroke-opacity: 0.3; stroke-width: 0.8"/>
     </g>
     <g id="line2d_30">
      <g>
       <use xlink:href="#m10225b04cc" x="113.942145" y="89.53625" style="fill: #666666; stroke: #666666; stroke-width: 0.6"/>
      </g>
     </g>
    </g>
    <g id="xtick_16">
     <g id="line2d_31">
      <path d="M 109.328011 89.53625 
L 109.328011 21.84 
" clip-path="url(#p1fb2780f88)" style="fill: none; stroke-dasharray: 0.8,1.32; stroke-dashoffset: 0; stroke: #b0b0b0; stroke-opacity: 0.3; stroke-width: 0.8"/>
     </g>
     <g id="line2d_32">
      <g>
       <use xlink:href="#m10225b04cc" x="109.328011" y="89.53625" style="fill: #666666; stroke: #666666; stroke-width: 0.6"/>
      </g>
     </g>
    </g>
    <g id="xtick_17">
     <g id="line2d_33">
      <path d="M 105.426816 89.53625 
L 105.426816 21.84 
" clip-path="url(#p1fb2780f88)" style="fill: none; stroke-dasharray: 0.8,1.32; stroke-dashoffset: 0; stroke: #b0b0b0; stroke-opacity: 0.3; stroke-width: 0.8"/>
     </g>
     <g id="line2d_34">
      <g>
       <use xlink:href="#m10225b04cc" x="105.426816" y="89.53625" style="fill: #666666; stroke: #666666; stroke-width: 0.6"/>
      </g>
     </g>
    </g>
    <g id="xtick_18">
     <g id="line2d_35">
      <path d="M 102.047447 89.53625 
L 102.047447 21.84 
" clip-path="url(#p1fb2780f88)" style="fill: none; stroke-dasharray: 0.8,1.32; stroke-dashoffset: 0; stroke: #b0b0b0; stroke-opacity: 0.3; stroke-width: 0.8"/>
     </g>
     <g id="line2d_36">
      <g>
       <use xlink:href="#m10225b04cc" x="102.047447" y="89.53625" style="fill: #666666; stroke: #666666; stroke-width: 0.6"/>
      </g>
     </g>
    </g>
    <g id="xtick_19">
     <g id="line2d_37">
      <path d="M 99.066633 89.53625 
L 99.066633 21.84 
" clip-path="url(#p1fb2780f88)" style="fill: none; stroke-dasharray: 0.8,1.32; stroke-dashoffset: 0; stroke: #b0b0b0; stroke-opacity: 0.3; stroke-width: 0.8"/>
     </g>
     <g id="line2d_38">
      <g>
       <use xlink:href="#m10225b04cc" x="99.066633" y="89.53625" style="fill: #666666; stroke: #666666; stroke-width: 0.6"/>
      </g>
     </g>
    </g>
    <g id="xtick_20">
     <g id="line2d_39">
      <path d="M 78.858261 89.53625 
L 78.858261 21.84 
" clip-path="url(#p1fb2780f88)" style="fill: none; stroke-dasharray: 0.8,1.32; stroke-dashoffset: 0; stroke: #b0b0b0; stroke-opacity: 0.3; stroke-width: 0.8"/>
     </g>
     <g id="line2d_40">
      <g>
       <use xlink:href="#m10225b04cc" x="78.858261" y="89.53625" style="fill: #666666; stroke: #666666; stroke-width: 0.6"/>
      </g>
     </g>
    </g>
    <g id="xtick_21">
     <g id="line2d_41">
      <path d="M 68.596883 89.53625 
L 68.596883 21.84 
" clip-path="url(#p1fb2780f88)" style="fill: none; stroke-dasharray: 0.8,1.32; stroke-dashoffset: 0; stroke: #b0b0b0; stroke-opacity: 0.3; stroke-width: 0.8"/>
     </g>
     <g id="line2d_42">
      <g>
       <use xlink:href="#m10225b04cc" x="68.596883" y="89.53625" style="fill: #666666; stroke: #666666; stroke-width: 0.6"/>
      </g>
     </g>
    </g>
    <g id="xtick_22">
     <g id="line2d_43">
      <path d="M 61.316319 89.53625 
L 61.316319 21.84 
" clip-path="url(#p1fb2780f88)" style="fill: none; stroke-dasharray: 0.8,1.32; stroke-dashoffset: 0; stroke: #b0b0b0; stroke-opacity: 0.3; stroke-width: 0.8"/>
     </g>
     <g id="line2d_44">
      <g>
       <use xlink:href="#m10225b04cc" x="61.316319" y="89.53625" style="fill: #666666; stroke: #666666; stroke-width: 0.6"/>
      </g>
     </g>
    </g>
    <g id="xtick_23">
     <g id="line2d_45">
      <path d="M 55.669075 89.53625 
L 55.669075 21.84 
" clip-path="url(#p1fb2780f88)" style="fill: none; stroke-dasharray: 0.8,1.32; stroke-dashoffset: 0; stroke: #b0b0b0; stroke-opacity: 0.3; stroke-width: 0.8"/>
     </g>
     <g id="line2d_46">
      <g>
       <use xlink:href="#m10225b04cc" x="55.669075" y="89.53625" style="fill: #666666; stroke: #666666; stroke-width: 0.6"/>
      </g>
     </g>
    </g>
    <g id="xtick_24">
     <g id="line2d_47">
      <path d="M 51.05494 89.53625 
L 51.05494 21.84 
" clip-path="url(#p1fb2780f88)" style="fill: none; stroke-dasharray: 0.8,1.32; stroke-dashoffset: 0; stroke: #b0b0b0; stroke-opacity: 0.3; stroke-width: 0.8"/>
     </g>
     <g id="line2d_48">
      <g>
       <use xlink:href="#m10225b04cc" x="51.05494" y="89.53625" style="fill: #666666; stroke: #666666; stroke-width: 0.6"/>
      </g>
     </g>
    </g>
    <g id="xtick_25">
     <g id="line2d_49">
      <path d="M 47.153745 89.53625 
L 47.153745 21.84 
" clip-path="url(#p1fb2780f88)" style="fill: none; stroke-dasharray: 0.8,1.32; stroke-dashoffset: 0; stroke: #b0b0b0; stroke-opacity: 0.3; stroke-width: 0.8"/>
     </g>
     <g id="line2d_50">
      <g>
       <use xlink:href="#m10225b04cc" x="47.153745" y="89.53625" style="fill: #666666; stroke: #666666; stroke-width: 0.6"/>
      </g>
     </g>
    </g>
    <g id="xtick_26">
     <g id="line2d_51">
      <path d="M 43.774377 89.53625 
L 43.774377 21.84 
" clip-path="url(#p1fb2780f88)" style="fill: none; stroke-dasharray: 0.8,1.32; stroke-dashoffset: 0; stroke: #b0b0b0; stroke-opacity: 0.3; stroke-width: 0.8"/>
     </g>
     <g id="line2d_52">
      <g>
       <use xlink:href="#m10225b04cc" x="43.774377" y="89.53625" style="fill: #666666; stroke: #666666; stroke-width: 0.6"/>
      </g>
     </g>
    </g>
    <g id="xtick_27">
     <g id="line2d_53">
      <path d="M 40.793562 89.53625 
L 40.793562 21.84 
" clip-path="url(#p1fb2780f88)" style="fill: none; stroke-dasharray: 0.8,1.32; stroke-dashoffset: 0; stroke: #b0b0b0; stroke-opacity: 0.3; stroke-width: 0.8"/>
     </g>
     <g id="line2d_54">
      <g>
       <use xlink:href="#m10225b04cc" x="40.793562" y="89.53625" style="fill: #666666; stroke: #666666; stroke-width: 0.6"/>
      </g>
     </g>
    </g>
   </g>
   <g id="matplotlib.axis_2">
    <g id="ytick_1">
     <g id="line2d_55">
      <path d="M 40.793562 89.53625 
L 213.200695 89.53625 
" clip-path="url(#p1fb2780f88)" style="fill: none; stroke-dasharray: 0.8,1.32; stroke-dashoffset: 0; stroke: #b0b0b0; stroke-width: 0.8"/>
     </g>
     <g id="line2d_56">
      <defs>
       <path id="mc3ff78991f" d="M 0 0 
L 3.5 0 
" style="stroke: #666666; stroke-width: 0.8"/>
      </defs>
      <g>
       <use xlink:href="#mc3ff78991f" x="40.793562" y="89.53625" style="fill: #666666; stroke: #666666; stroke-width: 0.8"/>
      </g>
     </g>
     <g id="text_4">
      <!-- −30 -->
      <g style="fill: #666666" transform="translate(23.723562 92.399375) scale(0.08 -0.08)">
       <defs>
        <path id="ArialMT-2212" d="M 3381 1997 
L 356 1997 
L 356 2522 
L 3381 2522 
L 3381 1997 
z
" transform="scale(0.015625)"/>
        <path id="ArialMT-33" d="M 269 1209 
L 831 1284 
Q 928 806 1161 595 
Q 1394 384 1728 384 
Q 2125 384 2398 659 
Q 2672 934 2672 1341 
Q 2672 1728 2419 1979 
Q 2166 2231 1775 2231 
Q 1616 2231 1378 2169 
L 1441 2663 
Q 1497 2656 1531 2656 
Q 1891 2656 2178 2843 
Q 2466 3031 2466 3422 
Q 2466 3731 2256 3934 
Q 2047 4138 1716 4138 
Q 1388 4138 1169 3931 
Q 950 3725 888 3313 
L 325 3413 
Q 428 3978 793 4289 
Q 1159 4600 1703 4600 
Q 2078 4600 2393 4439 
Q 2709 4278 2876 4000 
Q 3044 3722 3044 3409 
Q 3044 3113 2884 2869 
Q 2725 2625 2413 2481 
Q 2819 2388 3044 2092 
Q 3269 1797 3269 1353 
Q 3269 753 2831 336 
Q 2394 -81 1725 -81 
Q 1122 -81 723 278 
Q 325 638 269 1209 
z
" transform="scale(0.015625)"/>
       </defs>
       <use xlink:href="#ArialMT-2212"/>
       <use xlink:href="#ArialMT-33" x="58.398438"/>
       <use xlink:href="#ArialMT-30" x="114.013672"/>
      </g>
     </g>
    </g>
    <g id="ytick_2">
     <g id="line2d_57">
      <path d="M 40.793562 66.970833 
L 213.200695 66.970833 
" clip-path="url(#p1fb2780f88)" style="fill: none; stroke-dasharray: 0.8,1.32; stroke-dashoffset: 0; stroke: #b0b0b0; stroke-width: 0.8"/>
     </g>
     <g id="line2d_58">
      <g>
       <use xlink:href="#mc3ff78991f" x="40.793562" y="66.970833" style="fill: #666666; stroke: #666666; stroke-width: 0.8"/>
      </g>
     </g>
     <g id="text_5">
      <!-- −20 -->
      <g style="fill: #666666" transform="translate(23.723562 69.833958) scale(0.08 -0.08)">
       <defs>
        <path id="ArialMT-32" d="M 3222 541 
L 3222 0 
L 194 0 
Q 188 203 259 391 
Q 375 700 629 1000 
Q 884 1300 1366 1694 
Q 2113 2306 2375 2664 
Q 2638 3022 2638 3341 
Q 2638 3675 2398 3904 
Q 2159 4134 1775 4134 
Q 1369 4134 1125 3890 
Q 881 3647 878 3216 
L 300 3275 
Q 359 3922 746 4261 
Q 1134 4600 1788 4600 
Q 2447 4600 2831 4234 
Q 3216 3869 3216 3328 
Q 3216 3053 3103 2787 
Q 2991 2522 2730 2228 
Q 2469 1934 1863 1422 
Q 1356 997 1212 845 
Q 1069 694 975 541 
L 3222 541 
z
" transform="scale(0.015625)"/>
       </defs>
       <use xlink:href="#ArialMT-2212"/>
       <use xlink:href="#ArialMT-32" x="58.398438"/>
       <use xlink:href="#ArialMT-30" x="114.013672"/>
      </g>
     </g>
    </g>
    <g id="ytick_3">
     <g id="line2d_59">
      <path d="M 40.793562 44.405417 
L 213.200695 44.405417 
" clip-path="url(#p1fb2780f88)" style="fill: none; stroke-dasharray: 0.8,1.32; stroke-dashoffset: 0; stroke: #b0b0b0; stroke-width: 0.8"/>
     </g>
     <g id="line2d_60">
      <g>
       <use xlink:href="#mc3ff78991f" x="40.793562" y="44.405417" style="fill: #666666; stroke: #666666; stroke-width: 0.8"/>
      </g>
     </g>
     <g id="text_6">
      <!-- −10 -->
      <g style="fill: #666666" transform="translate(23.723562 47.268542) scale(0.08 -0.08)">
       <use xlink:href="#ArialMT-2212"/>
       <use xlink:href="#ArialMT-31" x="58.398438"/>
       <use xlink:href="#ArialMT-30" x="114.013672"/>
      </g>
     </g>
    </g>
    <g id="ytick_4">
     <g id="line2d_61">
      <path d="M 40.793562 21.84 
L 213.200695 21.84 
" clip-path="url(#p1fb2780f88)" style="fill: none; stroke-dasharray: 0.8,1.32; stroke-dashoffset: 0; stroke: #b0b0b0; stroke-width: 0.8"/>
     </g>
     <g id="line2d_62">
      <g>
       <use xlink:href="#mc3ff78991f" x="40.793562" y="21.84" style="fill: #666666; stroke: #666666; stroke-width: 0.8"/>
      </g>
     </g>
     <g id="text_7">
      <!-- 0 -->
      <g style="fill: #666666" transform="translate(32.844812 24.703125) scale(0.08 -0.08)">
       <use xlink:href="#ArialMT-30"/>
      </g>
     </g>
    </g>
    <g id="ytick_5">
     <g id="line2d_63">
      <path d="M 40.793562 78.253542 
L 213.200695 78.253542 
" clip-path="url(#p1fb2780f88)" style="fill: none; stroke-dasharray: 0.8,1.32; stroke-dashoffset: 0; stroke: #b0b0b0; stroke-opacity: 0.3; stroke-width: 0.8"/>
     </g>
     <g id="line2d_64">
      <defs>
       <path id="m64ef4db246" d="M 0 0 
L 2 0 
" style="stroke: #666666; stroke-width: 0.6"/>
      </defs>
      <g>
       <use xlink:href="#m64ef4db246" x="40.793562" y="78.253542" style="fill: #666666; stroke: #666666; stroke-width: 0.6"/>
      </g>
     </g>
    </g>
    <g id="ytick_6">
     <g id="line2d_65">
      <path d="M 40.793562 55.688125 
L 213.200695 55.688125 
" clip-path="url(#p1fb2780f88)" style="fill: none; stroke-dasharray: 0.8,1.32; stroke-dashoffset: 0; stroke: #b0b0b0; stroke-opacity: 0.3; stroke-width: 0.8"/>
     </g>
     <g id="line2d_66">
      <g>
       <use xlink:href="#m64ef4db246" x="40.793562" y="55.688125" style="fill: #666666; stroke: #666666; stroke-width: 0.6"/>
      </g>
     </g>
    </g>
    <g id="ytick_7">
     <g id="line2d_67">
      <path d="M 40.793562 33.122708 
L 213.200695 33.122708 
" clip-path="url(#p1fb2780f88)" style="fill: none; stroke-dasharray: 0.8,1.32; stroke-dashoffset: 0; stroke: #b0b0b0; stroke-opacity: 0.3; stroke-width: 0.8"/>
     </g>
     <g id="line2d_68">
      <g>
       <use xlink:href="#m64ef4db246" x="40.793562" y="33.122708" style="fill: #666666; stroke: #666666; stroke-width: 0.6"/>
      </g>
     </g>
    </g>
    <g id="text_8">
     <!-- Magnitude (dB) -->
     <g style="fill: #666666" transform="translate(18.039812 83.03375) rotate(-90) scale(0.08 -0.08)">
      <defs>
       <path id="ArialMT-4d" d="M 475 0 
L 475 4581 
L 1388 4581 
L 2472 1338 
Q 2622 884 2691 659 
Q 2769 909 2934 1394 
L 4031 4581 
L 4847 4581 
L 4847 0 
L 4263 0 
L 4263 3834 
L 2931 0 
L 2384 0 
L 1059 3900 
L 1059 0 
L 475 0 
z
" transform="scale(0.015625)"/>
       <path id="ArialMT-61" d="M 2588 409 
Q 2275 144 1986 34 
Q 1697 -75 1366 -75 
Q 819 -75 525 192 
Q 231 459 231 875 
Q 231 1119 342 1320 
Q 453 1522 633 1644 
Q 813 1766 1038 1828 
Q 1203 1872 1538 1913 
Q 2219 1994 2541 2106 
Q 2544 2222 2544 2253 
Q 2544 2597 2384 2738 
Q 2169 2928 1744 2928 
Q 1347 2928 1158 2789 
Q 969 2650 878 2297 
L 328 2372 
Q 403 2725 575 2942 
Q 747 3159 1072 3276 
Q 1397 3394 1825 3394 
Q 2250 3394 2515 3294 
Q 2781 3194 2906 3042 
Q 3031 2891 3081 2659 
Q 3109 2516 3109 2141 
L 3109 1391 
Q 3109 606 3145 398 
Q 3181 191 3288 0 
L 2700 0 
Q 2613 175 2588 409 
z
M 2541 1666 
Q 2234 1541 1622 1453 
Q 1275 1403 1131 1340 
Q 988 1278 909 1158 
Q 831 1038 831 891 
Q 831 666 1001 516 
Q 1172 366 1500 366 
Q 1825 366 2078 508 
Q 2331 650 2450 897 
Q 2541 1088 2541 1459 
L 2541 1666 
z
" transform="scale(0.015625)"/>
       <path id="ArialMT-67" d="M 319 -275 
L 866 -356 
Q 900 -609 1056 -725 
Q 1266 -881 1628 -881 
Q 2019 -881 2231 -725 
Q 2444 -569 2519 -288 
Q 2563 -116 2559 434 
Q 2191 0 1641 0 
Q 956 0 581 494 
Q 206 988 206 1678 
Q 206 2153 378 2554 
Q 550 2956 876 3175 
Q 1203 3394 1644 3394 
Q 2231 3394 2613 2919 
L 2613 3319 
L 3131 3319 
L 3131 450 
Q 3131 -325 2973 -648 
Q 2816 -972 2473 -1159 
Q 2131 -1347 1631 -1347 
Q 1038 -1347 672 -1080 
Q 306 -813 319 -275 
z
M 784 1719 
Q 784 1066 1043 766 
Q 1303 466 1694 466 
Q 2081 466 2343 764 
Q 2606 1063 2606 1700 
Q 2606 2309 2336 2618 
Q 2066 2928 1684 2928 
Q 1309 2928 1046 2623 
Q 784 2319 784 1719 
z
" transform="scale(0.015625)"/>
       <path id="ArialMT-6e" d="M 422 0 
L 422 3319 
L 928 3319 
L 928 2847 
Q 1294 3394 1984 3394 
Q 2284 3394 2536 3286 
Q 2788 3178 2913 3003 
Q 3038 2828 3088 2588 
Q 3119 2431 3119 2041 
L 3119 0 
L 2556 0 
L 2556 2019 
Q 2556 2363 2490 2533 
Q 2425 2703 2258 2804 
Q 2091 2906 1866 2906 
Q 1506 2906 1245 2678 
Q 984 2450 984 1813 
L 984 0 
L 422 0 
z
" transform="scale(0.015625)"/>
       <path id="ArialMT-69" d="M 425 3934 
L 425 4581 
L 988 4581 
L 988 3934 
L 425 3934 
z
M 425 0 
L 425 3319 
L 988 3319 
L 988 0 
L 425 0 
z
" transform="scale(0.015625)"/>
       <path id="ArialMT-74" d="M 1650 503 
L 1731 6 
Q 1494 -44 1306 -44 
Q 1000 -44 831 53 
Q 663 150 594 308 
Q 525 466 525 972 
L 525 2881 
L 113 2881 
L 113 3319 
L 525 3319 
L 525 4141 
L 1084 4478 
L 1084 3319 
L 1650 3319 
L 1650 2881 
L 1084 2881 
L 1084 941 
Q 1084 700 1114 631 
Q 1144 563 1211 522 
Q 1278 481 1403 481 
Q 1497 481 1650 503 
z
" transform="scale(0.015625)"/>
       <path id="ArialMT-75" d="M 2597 0 
L 2597 488 
Q 2209 -75 1544 -75 
Q 1250 -75 995 37 
Q 741 150 617 320 
Q 494 491 444 738 
Q 409 903 409 1263 
L 409 3319 
L 972 3319 
L 972 1478 
Q 972 1038 1006 884 
Q 1059 663 1231 536 
Q 1403 409 1656 409 
Q 1909 409 2131 539 
Q 2353 669 2445 892 
Q 2538 1116 2538 1541 
L 2538 3319 
L 3100 3319 
L 3100 0 
L 2597 0 
z
" transform="scale(0.015625)"/>
       <path id="ArialMT-64" d="M 2575 0 
L 2575 419 
Q 2259 -75 1647 -75 
Q 1250 -75 917 144 
Q 584 363 401 755 
Q 219 1147 219 1656 
Q 219 2153 384 2558 
Q 550 2963 881 3178 
Q 1213 3394 1622 3394 
Q 1922 3394 2156 3267 
Q 2391 3141 2538 2938 
L 2538 4581 
L 3097 4581 
L 3097 0 
L 2575 0 
z
M 797 1656 
Q 797 1019 1065 703 
Q 1334 388 1700 388 
Q 2069 388 2326 689 
Q 2584 991 2584 1609 
Q 2584 2291 2321 2609 
Q 2059 2928 1675 2928 
Q 1300 2928 1048 2622 
Q 797 2316 797 1656 
z
" transform="scale(0.015625)"/>
       <path id="ArialMT-65" d="M 2694 1069 
L 3275 997 
Q 3138 488 2766 206 
Q 2394 -75 1816 -75 
Q 1088 -75 661 373 
Q 234 822 234 1631 
Q 234 2469 665 2931 
Q 1097 3394 1784 3394 
Q 2450 3394 2872 2941 
Q 3294 2488 3294 1666 
Q 3294 1616 3291 1516 
L 816 1516 
Q 847 969 1125 678 
Q 1403 388 1819 388 
Q 2128 388 2347 550 
Q 2566 713 2694 1069 
z
M 847 1978 
L 2700 1978 
Q 2663 2397 2488 2606 
Q 2219 2931 1791 2931 
Q 1403 2931 1139 2672 
Q 875 2413 847 1978 
z
" transform="scale(0.015625)"/>
       <path id="ArialMT-20" transform="scale(0.015625)"/>
       <path id="ArialMT-28" d="M 1497 -1347 
Q 1031 -759 709 28 
Q 388 816 388 1659 
Q 388 2403 628 3084 
Q 909 3875 1497 4659 
L 1900 4659 
Q 1522 4009 1400 3731 
Q 1209 3300 1100 2831 
Q 966 2247 966 1656 
Q 966 153 1900 -1347 
L 1497 -1347 
z
" transform="scale(0.015625)"/>
       <path id="ArialMT-42" d="M 469 0 
L 469 4581 
L 2188 4581 
Q 2713 4581 3030 4442 
Q 3347 4303 3526 4014 
Q 3706 3725 3706 3409 
Q 3706 3116 3547 2856 
Q 3388 2597 3066 2438 
Q 3481 2316 3704 2022 
Q 3928 1728 3928 1328 
Q 3928 1006 3792 729 
Q 3656 453 3456 303 
Q 3256 153 2954 76 
Q 2653 0 2216 0 
L 469 0 
z
M 1075 2656 
L 2066 2656 
Q 2469 2656 2644 2709 
Q 2875 2778 2992 2937 
Q 3109 3097 3109 3338 
Q 3109 3566 3000 3739 
Q 2891 3913 2687 3977 
Q 2484 4041 1991 4041 
L 1075 4041 
L 1075 2656 
z
M 1075 541 
L 2216 541 
Q 2509 541 2628 563 
Q 2838 600 2978 687 
Q 3119 775 3209 942 
Q 3300 1109 3300 1328 
Q 3300 1584 3169 1773 
Q 3038 1963 2805 2039 
Q 2572 2116 2134 2116 
L 1075 2116 
L 1075 541 
z
" transform="scale(0.015625)"/>
       <path id="ArialMT-29" d="M 791 -1347 
L 388 -1347 
Q 1322 153 1322 1656 
Q 1322 2244 1188 2822 
Q 1081 3291 891 3722 
Q 769 4003 388 4659 
L 791 4659 
Q 1378 3875 1659 3084 
Q 1900 2403 1900 1659 
Q 1900 816 1576 28 
Q 1253 -759 791 -1347 
z
" transform="scale(0.015625)"/>
      </defs>
      <use xlink:href="#ArialMT-4d"/>
      <use xlink:href="#ArialMT-61" x="83.300781"/>
      <use xlink:href="#ArialMT-67" x="138.916016"/>
      <use xlink:href="#ArialMT-6e" x="194.53125"/>
      <use xlink:href="#ArialMT-69" x="250.146484"/>
      <use xlink:href="#ArialMT-74" x="272.363281"/>
      <use xlink:href="#ArialMT-75" x="300.146484"/>
      <use xlink:href="#ArialMT-64" x="355.761719"/>
      <use xlink:href="#ArialMT-65" x="411.376953"/>
      <use xlink:href="#ArialMT-20" x="466.992188"/>
      <use xlink:href="#ArialMT-28" x="494.775391"/>
      <use xlink:href="#ArialMT-64" x="528.076172"/>
      <use xlink:href="#ArialMT-42" x="583.691406"/>
      <use xlink:href="#ArialMT-29" x="650.390625"/>
     </g>
    </g>
   </g>
   <g id="patch_3">
    <path d="M 40.793562 89.53625 
L 40.793562 21.84 
" style="fill: none; stroke: #666666; stroke-linejoin: miter; stroke-linecap: square"/>
   </g>
   <g id="patch_4">
    <path d="M 40.793562 89.53625 
L 213.200695 89.53625 
" style="fill: none; stroke: #666666; stroke-linejoin: miter; stroke-linecap: square"/>
   </g>
   <g id="text_9">
    <!-- a -->
    <g style="fill: #666666" transform="translate(40.793562 15.84) scale(0.1 -0.1)">
     <defs>
      <path id="Arial-BoldMT-61" d="M 1116 2306 
L 319 2450 
Q 453 2931 781 3162 
Q 1109 3394 1756 3394 
Q 2344 3394 2631 3255 
Q 2919 3116 3036 2902 
Q 3153 2688 3153 2116 
L 3144 1091 
Q 3144 653 3186 445 
Q 3228 238 3344 0 
L 2475 0 
Q 2441 88 2391 259 
Q 2369 338 2359 363 
Q 2134 144 1878 34 
Q 1622 -75 1331 -75 
Q 819 -75 523 203 
Q 228 481 228 906 
Q 228 1188 362 1408 
Q 497 1628 739 1745 
Q 981 1863 1438 1950 
Q 2053 2066 2291 2166 
L 2291 2253 
Q 2291 2506 2166 2614 
Q 2041 2722 1694 2722 
Q 1459 2722 1328 2630 
Q 1197 2538 1116 2306 
z
M 2291 1594 
Q 2122 1538 1756 1459 
Q 1391 1381 1278 1306 
Q 1106 1184 1106 997 
Q 1106 813 1243 678 
Q 1381 544 1594 544 
Q 1831 544 2047 700 
Q 2206 819 2256 991 
Q 2291 1103 2291 1419 
L 2291 1594 
z
" transform="scale(0.015625)"/>
     </defs>
     <use xlink:href="#Arial-BoldMT-61"/>
    </g>
   </g>
   <g id="patch_5">
    <path d="M 195.404402 89.53625 
L 195.404402 21.84 
L 163.699886 21.84 
L 163.699886 89.53625 
z
" clip-path="url(#p1fb2780f88)" style="fill: #029e73; opacity: 0.15"/>
   </g>
   <g id="patch_6">
    <path d="M 137.131331 89.53625 
L 137.131331 21.84 
L 113.942145 21.84 
L 113.942145 89.53625 
z
" clip-path="url(#p1fb2780f88)" style="fill: #029e73; opacity: 0.15"/>
   </g>
   <g id="line2d_69">
    <path d="M 131.532899 55.688125 
L 106.191874 55.688125 
" clip-path="url(#p1fb2780f88)" style="fill: none; stroke: #333333; stroke-linecap: square"/>
   </g>
   <g id="PathCollection_1">
    <defs>
     <path id="m28426f281d" d="M 0 1.581139 
C 0.419323 1.581139 0.821528 1.41454 1.118034 1.118034 
C 1.41454 0.821528 1.581139 0.419323 1.581139 0 
C 1.581139 -0.419323 1.41454 -0.821528 1.118034 -1.118034 
C 0.821528 -1.41454 0.419323 -1.581139 0 -1.581139 
C -0.419323 -1.581139 -0.821528 -1.41454 -1.118034 -1.118034 
C -1.41454 -0.821528 -1.581139 -0.419323 -1.581139 0 
C -1.581139 0.419323 -1.41454 0.821528 -1.118034 1.118034 
C -0.821528 1.41454 -0.419323 1.581139 0 1.581139 
z
" style="stroke: #333333"/>
    </defs>
    <g clip-path="url(#p1fb2780f88)">
     <use xlink:href="#m28426f281d" x="118.309213" y="55.688125" style="fill: #333333; stroke: #333333"/>
    </g>
   </g>
   <g id="line2d_70">
    <path d="M -1 22.163248 
L 8.513931 22.492694 
L 16.672161 22.989974 
L 23.66493 23.630264 
L 31.240429 24.55575 
L 56.297849 27.867991 
L 63.873348 28.469535 
L 72.614309 28.914366 
L 84.851654 29.277809 
L 104.664498 29.846404 
L 112.822727 30.322136 
L 118.650035 30.86397 
L 123.894611 31.566212 
L 128.556456 32.415349 
L 132.635571 33.370043 
L 136.714686 34.550891 
L 140.793801 35.977061 
L 144.872916 37.656408 
L 148.952031 39.583988 
L 153.031146 41.743043 
L 157.692992 44.460999 
L 162.937568 47.783788 
L 169.347606 52.135382 
L 176.923105 57.560706 
L 187.412258 65.36865 
L 203.728717 77.823571 
L 229 97.335022 
L 229 97.335022 
" clip-path="url(#p1fb2780f88)" style="fill: none; stroke: #b2b2b2; stroke-width: 0.75; stroke-linecap: square"/>
   </g>
   <g id="line2d_71">
    <path d="M -1 22.006125 
L 11.427585 22.271943 
L 20.168545 22.66779 
L 27.161314 23.199698 
L 33.571352 23.921143 
L 39.398659 24.803516 
L 45.808696 26.012156 
L 55.715118 28.16129 
L 63.873348 29.851565 
L 70.283386 30.949307 
L 76.693424 31.799365 
L 83.686192 32.480502 
L 93.009883 33.138766 
L 107.578151 34.152348 
L 113.988189 34.831367 
L 119.232765 35.606468 
L 123.894611 36.522421 
L 127.973726 37.538553 
L 132.052841 38.783243 
L 136.131956 40.274063 
L 140.211071 42.016502 
L 144.290186 44.0031 
L 148.952031 46.547917 
L 153.613877 49.346462 
L 158.858453 52.740998 
L 165.268491 57.155764 
L 173.426721 63.058006 
L 185.081335 71.797443 
L 204.311448 86.539093 
L 229 105.622919 
L 229 105.622919 
" clip-path="url(#p1fb2780f88)" style="fill: none; stroke: #b2b2b2; stroke-width: 0.75; stroke-linecap: square"/>
   </g>
   <g id="line2d_72">
    <path d="M -1 22.068566 
L 9.679393 22.358322 
L 17.837623 22.79066 
L 24.24766 23.340461 
L 30.074967 24.060017 
L 35.319544 24.919313 
L 41.146851 26.115009 
L 47.556888 27.669066 
L 63.873348 31.744027 
L 69.700655 32.887557 
L 75.527962 33.790539 
L 81.938 34.540533 
L 90.09623 35.24655 
L 107.578151 36.683414 
L 113.405458 37.424659 
L 118.067304 38.218056 
L 122.729149 39.244649 
L 126.808264 40.370541 
L 130.887379 41.73354 
L 134.966494 43.346057 
L 139.045609 45.207619 
L 143.124724 47.305206 
L 147.78657 49.96168 
L 153.031146 53.228367 
L 158.858453 57.127167 
L 166.433952 62.493189 
L 176.340374 69.818848 
L 191.491373 81.343289 
L 222.958831 105.629544 
L 229 110.305339 
L 229 110.305339 
" clip-path="url(#p1fb2780f88)" style="fill: none; stroke: #b2b2b2; stroke-width: 0.75; stroke-linecap: square"/>
   </g>
   <g id="line2d_73">
    <path d="M -1 22.083905 
L 9.679393 22.392319 
L 17.254892 22.809012 
L 23.66493 23.368661 
L 29.492237 24.100338 
L 34.736813 24.97308 
L 40.56412 26.185896 
L 46.974158 27.760119 
L 63.290618 31.889573 
L 69.117925 33.059007 
L 74.945232 33.998189 
L 81.938 34.873703 
L 94.758076 36.168291 
L 102.333575 37.063081 
L 107.578151 37.884284 
L 112.239997 38.825452 
L 116.319112 39.854823 
L 120.398227 41.106761 
L 124.477342 42.600578 
L 128.556456 44.343196 
L 132.635571 46.328299 
L 137.297417 48.870444 
L 141.959263 51.666092 
L 147.203839 55.057673 
L 153.613877 59.469606 
L 161.772107 65.369456 
L 173.426721 74.10712 
L 192.656834 88.84779 
L 229 116.953842 
L 229 116.953842 
" clip-path="url(#p1fb2780f88)" style="fill: none; stroke: #b2b2b2; stroke-width: 0.75; stroke-linecap: square"/>
   </g>
   <g id="line2d_74">
    <path d="M -1 21.882501 
L 20.168545 22.062166 
L 31.240429 22.356464 
L 39.398659 22.779291 
L 46.391427 23.365374 
L 52.801465 24.139992 
L 59.211503 25.160116 
L 66.787002 26.621232 
L 82.520731 29.735032 
L 90.09623 30.934278 
L 100.585383 32.31572 
L 109.909074 33.619149 
L 115.15365 34.557926 
L 119.815496 35.603332 
L 123.894611 36.725443 
L 127.973726 38.071049 
L 132.052841 39.657376 
L 136.131956 41.488346 
L 140.211071 43.554579 
L 144.872916 46.177634 
L 150.117493 49.412395 
L 155.9448 53.283826 
L 162.937568 58.205358 
L 172.261259 65.061107 
L 186.246796 75.661201 
L 213.052409 96.318877 
L 229 108.659738 
L 229 108.659738 
" clip-path="url(#p1fb2780f88)" style="fill: none; stroke: #b2b2b2; stroke-width: 0.75; stroke-linecap: square"/>
   </g>
   <g id="line2d_75">
    <path d="M -1 21.969484 
L 12.593046 22.208883 
L 21.916737 22.578232 
L 29.492237 23.100425 
L 35.902274 23.759713 
L 42.312312 24.646736 
L 49.305081 25.844166 
L 67.952463 29.181575 
L 74.362501 30.032695 
L 81.355269 30.742877 
L 91.261691 31.503159 
L 103.499036 32.463318 
L 109.909074 33.192026 
L 115.15365 34.014113 
L 119.815496 34.978161 
L 123.894611 36.041132 
L 127.973726 37.335946 
L 132.052841 38.878246 
L 136.131956 40.671164 
L 140.211071 42.704951 
L 144.872916 45.297442 
L 150.117493 48.505447 
L 155.9448 52.355255 
L 162.937568 57.259553 
L 172.261259 64.102211 
L 185.664066 74.248201 
L 211.304217 93.995971 
L 229 107.688219 
L 229 107.688219 
" clip-path="url(#p1fb2780f88)" style="fill: none; stroke: #b2b2b2; stroke-width: 0.75; stroke-linecap: square"/>
   </g>
   <g id="line2d_76">
    <path d="M -1 22.315138 
L 7.34847 22.704728 
L 14.923969 23.271124 
L 21.916737 24.007764 
L 30.657698 25.17139 
L 45.225966 27.149202 
L 52.801465 27.914448 
L 60.376964 28.45009 
L 69.700655 28.871515 
L 101.750844 30.08871 
L 108.160882 30.672919 
L 113.405458 31.371588 
L 118.067304 32.215633 
L 122.146419 33.164579 
L 126.225534 34.338743 
L 130.304649 35.757646 
L 134.383764 37.429563 
L 138.462878 39.349971 
L 142.541993 41.502456 
L 147.203839 44.213924 
L 152.448415 47.530855 
L 158.858453 51.87723 
L 166.433952 57.298577 
L 176.923105 65.103564 
L 193.239565 77.556737 
L 229 105.185729 
L 229 105.185729 
" clip-path="url(#p1fb2780f88)" style="fill: none; stroke: #b2b2b2; stroke-width: 0.75; stroke-linecap: square"/>
   </g>
   <g id="line2d_77">
    <path d="M -1 21.939442 
L 14.341238 22.167887 
L 23.66493 22.505686 
L 31.240429 23.000218 
L 37.650466 23.654606 
L 42.895043 24.398657 
L 48.139619 25.354428 
L 53.966926 26.656531 
L 61.542425 28.618729 
L 73.19704 31.653356 
L 79.024347 32.929211 
L 84.851654 33.977383 
L 91.261691 34.898096 
L 101.168113 36.055176 
L 110.491805 37.214454 
L 116.319112 38.172176 
L 120.980957 39.158785 
L 125.060072 40.228554 
L 129.139187 41.521391 
L 133.218302 43.055759 
L 137.297417 44.837276 
L 141.376532 46.858258 
L 146.038378 49.436343 
L 151.282954 52.630071 
L 157.110261 56.467325 
L 164.103029 61.361026 
L 172.84399 67.761056 
L 185.664066 77.445681 
L 208.973294 95.378666 
L 229 110.870793 
L 229 110.870793 
" clip-path="url(#p1fb2780f88)" style="fill: none; stroke: #b2b2b2; stroke-width: 0.75; stroke-linecap: square"/>
   </g>
   <g id="line2d_78">
    <path d="M -1 21.926115 
L 14.923969 22.137825 
L 24.830391 22.47356 
L 32.40589 22.947076 
L 38.815928 23.57733 
L 44.643235 24.392019 
L 49.887811 25.350988 
L 55.715118 26.66255 
L 62.707887 28.491206 
L 75.527962 31.899004 
L 81.355269 33.197609 
L 87.182576 34.269553 
L 93.592614 35.222737 
L 116.319112 38.365898 
L 120.980957 39.357825 
L 125.060072 40.427899 
L 129.139187 41.71805 
L 133.218302 43.247715 
L 137.297417 45.023414 
L 141.376532 47.038232 
L 146.038378 49.609587 
L 150.700223 52.42911 
L 156.52753 56.233734 
L 163.520299 61.100431 
L 172.261259 67.480337 
L 185.081335 77.151192 
L 207.807832 94.627124 
L 229 111.019475 
L 229 111.019475 
" clip-path="url(#p1fb2780f88)" style="fill: none; stroke: #b2b2b2; stroke-width: 0.75; stroke-linecap: square"/>
   </g>
   <g id="line2d_79">
    <path d="M -1 22.004404 
L 11.427585 22.267074 
L 20.168545 22.657333 
L 27.161314 23.180031 
L 33.571352 23.885831 
L 39.398659 24.744057 
L 45.808696 25.910407 
L 68.535194 30.29756 
L 74.945232 31.134732 
L 81.938 31.799325 
L 90.678961 32.378025 
L 111.074535 33.613162 
L 117.484573 34.282701 
L 122.729149 35.059214 
L 127.390995 35.982017 
L 131.47011 37.007599 
L 135.549225 38.264114 
L 139.62834 39.768192 
L 143.707455 41.524338 
L 147.78657 43.524188 
L 152.448415 46.082712 
L 157.110261 48.89286 
L 162.937568 52.689319 
L 169.930337 57.54981 
L 178.671297 63.925363 
L 190.908642 73.149147 
L 213.052409 90.167734 
L 229 102.498778 
L 229 102.498778 
" clip-path="url(#p1fb2780f88)" style="fill: none; stroke: #b2b2b2; stroke-width: 0.75; stroke-linecap: square"/>
   </g>
   <g id="line2d_80">
    <path d="M -1 22.488617 
L 6.183008 22.931052 
L 12.593046 23.532354 
L 18.420353 24.289042 
L 24.24766 25.25641 
L 31.823159 26.766065 
L 45.808696 29.627746 
L 52.218734 30.665021 
L 58.046041 31.38876 
L 64.456079 31.964351 
L 72.031578 32.416962 
L 82.520731 32.802983 
L 104.081767 33.535517 
L 111.657266 34.051407 
L 117.484573 34.667666 
L 122.729149 35.459294 
L 127.390995 36.40716 
L 131.47011 37.461994 
L 135.549225 38.752709 
L 139.62834 40.293721 
L 143.707455 42.08716 
L 147.78657 44.122491 
L 152.448415 46.717261 
L 157.692992 49.927842 
L 163.520299 53.780082 
L 170.513067 58.68652 
L 179.836759 65.530913 
L 193.239565 75.678042 
L 218.879716 95.426365 
L 229 103.25505 
L 229 103.25505 
" clip-path="url(#p1fb2780f88)" style="fill: none; stroke: #b2b2b2; stroke-width: 0.75; stroke-linecap: square"/>
   </g>
   <g id="line2d_81">
    <path d="M -1 22.019113 
L 10.844854 22.283957 
L 19.585815 22.687515 
L 26.578583 23.224909 
L 32.988621 23.945024 
L 39.398659 24.909887 
L 46.391427 26.206034 
L 63.873348 29.593076 
L 70.283386 30.52811 
L 76.693424 31.234484 
L 84.268923 31.832932 
L 96.506268 32.52951 
L 106.99542 33.19913 
L 113.405458 33.811378 
L 118.650035 34.518109 
L 123.31188 35.360774 
L 127.390995 36.30335 
L 131.47011 37.467508 
L 135.549225 38.873959 
L 139.62834 40.532192 
L 143.707455 42.438814 
L 147.78657 44.57833 
L 152.448415 47.276751 
L 157.692992 50.58174 
L 164.103029 54.917373 
L 171.678529 60.330477 
L 182.167681 68.129305 
L 198.484141 80.578828 
L 229 104.146904 
L 229 104.146904 
" clip-path="url(#p1fb2780f88)" style="fill: none; stroke: #b2b2b2; stroke-width: 0.75; stroke-linecap: square"/>
   </g>
   <g id="line2d_82">
    <path d="M -1 22.071505 
L 10.262123 22.37248 
L 19.003084 22.817065 
L 26.578583 23.425632 
L 33.571352 24.213955 
L 40.56412 25.229602 
L 48.72235 26.652805 
L 67.952463 30.132556 
L 74.945232 31.114402 
L 82.520731 31.937919 
L 91.844422 32.703607 
L 106.99542 33.926092 
L 113.405458 34.694112 
L 118.650035 35.551683 
L 123.31188 36.545283 
L 127.390995 37.628536 
L 131.47011 38.935067 
L 135.549225 40.478469 
L 139.62834 42.261685 
L 143.707455 44.276735 
L 148.3693 46.840741 
L 153.613877 50.013743 
L 159.441184 53.827521 
L 166.433952 58.697659 
L 175.174913 65.077646 
L 187.994988 74.747312 
L 210.721486 92.222279 
L 229 106.359134 
L 229 106.359134 
" clip-path="url(#p1fb2780f88)" style="fill: none; stroke: #4c4c4c; stroke-width: 2; stroke-linecap: square"/>
   </g>
   <g id="text_10">
    <!-- PDO -->
    <g style="fill: #029e73" transform="translate(118.201828 28.609625) scale(0.08 -0.08)">
     <defs>
      <path id="Arial-BoldMT-50" d="M 466 0 
L 466 4581 
L 1950 4581 
Q 2794 4581 3050 4513 
Q 3444 4409 3709 4064 
Q 3975 3719 3975 3172 
Q 3975 2750 3822 2462 
Q 3669 2175 3433 2011 
Q 3197 1847 2953 1794 
Q 2622 1728 1994 1728 
L 1391 1728 
L 1391 0 
L 466 0 
z
M 1391 3806 
L 1391 2506 
L 1897 2506 
Q 2444 2506 2628 2578 
Q 2813 2650 2917 2803 
Q 3022 2956 3022 3159 
Q 3022 3409 2875 3571 
Q 2728 3734 2503 3775 
Q 2338 3806 1838 3806 
L 1391 3806 
z
" transform="scale(0.015625)"/>
      <path id="Arial-BoldMT-44" d="M 463 4581 
L 2153 4581 
Q 2725 4581 3025 4494 
Q 3428 4375 3715 4072 
Q 4003 3769 4153 3330 
Q 4303 2891 4303 2247 
Q 4303 1681 4163 1272 
Q 3991 772 3672 463 
Q 3431 228 3022 97 
Q 2716 0 2203 0 
L 463 0 
L 463 4581 
z
M 1388 3806 
L 1388 772 
L 2078 772 
Q 2466 772 2638 816 
Q 2863 872 3011 1006 
Q 3159 1141 3253 1448 
Q 3347 1756 3347 2288 
Q 3347 2819 3253 3103 
Q 3159 3388 2990 3547 
Q 2822 3706 2563 3763 
Q 2369 3806 1803 3806 
L 1388 3806 
z
" transform="scale(0.015625)"/>
      <path id="Arial-BoldMT-4f" d="M 278 2263 
Q 278 2963 488 3438 
Q 644 3788 914 4066 
Q 1184 4344 1506 4478 
Q 1934 4659 2494 4659 
Q 3506 4659 4114 4031 
Q 4722 3403 4722 2284 
Q 4722 1175 4119 548 
Q 3516 -78 2506 -78 
Q 1484 -78 881 545 
Q 278 1169 278 2263 
z
M 1231 2294 
Q 1231 1516 1590 1114 
Q 1950 713 2503 713 
Q 3056 713 3411 1111 
Q 3766 1509 3766 2306 
Q 3766 3094 3420 3481 
Q 3075 3869 2503 3869 
Q 1931 3869 1581 3476 
Q 1231 3084 1231 2294 
z
" transform="scale(0.015625)"/>
     </defs>
     <use xlink:href="#Arial-BoldMT-50"/>
     <use xlink:href="#Arial-BoldMT-44" x="66.699219"/>
     <use xlink:href="#Arial-BoldMT-4f" x="138.916016"/>
    </g>
   </g>
   <g id="text_11">
    <!-- $\omega_0$ -->
    <g style="fill: #333333" transform="translate(110.228068 51.175042) scale(0.08 -0.08)">
     <defs>
      <path id="DejaVuSans-3c9" d="M 1719 -91 
Q 422 -91 422 1766 
Q 422 2500 906 3500 
L 1525 3500 
Q 1078 2500 1078 1750 
Q 1078 397 1772 397 
Q 2406 397 2406 2078 
L 2938 2078 
Q 2938 397 3572 397 
Q 4266 397 4266 1750 
Q 4266 2500 3819 3500 
L 4438 3500 
Q 4922 2500 4922 1766 
Q 4922 -91 3625 -91 
Q 2775 -91 2672 844 
Q 2544 -91 1719 -91 
z
" transform="scale(0.015625)"/>
      <path id="DejaVuSans-30" d="M 2034 4250 
Q 1547 4250 1301 3770 
Q 1056 3291 1056 2328 
Q 1056 1369 1301 889 
Q 1547 409 2034 409 
Q 2525 409 2770 889 
Q 3016 1369 3016 2328 
Q 3016 3291 2770 3770 
Q 2525 4250 2034 4250 
z
M 2034 4750 
Q 2819 4750 3233 4129 
Q 3647 3509 3647 2328 
Q 3647 1150 3233 529 
Q 2819 -91 2034 -91 
Q 1250 -91 836 529 
Q 422 1150 422 2328 
Q 422 3509 836 4129 
Q 1250 4750 2034 4750 
z
" transform="scale(0.015625)"/>
     </defs>
     <use xlink:href="#DejaVuSans-3c9" transform="translate(0 0.3125)"/>
     <use xlink:href="#DejaVuSans-30" transform="translate(84.697266 -16.09375) scale(0.7)"/>
    </g>
   </g>
   <g id="text_12">
    <!-- ENSO -->
    <g style="fill: #029e73" transform="translate(169.905579 28.609625) scale(0.08 -0.08)">
     <defs>
      <path id="Arial-BoldMT-45" d="M 466 0 
L 466 4581 
L 3863 4581 
L 3863 3806 
L 1391 3806 
L 1391 2791 
L 3691 2791 
L 3691 2019 
L 1391 2019 
L 1391 772 
L 3950 772 
L 3950 0 
L 466 0 
z
" transform="scale(0.015625)"/>
      <path id="Arial-BoldMT-4e" d="M 475 0 
L 475 4581 
L 1375 4581 
L 3250 1522 
L 3250 4581 
L 4109 4581 
L 4109 0 
L 3181 0 
L 1334 2988 
L 1334 0 
L 475 0 
z
" transform="scale(0.015625)"/>
      <path id="Arial-BoldMT-53" d="M 231 1491 
L 1131 1578 
Q 1213 1125 1461 912 
Q 1709 700 2131 700 
Q 2578 700 2804 889 
Q 3031 1078 3031 1331 
Q 3031 1494 2936 1608 
Q 2841 1722 2603 1806 
Q 2441 1863 1863 2006 
Q 1119 2191 819 2459 
Q 397 2838 397 3381 
Q 397 3731 595 4036 
Q 794 4341 1167 4500 
Q 1541 4659 2069 4659 
Q 2931 4659 3367 4281 
Q 3803 3903 3825 3272 
L 2900 3231 
Q 2841 3584 2645 3739 
Q 2450 3894 2059 3894 
Q 1656 3894 1428 3728 
Q 1281 3622 1281 3444 
Q 1281 3281 1419 3166 
Q 1594 3019 2269 2859 
Q 2944 2700 3267 2529 
Q 3591 2359 3773 2064 
Q 3956 1769 3956 1334 
Q 3956 941 3737 597 
Q 3519 253 3119 86 
Q 2719 -81 2122 -81 
Q 1253 -81 787 320 
Q 322 722 231 1491 
z
" transform="scale(0.015625)"/>
     </defs>
     <use xlink:href="#Arial-BoldMT-45"/>
     <use xlink:href="#Arial-BoldMT-4e" x="66.699219"/>
     <use xlink:href="#Arial-BoldMT-53" x="138.916016"/>
     <use xlink:href="#Arial-BoldMT-4f" x="205.615234"/>
    </g>
   </g>
  </g>
  <g id="axes_2">
   <g id="patch_7">
    <path d="M 40.793562 181.1325 
L 213.200695 181.1325 
L 213.200695 113.43625 
L 40.793562 113.43625 
z
" style="fill: #ffffff"/>
   </g>
   <g id="matplotlib.axis_3">
    <g id="xtick_28">
     <g id="line2d_83">
      <path d="M 212.946344 181.1325 
L 212.946344 113.43625 
" clip-path="url(#pc16121910d)" style="fill: none; stroke-dasharray: 0.8,1.32; stroke-dashoffset: 0; stroke: #b0b0b0; stroke-width: 0.8"/>
     </g>
     <g id="line2d_84">
      <g>
       <use xlink:href="#m730808865e" x="212.946344" y="181.1325" style="fill: #666666; stroke: #666666; stroke-width: 0.8"/>
      </g>
     </g>
     <g id="text_13">
      <!-- $\mathdefault{10^{0}}$ -->
      <g style="fill: #666666" transform="translate(206.666344 192.8825) scale(0.08 -0.08)">
       <use xlink:href="#ArialMT-31" transform="translate(0 0.99375)"/>
       <use xlink:href="#ArialMT-30" transform="translate(55.615234 0.99375)"/>
       <use xlink:href="#ArialMT-30" transform="translate(112.972813 70.6875) scale(0.7)"/>
      </g>
     </g>
    </g>
    <g id="xtick_29">
     <g id="line2d_85">
      <path d="M 154.673274 181.1325 
L 154.673274 113.43625 
" clip-path="url(#pc16121910d)" style="fill: none; stroke-dasharray: 0.8,1.32; stroke-dashoffset: 0; stroke: #b0b0b0; stroke-width: 0.8"/>
     </g>
     <g id="line2d_86">
      <g>
       <use xlink:href="#m730808865e" x="154.673274" y="181.1325" style="fill: #666666; stroke: #666666; stroke-width: 0.8"/>
      </g>
     </g>
     <g id="text_14">
      <!-- $\mathdefault{10^{1}}$ -->
      <g style="fill: #666666" transform="translate(148.393274 192.8825) scale(0.08 -0.08)">
       <use xlink:href="#ArialMT-31" transform="translate(0 0.99375)"/>
       <use xlink:href="#ArialMT-30" transform="translate(55.615234 0.99375)"/>
       <use xlink:href="#ArialMT-31" transform="translate(112.972813 70.6875) scale(0.7)"/>
      </g>
     </g>
    </g>
    <g id="xtick_30">
     <g id="line2d_87">
      <path d="M 96.400203 181.1325 
L 96.400203 113.43625 
" clip-path="url(#pc16121910d)" style="fill: none; stroke-dasharray: 0.8,1.32; stroke-dashoffset: 0; stroke: #b0b0b0; stroke-width: 0.8"/>
     </g>
     <g id="line2d_88">
      <g>
       <use xlink:href="#m730808865e" x="96.400203" y="181.1325" style="fill: #666666; stroke: #666666; stroke-width: 0.8"/>
      </g>
     </g>
     <g id="text_15">
      <!-- $\mathdefault{10^{2}}$ -->
      <g style="fill: #666666" transform="translate(90.120203 192.8825) scale(0.08 -0.08)">
       <use xlink:href="#ArialMT-31" transform="translate(0 0.99375)"/>
       <use xlink:href="#ArialMT-30" transform="translate(55.615234 0.99375)"/>
       <use xlink:href="#ArialMT-32" transform="translate(112.972813 70.6875) scale(0.7)"/>
      </g>
     </g>
    </g>
    <g id="xtick_31">
     <g id="line2d_89">
      <path d="M 195.404402 181.1325 
L 195.404402 113.43625 
" clip-path="url(#pc16121910d)" style="fill: none; stroke-dasharray: 0.8,1.32; stroke-dashoffset: 0; stroke: #b0b0b0; stroke-opacity: 0.3; stroke-width: 0.8"/>
     </g>
     <g id="line2d_90">
      <g>
       <use xlink:href="#m10225b04cc" x="195.404402" y="181.1325" style="fill: #666666; stroke: #666666; stroke-width: 0.6"/>
      </g>
     </g>
    </g>
    <g id="xtick_32">
     <g id="line2d_91">
      <path d="M 185.143024 181.1325 
L 185.143024 113.43625 
" clip-path="url(#pc16121910d)" style="fill: none; stroke-dasharray: 0.8,1.32; stroke-dashoffset: 0; stroke: #b0b0b0; stroke-opacity: 0.3; stroke-width: 0.8"/>
     </g>
     <g id="line2d_92">
      <g>
       <use xlink:href="#m10225b04cc" x="185.143024" y="181.1325" style="fill: #666666; stroke: #666666; stroke-width: 0.6"/>
      </g>
     </g>
    </g>
    <g id="xtick_33">
     <g id="line2d_93">
      <path d="M 177.86246 181.1325 
L 177.86246 113.43625 
" clip-path="url(#pc16121910d)" style="fill: none; stroke-dasharray: 0.8,1.32; stroke-dashoffset: 0; stroke: #b0b0b0; stroke-opacity: 0.3; stroke-width: 0.8"/>
     </g>
     <g id="line2d_94">
      <g>
       <use xlink:href="#m10225b04cc" x="177.86246" y="181.1325" style="fill: #666666; stroke: #666666; stroke-width: 0.6"/>
      </g>
     </g>
    </g>
    <g id="xtick_34">
     <g id="line2d_95">
      <path d="M 172.215216 181.1325 
L 172.215216 113.43625 
" clip-path="url(#pc16121910d)" style="fill: none; stroke-dasharray: 0.8,1.32; stroke-dashoffset: 0; stroke: #b0b0b0; stroke-opacity: 0.3; stroke-width: 0.8"/>
     </g>
     <g id="line2d_96">
      <g>
       <use xlink:href="#m10225b04cc" x="172.215216" y="181.1325" style="fill: #666666; stroke: #666666; stroke-width: 0.6"/>
      </g>
     </g>
    </g>
    <g id="xtick_35">
     <g id="line2d_97">
      <path d="M 167.601081 181.1325 
L 167.601081 113.43625 
" clip-path="url(#pc16121910d)" style="fill: none; stroke-dasharray: 0.8,1.32; stroke-dashoffset: 0; stroke: #b0b0b0; stroke-opacity: 0.3; stroke-width: 0.8"/>
     </g>
     <g id="line2d_98">
      <g>
       <use xlink:href="#m10225b04cc" x="167.601081" y="181.1325" style="fill: #666666; stroke: #666666; stroke-width: 0.6"/>
      </g>
     </g>
    </g>
    <g id="xtick_36">
     <g id="line2d_99">
      <path d="M 163.699886 181.1325 
L 163.699886 113.43625 
" clip-path="url(#pc16121910d)" style="fill: none; stroke-dasharray: 0.8,1.32; stroke-dashoffset: 0; stroke: #b0b0b0; stroke-opacity: 0.3; stroke-width: 0.8"/>
     </g>
     <g id="line2d_100">
      <g>
       <use xlink:href="#m10225b04cc" x="163.699886" y="181.1325" style="fill: #666666; stroke: #666666; stroke-width: 0.6"/>
      </g>
     </g>
    </g>
    <g id="xtick_37">
     <g id="line2d_101">
      <path d="M 160.320518 181.1325 
L 160.320518 113.43625 
" clip-path="url(#pc16121910d)" style="fill: none; stroke-dasharray: 0.8,1.32; stroke-dashoffset: 0; stroke: #b0b0b0; stroke-opacity: 0.3; stroke-width: 0.8"/>
     </g>
     <g id="line2d_102">
      <g>
       <use xlink:href="#m10225b04cc" x="160.320518" y="181.1325" style="fill: #666666; stroke: #666666; stroke-width: 0.6"/>
      </g>
     </g>
    </g>
    <g id="xtick_38">
     <g id="line2d_103">
      <path d="M 157.339703 181.1325 
L 157.339703 113.43625 
" clip-path="url(#pc16121910d)" style="fill: none; stroke-dasharray: 0.8,1.32; stroke-dashoffset: 0; stroke: #b0b0b0; stroke-opacity: 0.3; stroke-width: 0.8"/>
     </g>
     <g id="line2d_104">
      <g>
       <use xlink:href="#m10225b04cc" x="157.339703" y="181.1325" style="fill: #666666; stroke: #666666; stroke-width: 0.6"/>
      </g>
     </g>
    </g>
    <g id="xtick_39">
     <g id="line2d_105">
      <path d="M 137.131331 181.1325 
L 137.131331 113.43625 
" clip-path="url(#pc16121910d)" style="fill: none; stroke-dasharray: 0.8,1.32; stroke-dashoffset: 0; stroke: #b0b0b0; stroke-opacity: 0.3; stroke-width: 0.8"/>
     </g>
     <g id="line2d_106">
      <g>
       <use xlink:href="#m10225b04cc" x="137.131331" y="181.1325" style="fill: #666666; stroke: #666666; stroke-width: 0.6"/>
      </g>
     </g>
    </g>
    <g id="xtick_40">
     <g id="line2d_107">
      <path d="M 126.869953 181.1325 
L 126.869953 113.43625 
" clip-path="url(#pc16121910d)" style="fill: none; stroke-dasharray: 0.8,1.32; stroke-dashoffset: 0; stroke: #b0b0b0; stroke-opacity: 0.3; stroke-width: 0.8"/>
     </g>
     <g id="line2d_108">
      <g>
       <use xlink:href="#m10225b04cc" x="126.869953" y="181.1325" style="fill: #666666; stroke: #666666; stroke-width: 0.6"/>
      </g>
     </g>
    </g>
    <g id="xtick_41">
     <g id="line2d_109">
      <path d="M 119.589389 181.1325 
L 119.589389 113.43625 
" clip-path="url(#pc16121910d)" style="fill: none; stroke-dasharray: 0.8,1.32; stroke-dashoffset: 0; stroke: #b0b0b0; stroke-opacity: 0.3; stroke-width: 0.8"/>
     </g>
     <g id="line2d_110">
      <g>
       <use xlink:href="#m10225b04cc" x="119.589389" y="181.1325" style="fill: #666666; stroke: #666666; stroke-width: 0.6"/>
      </g>
     </g>
    </g>
    <g id="xtick_42">
     <g id="line2d_111">
      <path d="M 113.942145 181.1325 
L 113.942145 113.43625 
" clip-path="url(#pc16121910d)" style="fill: none; stroke-dasharray: 0.8,1.32; stroke-dashoffset: 0; stroke: #b0b0b0; stroke-opacity: 0.3; stroke-width: 0.8"/>
     </g>
     <g id="line2d_112">
      <g>
       <use xlink:href="#m10225b04cc" x="113.942145" y="181.1325" style="fill: #666666; stroke: #666666; stroke-width: 0.6"/>
      </g>
     </g>
    </g>
    <g id="xtick_43">
     <g id="line2d_113">
      <path d="M 109.328011 181.1325 
L 109.328011 113.43625 
" clip-path="url(#pc16121910d)" style="fill: none; stroke-dasharray: 0.8,1.32; stroke-dashoffset: 0; stroke: #b0b0b0; stroke-opacity: 0.3; stroke-width: 0.8"/>
     </g>
     <g id="line2d_114">
      <g>
       <use xlink:href="#m10225b04cc" x="109.328011" y="181.1325" style="fill: #666666; stroke: #666666; stroke-width: 0.6"/>
      </g>
     </g>
    </g>
    <g id="xtick_44">
     <g id="line2d_115">
      <path d="M 105.426816 181.1325 
L 105.426816 113.43625 
" clip-path="url(#pc16121910d)" style="fill: none; stroke-dasharray: 0.8,1.32; stroke-dashoffset: 0; stroke: #b0b0b0; stroke-opacity: 0.3; stroke-width: 0.8"/>
     </g>
     <g id="line2d_116">
      <g>
       <use xlink:href="#m10225b04cc" x="105.426816" y="181.1325" style="fill: #666666; stroke: #666666; stroke-width: 0.6"/>
      </g>
     </g>
    </g>
    <g id="xtick_45">
     <g id="line2d_117">
      <path d="M 102.047447 181.1325 
L 102.047447 113.43625 
" clip-path="url(#pc16121910d)" style="fill: none; stroke-dasharray: 0.8,1.32; stroke-dashoffset: 0; stroke: #b0b0b0; stroke-opacity: 0.3; stroke-width: 0.8"/>
     </g>
     <g id="line2d_118">
      <g>
       <use xlink:href="#m10225b04cc" x="102.047447" y="181.1325" style="fill: #666666; stroke: #666666; stroke-width: 0.6"/>
      </g>
     </g>
    </g>
    <g id="xtick_46">
     <g id="line2d_119">
      <path d="M 99.066633 181.1325 
L 99.066633 113.43625 
" clip-path="url(#pc16121910d)" style="fill: none; stroke-dasharray: 0.8,1.32; stroke-dashoffset: 0; stroke: #b0b0b0; stroke-opacity: 0.3; stroke-width: 0.8"/>
     </g>
     <g id="line2d_120">
      <g>
       <use xlink:href="#m10225b04cc" x="99.066633" y="181.1325" style="fill: #666666; stroke: #666666; stroke-width: 0.6"/>
      </g>
     </g>
    </g>
    <g id="xtick_47">
     <g id="line2d_121">
      <path d="M 78.858261 181.1325 
L 78.858261 113.43625 
" clip-path="url(#pc16121910d)" style="fill: none; stroke-dasharray: 0.8,1.32; stroke-dashoffset: 0; stroke: #b0b0b0; stroke-opacity: 0.3; stroke-width: 0.8"/>
     </g>
     <g id="line2d_122">
      <g>
       <use xlink:href="#m10225b04cc" x="78.858261" y="181.1325" style="fill: #666666; stroke: #666666; stroke-width: 0.6"/>
      </g>
     </g>
    </g>
    <g id="xtick_48">
     <g id="line2d_123">
      <path d="M 68.596883 181.1325 
L 68.596883 113.43625 
" clip-path="url(#pc16121910d)" style="fill: none; stroke-dasharray: 0.8,1.32; stroke-dashoffset: 0; stroke: #b0b0b0; stroke-opacity: 0.3; stroke-width: 0.8"/>
     </g>
     <g id="line2d_124">
      <g>
       <use xlink:href="#m10225b04cc" x="68.596883" y="181.1325" style="fill: #666666; stroke: #666666; stroke-width: 0.6"/>
      </g>
     </g>
    </g>
    <g id="xtick_49">
     <g id="line2d_125">
      <path d="M 61.316319 181.1325 
L 61.316319 113.43625 
" clip-path="url(#pc16121910d)" style="fill: none; stroke-dasharray: 0.8,1.32; stroke-dashoffset: 0; stroke: #b0b0b0; stroke-opacity: 0.3; stroke-width: 0.8"/>
     </g>
     <g id="line2d_126">
      <g>
       <use xlink:href="#m10225b04cc" x="61.316319" y="181.1325" style="fill: #666666; stroke: #666666; stroke-width: 0.6"/>
      </g>
     </g>
    </g>
    <g id="xtick_50">
     <g id="line2d_127">
      <path d="M 55.669075 181.1325 
L 55.669075 113.43625 
" clip-path="url(#pc16121910d)" style="fill: none; stroke-dasharray: 0.8,1.32; stroke-dashoffset: 0; stroke: #b0b0b0; stroke-opacity: 0.3; stroke-width: 0.8"/>
     </g>
     <g id="line2d_128">
      <g>
       <use xlink:href="#m10225b04cc" x="55.669075" y="181.1325" style="fill: #666666; stroke: #666666; stroke-width: 0.6"/>
      </g>
     </g>
    </g>
    <g id="xtick_51">
     <g id="line2d_129">
      <path d="M 51.05494 181.1325 
L 51.05494 113.43625 
" clip-path="url(#pc16121910d)" style="fill: none; stroke-dasharray: 0.8,1.32; stroke-dashoffset: 0; stroke: #b0b0b0; stroke-opacity: 0.3; stroke-width: 0.8"/>
     </g>
     <g id="line2d_130">
      <g>
       <use xlink:href="#m10225b04cc" x="51.05494" y="181.1325" style="fill: #666666; stroke: #666666; stroke-width: 0.6"/>
      </g>
     </g>
    </g>
    <g id="xtick_52">
     <g id="line2d_131">
      <path d="M 47.153745 181.1325 
L 47.153745 113.43625 
" clip-path="url(#pc16121910d)" style="fill: none; stroke-dasharray: 0.8,1.32; stroke-dashoffset: 0; stroke: #b0b0b0; stroke-opacity: 0.3; stroke-width: 0.8"/>
     </g>
     <g id="line2d_132">
      <g>
       <use xlink:href="#m10225b04cc" x="47.153745" y="181.1325" style="fill: #666666; stroke: #666666; stroke-width: 0.6"/>
      </g>
     </g>
    </g>
    <g id="xtick_53">
     <g id="line2d_133">
      <path d="M 43.774377 181.1325 
L 43.774377 113.43625 
" clip-path="url(#pc16121910d)" style="fill: none; stroke-dasharray: 0.8,1.32; stroke-dashoffset: 0; stroke: #b0b0b0; stroke-opacity: 0.3; stroke-width: 0.8"/>
     </g>
     <g id="line2d_134">
      <g>
       <use xlink:href="#m10225b04cc" x="43.774377" y="181.1325" style="fill: #666666; stroke: #666666; stroke-width: 0.6"/>
      </g>
     </g>
    </g>
    <g id="xtick_54">
     <g id="line2d_135">
      <path d="M 40.793562 181.1325 
L 40.793562 113.43625 
" clip-path="url(#pc16121910d)" style="fill: none; stroke-dasharray: 0.8,1.32; stroke-dashoffset: 0; stroke: #b0b0b0; stroke-opacity: 0.3; stroke-width: 0.8"/>
     </g>
     <g id="line2d_136">
      <g>
       <use xlink:href="#m10225b04cc" x="40.793562" y="181.1325" style="fill: #666666; stroke: #666666; stroke-width: 0.6"/>
      </g>
     </g>
    </g>
    <g id="text_16">
     <!-- Period (years) -->
     <g style="fill: #666666" transform="translate(101.879628 204.29625) scale(0.08 -0.08)">
      <defs>
       <path id="ArialMT-50" d="M 494 0 
L 494 4581 
L 2222 4581 
Q 2678 4581 2919 4538 
Q 3256 4481 3484 4323 
Q 3713 4166 3852 3881 
Q 3991 3597 3991 3256 
Q 3991 2672 3619 2267 
Q 3247 1863 2275 1863 
L 1100 1863 
L 1100 0 
L 494 0 
z
M 1100 2403 
L 2284 2403 
Q 2872 2403 3119 2622 
Q 3366 2841 3366 3238 
Q 3366 3525 3220 3729 
Q 3075 3934 2838 4000 
Q 2684 4041 2272 4041 
L 1100 4041 
L 1100 2403 
z
" transform="scale(0.015625)"/>
       <path id="ArialMT-72" d="M 416 0 
L 416 3319 
L 922 3319 
L 922 2816 
Q 1116 3169 1280 3281 
Q 1444 3394 1641 3394 
Q 1925 3394 2219 3213 
L 2025 2691 
Q 1819 2813 1613 2813 
Q 1428 2813 1281 2702 
Q 1134 2591 1072 2394 
Q 978 2094 978 1738 
L 978 0 
L 416 0 
z
" transform="scale(0.015625)"/>
       <path id="ArialMT-6f" d="M 213 1659 
Q 213 2581 725 3025 
Q 1153 3394 1769 3394 
Q 2453 3394 2887 2945 
Q 3322 2497 3322 1706 
Q 3322 1066 3130 698 
Q 2938 331 2570 128 
Q 2203 -75 1769 -75 
Q 1072 -75 642 372 
Q 213 819 213 1659 
z
M 791 1659 
Q 791 1022 1069 705 
Q 1347 388 1769 388 
Q 2188 388 2466 706 
Q 2744 1025 2744 1678 
Q 2744 2294 2464 2611 
Q 2184 2928 1769 2928 
Q 1347 2928 1069 2612 
Q 791 2297 791 1659 
z
" transform="scale(0.015625)"/>
       <path id="ArialMT-79" d="M 397 -1278 
L 334 -750 
Q 519 -800 656 -800 
Q 844 -800 956 -737 
Q 1069 -675 1141 -563 
Q 1194 -478 1313 -144 
Q 1328 -97 1363 -6 
L 103 3319 
L 709 3319 
L 1400 1397 
Q 1534 1031 1641 628 
Q 1738 1016 1872 1384 
L 2581 3319 
L 3144 3319 
L 1881 -56 
Q 1678 -603 1566 -809 
Q 1416 -1088 1222 -1217 
Q 1028 -1347 759 -1347 
Q 597 -1347 397 -1278 
z
" transform="scale(0.015625)"/>
       <path id="ArialMT-73" d="M 197 991 
L 753 1078 
Q 800 744 1014 566 
Q 1228 388 1613 388 
Q 2000 388 2187 545 
Q 2375 703 2375 916 
Q 2375 1106 2209 1216 
Q 2094 1291 1634 1406 
Q 1016 1563 777 1677 
Q 538 1791 414 1992 
Q 291 2194 291 2438 
Q 291 2659 392 2848 
Q 494 3038 669 3163 
Q 800 3259 1026 3326 
Q 1253 3394 1513 3394 
Q 1903 3394 2198 3281 
Q 2494 3169 2634 2976 
Q 2775 2784 2828 2463 
L 2278 2388 
Q 2241 2644 2061 2787 
Q 1881 2931 1553 2931 
Q 1166 2931 1000 2803 
Q 834 2675 834 2503 
Q 834 2394 903 2306 
Q 972 2216 1119 2156 
Q 1203 2125 1616 2013 
Q 2213 1853 2448 1751 
Q 2684 1650 2818 1456 
Q 2953 1263 2953 975 
Q 2953 694 2789 445 
Q 2625 197 2315 61 
Q 2006 -75 1616 -75 
Q 969 -75 630 194 
Q 291 463 197 991 
z
" transform="scale(0.015625)"/>
      </defs>
      <use xlink:href="#ArialMT-50"/>
      <use xlink:href="#ArialMT-65" x="66.699219"/>
      <use xlink:href="#ArialMT-72" x="122.314453"/>
      <use xlink:href="#ArialMT-69" x="155.615234"/>
      <use xlink:href="#ArialMT-6f" x="177.832031"/>
      <use xlink:href="#ArialMT-64" x="233.447266"/>
      <use xlink:href="#ArialMT-20" x="289.0625"/>
      <use xlink:href="#ArialMT-28" x="316.845703"/>
      <use xlink:href="#ArialMT-79" x="350.146484"/>
      <use xlink:href="#ArialMT-65" x="400.146484"/>
      <use xlink:href="#ArialMT-61" x="455.761719"/>
      <use xlink:href="#ArialMT-72" x="511.376953"/>
      <use xlink:href="#ArialMT-73" x="544.677734"/>
      <use xlink:href="#ArialMT-29" x="594.677734"/>
     </g>
    </g>
   </g>
   <g id="matplotlib.axis_4">
    <g id="ytick_8">
     <g id="line2d_137">
      <path d="M 40.793562 113.43625 
L 213.200695 113.43625 
" clip-path="url(#pc16121910d)" style="fill: none; stroke-dasharray: 0.8,1.32; stroke-dashoffset: 0; stroke: #b0b0b0; stroke-width: 0.8"/>
     </g>
     <g id="line2d_138">
      <g>
       <use xlink:href="#mc3ff78991f" x="40.793562" y="113.43625" style="fill: #666666; stroke: #666666; stroke-width: 0.8"/>
      </g>
     </g>
     <g id="text_17">
      <!-- 0 -->
      <g style="fill: #666666" transform="translate(32.844812 116.299375) scale(0.08 -0.08)">
       <use xlink:href="#ArialMT-30"/>
      </g>
     </g>
    </g>
    <g id="ytick_9">
     <g id="line2d_139">
      <path d="M 40.793562 147.284375 
L 213.200695 147.284375 
" clip-path="url(#pc16121910d)" style="fill: none; stroke-dasharray: 0.8,1.32; stroke-dashoffset: 0; stroke: #b0b0b0; stroke-width: 0.8"/>
     </g>
     <g id="line2d_140">
      <g>
       <use xlink:href="#mc3ff78991f" x="40.793562" y="147.284375" style="fill: #666666; stroke: #666666; stroke-width: 0.8"/>
      </g>
     </g>
     <g id="text_18">
      <!-- $-\pi$/4 -->
      <g style="fill: #666666" transform="translate(20.413562 150.1475) scale(0.08 -0.08)">
       <defs>
        <path id="ArialMT-3c0" d="M 1578 2863 
L 1578 0 
L 1016 0 
L 1016 2863 
L 141 2863 
L 141 3319 
L 4278 3319 
L 4278 2863 
L 3522 2863 
L 3522 0 
L 2959 0 
L 2959 2863 
L 1578 2863 
z
" transform="scale(0.015625)"/>
        <path id="ArialMT-2f" d="M 0 -78 
L 1328 4659 
L 1778 4659 
L 453 -78 
L 0 -78 
z
" transform="scale(0.015625)"/>
        <path id="ArialMT-34" d="M 2069 0 
L 2069 1097 
L 81 1097 
L 81 1613 
L 2172 4581 
L 2631 4581 
L 2631 1613 
L 3250 1613 
L 3250 1097 
L 2631 1097 
L 2631 0 
L 2069 0 
z
M 2069 1613 
L 2069 3678 
L 634 1613 
L 2069 1613 
z
" transform="scale(0.015625)"/>
       </defs>
       <use xlink:href="#ArialMT-2212" transform="translate(0 0.203125)"/>
       <use xlink:href="#ArialMT-3c0" transform="translate(58.398438 0.203125)"/>
       <use xlink:href="#ArialMT-2f" transform="translate(127.392578 0.203125)"/>
       <use xlink:href="#ArialMT-34" transform="translate(155.175781 0.203125)"/>
      </g>
     </g>
    </g>
    <g id="ytick_10">
     <g id="line2d_141">
      <path d="M 40.793562 181.1325 
L 213.200695 181.1325 
" clip-path="url(#pc16121910d)" style="fill: none; stroke-dasharray: 0.8,1.32; stroke-dashoffset: 0; stroke: #b0b0b0; stroke-width: 0.8"/>
     </g>
     <g id="line2d_142">
      <g>
       <use xlink:href="#mc3ff78991f" x="40.793562" y="181.1325" style="fill: #666666; stroke: #666666; stroke-width: 0.8"/>
      </g>
     </g>
     <g id="text_19">
      <!-- $-\pi$/2 -->
      <g style="fill: #666666" transform="translate(20.413562 183.995625) scale(0.08 -0.08)">
       <use xlink:href="#ArialMT-2212" transform="translate(0 0.203125)"/>
       <use xlink:href="#ArialMT-3c0" transform="translate(58.398438 0.203125)"/>
       <use xlink:href="#ArialMT-2f" transform="translate(127.392578 0.203125)"/>
       <use xlink:href="#ArialMT-32" transform="translate(155.175781 0.203125)"/>
      </g>
     </g>
    </g>
    <g id="ytick_11">
     <g id="line2d_143">
      <path d="M 40.793562 164.208438 
L 213.200695 164.208438 
" clip-path="url(#pc16121910d)" style="fill: none; stroke-dasharray: 0.8,1.32; stroke-dashoffset: 0; stroke: #b0b0b0; stroke-opacity: 0.3; stroke-width: 0.8"/>
     </g>
     <g id="line2d_144">
      <g>
       <use xlink:href="#m64ef4db246" x="40.793562" y="164.208438" style="fill: #666666; stroke: #666666; stroke-width: 0.6"/>
      </g>
     </g>
    </g>
    <g id="ytick_12">
     <g id="line2d_145">
      <path d="M 40.793562 130.360312 
L 213.200695 130.360312 
" clip-path="url(#pc16121910d)" style="fill: none; stroke-dasharray: 0.8,1.32; stroke-dashoffset: 0; stroke: #b0b0b0; stroke-opacity: 0.3; stroke-width: 0.8"/>
     </g>
     <g id="line2d_146">
      <g>
       <use xlink:href="#m64ef4db246" x="40.793562" y="130.360312" style="fill: #666666; stroke: #666666; stroke-width: 0.6"/>
      </g>
     </g>
    </g>
    <g id="text_20">
     <!-- Phase (rad) -->
     <g style="fill: #666666" transform="translate(14.729812 168.18125) rotate(-90) scale(0.08 -0.08)">
      <defs>
       <path id="ArialMT-68" d="M 422 0 
L 422 4581 
L 984 4581 
L 984 2938 
Q 1378 3394 1978 3394 
Q 2347 3394 2619 3248 
Q 2891 3103 3008 2847 
Q 3125 2591 3125 2103 
L 3125 0 
L 2563 0 
L 2563 2103 
Q 2563 2525 2380 2717 
Q 2197 2909 1863 2909 
Q 1613 2909 1392 2779 
Q 1172 2650 1078 2428 
Q 984 2206 984 1816 
L 984 0 
L 422 0 
z
" transform="scale(0.015625)"/>
      </defs>
      <use xlink:href="#ArialMT-50"/>
      <use xlink:href="#ArialMT-68" x="66.699219"/>
      <use xlink:href="#ArialMT-61" x="122.314453"/>
      <use xlink:href="#ArialMT-73" x="177.929688"/>
      <use xlink:href="#ArialMT-65" x="227.929688"/>
      <use xlink:href="#ArialMT-20" x="283.544922"/>
      <use xlink:href="#ArialMT-28" x="311.328125"/>
      <use xlink:href="#ArialMT-72" x="344.628906"/>
      <use xlink:href="#ArialMT-61" x="377.929688"/>
      <use xlink:href="#ArialMT-64" x="433.544922"/>
      <use xlink:href="#ArialMT-29" x="489.160156"/>
     </g>
    </g>
   </g>
   <g id="patch_8">
    <path d="M 40.793562 181.1325 
L 40.793562 113.43625 
" style="fill: none; stroke: #666666; stroke-linejoin: miter; stroke-linecap: square"/>
   </g>
   <g id="patch_9">
    <path d="M 40.793562 181.1325 
L 213.200695 181.1325 
" style="fill: none; stroke: #666666; stroke-linejoin: miter; stroke-linecap: square"/>
   </g>
   <g id="text_21">
    <!-- b -->
    <g style="fill: #666666" transform="translate(40.793562 107.43625) scale(0.1 -0.1)">
     <defs>
      <path id="Arial-BoldMT-62" d="M 422 0 
L 422 4581 
L 1300 4581 
L 1300 2931 
Q 1706 3394 2263 3394 
Q 2869 3394 3266 2955 
Q 3663 2516 3663 1694 
Q 3663 844 3258 384 
Q 2853 -75 2275 -75 
Q 1991 -75 1714 67 
Q 1438 209 1238 488 
L 1238 0 
L 422 0 
z
M 1294 1731 
Q 1294 1216 1456 969 
Q 1684 619 2063 619 
Q 2353 619 2558 867 
Q 2763 1116 2763 1650 
Q 2763 2219 2556 2470 
Q 2350 2722 2028 2722 
Q 1713 2722 1503 2476 
Q 1294 2231 1294 1731 
z
" transform="scale(0.015625)"/>
     </defs>
     <use xlink:href="#Arial-BoldMT-62"/>
    </g>
   </g>
   <g id="patch_10">
    <path d="M 195.404402 181.1325 
L 195.404402 113.43625 
L 163.699886 113.43625 
L 163.699886 181.1325 
z
" clip-path="url(#pc16121910d)" style="fill: #029e73; opacity: 0.15"/>
   </g>
   <g id="patch_11">
    <path d="M 137.131331 181.1325 
L 137.131331 113.43625 
L 113.942145 113.43625 
L 113.942145 181.1325 
z
" clip-path="url(#pc16121910d)" style="fill: #029e73; opacity: 0.15"/>
   </g>
   <g id="line2d_147">
    <path d="M -1 116.924433 
L 6.183008 117.925686 
L 15.5067 119.460987 
L 27.161314 121.375188 
L 32.40589 122.004717 
L 37.067736 122.34007 
L 41.729581 122.433062 
L 46.391427 122.296157 
L 52.218734 121.882648 
L 69.700655 120.444255 
L 74.945232 120.29786 
L 80.189808 120.376403 
L 84.851654 120.66037 
L 89.513499 121.166785 
L 94.175345 121.916898 
L 98.25446 122.791948 
L 102.333575 123.88997 
L 106.41269 125.230411 
L 110.491805 126.832931 
L 113.988189 128.428731 
L 117.484573 130.23875 
L 120.980957 132.266986 
L 125.060072 134.905001 
L 129.139187 137.816156 
L 133.801033 141.42538 
L 140.211071 146.707992 
L 150.117493 154.895282 
L 154.779338 158.467425 
L 158.858453 161.346248 
L 162.937568 163.961356 
L 167.016683 166.301169 
L 171.095798 168.369399 
L 175.174913 170.180289 
L 179.254028 171.754346 
L 183.915873 173.293396 
L 188.577719 174.589615 
L 193.822295 175.800095 
L 199.649603 176.888678 
L 206.05964 177.833926 
L 213.052409 178.628158 
L 221.210639 179.317274 
L 229 179.797726 
L 229 179.797726 
" clip-path="url(#pc16121910d)" style="fill: none; stroke: #b2b2b2; stroke-width: 0.75; stroke-linecap: square"/>
   </g>
   <g id="line2d_148">
    <path d="M -1 116.599213 
L 5.600278 117.501694 
L 12.010315 118.592827 
L 18.420353 119.914616 
L 25.413122 121.604996 
L 43.477774 126.184037 
L 47.556888 126.909865 
L 51.636003 127.398991 
L 55.132388 127.611644 
L 59.211503 127.62697 
L 63.873348 127.39052 
L 70.866117 126.751196 
L 78.441616 126.093085 
L 83.103461 125.896323 
L 87.182576 125.9299 
L 91.261691 126.1958 
L 94.758076 126.63145 
L 98.25446 127.275322 
L 101.750844 128.140673 
L 105.247228 129.238762 
L 108.743613 130.578456 
L 112.239997 132.165218 
L 115.736381 133.999537 
L 119.232765 136.074943 
L 123.31188 138.779713 
L 127.390995 141.748034 
L 132.635571 145.846938 
L 147.203839 157.437267 
L 151.865685 160.767568 
L 155.9448 163.419663 
L 160.023915 165.806475 
L 164.103029 167.925898 
L 168.182144 169.788119 
L 172.261259 171.411089 
L 176.340374 172.816834 
L 181.00222 174.187482 
L 185.664066 175.339373 
L 190.908642 176.413355 
L 196.735949 177.378023 
L 203.145987 178.214957 
L 210.721486 178.9681 
L 219.462446 179.599534 
L 229 180.080555 
L 229 180.080555 
" clip-path="url(#pc16121910d)" style="fill: none; stroke: #b2b2b2; stroke-width: 0.75; stroke-linecap: square"/>
   </g>
   <g id="line2d_149">
    <path d="M -1 117.442403 
L 5.017547 118.465878 
L 10.844854 119.670799 
L 16.672161 121.099751 
L 23.082199 122.91377 
L 41.729581 128.445363 
L 45.808696 129.289724 
L 49.305081 129.794122 
L 52.801465 130.07465 
L 56.297849 130.132353 
L 60.376964 129.9489 
L 65.03881 129.492039 
L 80.772539 127.723034 
L 84.851654 127.594082 
L 88.348038 127.677529 
L 91.844422 127.963842 
L 95.340806 128.470803 
L 98.837191 129.212753 
L 102.333575 130.201123 
L 105.829959 131.44431 
L 109.326343 132.946859 
L 112.822727 134.708031 
L 116.319112 136.719929 
L 120.398227 139.360712 
L 124.477342 142.273542 
L 129.721918 146.309848 
L 144.872916 158.179445 
L 149.534762 161.431108 
L 153.613877 164.01271 
L 157.692992 166.330631 
L 161.772107 168.384986 
L 165.851222 170.187356 
L 169.930337 171.75637 
L 174.592182 173.2923 
L 179.254028 174.587062 
L 184.498604 175.796984 
L 190.325911 176.885608 
L 196.735949 177.831223 
L 203.728717 178.625951 
L 211.886947 179.315602 
L 221.210639 179.875089 
L 229 180.208024 
L 229 180.208024 
" clip-path="url(#pc16121910d)" style="fill: none; stroke: #b2b2b2; stroke-width: 0.75; stroke-linecap: square"/>
   </g>
   <g id="line2d_150">
    <path d="M -1 117.666422 
L 5.017547 118.745086 
L 10.844854 120.013196 
L 16.672161 121.514013 
L 23.082199 123.41346 
L 41.729581 129.162299 
L 45.808696 130.043153 
L 49.305081 130.581397 
L 52.801465 130.903549 
L 56.297849 131.016537 
L 60.376964 130.922637 
L 65.62154 130.563088 
L 75.527962 129.82579 
L 79.607077 129.743523 
L 83.686192 129.896034 
L 87.182576 130.252557 
L 90.678961 130.843425 
L 94.175345 131.68675 
L 97.671729 132.794976 
L 101.168113 134.174665 
L 104.664498 135.825603 
L 108.160882 137.739348 
L 111.657266 139.897602 
L 115.736381 142.6847 
L 120.398227 146.142109 
L 138.462878 159.891342 
L 142.541993 162.597016 
L 146.621108 165.05306 
L 150.700223 167.248775 
L 154.779338 169.188155 
L 158.858453 170.885115 
L 162.937568 172.359355 
L 167.599414 173.800171 
L 172.261259 175.013224 
L 177.505836 176.145735 
L 183.333143 177.163992 
L 189.743181 178.048044 
L 196.735949 178.790783 
L 204.894179 179.435179 
L 214.800601 179.984606 
L 227.037946 180.424597 
L 229 180.477356 
L 229 180.477356 
" clip-path="url(#pc16121910d)" style="fill: none; stroke: #b2b2b2; stroke-width: 0.75; stroke-linecap: square"/>
   </g>
   <g id="line2d_151">
    <path d="M -1 115.11473 
L 7.34847 115.762667 
L 14.923969 116.556664 
L 21.916737 117.511966 
L 28.326775 118.613356 
L 34.736813 119.955809 
L 41.146851 121.537704 
L 49.305081 123.807683 
L 59.211503 126.548686 
L 64.456079 127.753677 
L 69.117925 128.585668 
L 73.77977 129.18277 
L 79.607077 129.679234 
L 90.09623 130.522093 
L 94.175345 131.085081 
L 97.671729 131.760372 
L 101.168113 132.650571 
L 104.664498 133.781232 
L 108.160882 135.168395 
L 111.657266 136.817985 
L 115.15365 138.724903 
L 118.650035 140.872026 
L 122.729149 143.640224 
L 127.973726 147.508007 
L 143.707455 159.374127 
L 148.3693 162.481198 
L 152.448415 164.940658 
L 156.52753 167.143707 
L 160.606645 169.09249 
L 164.68576 170.799627 
L 168.764875 172.283982 
L 173.426721 173.735663 
L 178.088566 174.958499 
L 183.333143 176.100579 
L 189.16045 177.127733 
L 195.570488 178.01969 
L 202.563256 178.769172 
L 210.721486 179.419476 
L 220.627908 179.97397 
L 229 180.300118 
L 229 180.300118 
" clip-path="url(#pc16121910d)" style="fill: none; stroke: #b2b2b2; stroke-width: 0.75; stroke-linecap: square"/>
   </g>
   <g id="line2d_152">
    <path d="M -1 116.098584 
L 6.183008 116.93866 
L 13.175777 117.980269 
L 19.585815 119.150606 
L 26.578583 120.653773 
L 46.391427 125.129808 
L 51.053273 125.819277 
L 55.132388 126.203282 
L 59.211503 126.382611 
L 64.456079 126.368053 
L 81.355269 126.064025 
L 85.434384 126.309341 
L 89.513499 126.78556 
L 93.009883 127.40416 
L 96.506268 128.235941 
L 100.002652 129.295462 
L 103.499036 130.593975 
L 106.99542 132.138737 
L 110.491805 133.931693 
L 113.988189 135.967695 
L 118.067304 138.630676 
L 122.146419 141.563613 
L 127.390995 145.629228 
L 143.124724 158.071146 
L 147.78657 161.342964 
L 151.865685 163.938868 
L 155.9448 166.268587 
L 160.023915 168.332715 
L 164.103029 170.143218 
L 168.182144 171.719029 
L 172.84399 173.261399 
L 177.505836 174.561453 
L 182.750412 175.776227 
L 188.577719 176.869154 
L 194.987757 177.818469 
L 201.980525 178.616285 
L 210.138755 179.308604 
L 219.462446 179.870249 
L 229 180.26639 
L 229 180.26639 
" clip-path="url(#pc16121910d)" style="fill: none; stroke: #b2b2b2; stroke-width: 0.75; stroke-linecap: square"/>
   </g>
   <g id="line2d_153">
    <path d="M -1 117.62012 
L 7.34847 118.937406 
L 23.082199 121.499944 
L 28.326775 122.079527 
L 32.988621 122.367044 
L 37.650466 122.422527 
L 42.895043 122.241153 
L 50.470542 121.705248 
L 60.376964 121.021693 
L 66.204271 120.854066 
L 71.448847 120.937181 
L 76.110693 121.231912 
L 80.772539 121.760123 
L 84.851654 122.432805 
L 88.930769 123.31992 
L 93.009883 124.439962 
L 97.088998 125.812309 
L 100.585383 127.203888 
L 104.081767 128.805439 
L 107.578151 130.624694 
L 111.074535 132.664615 
L 115.15365 135.317594 
L 119.232765 138.24275 
L 123.894611 141.863294 
L 130.887379 147.635165 
L 139.62834 154.83404 
L 144.290186 158.407006 
L 148.3693 161.288839 
L 152.448415 163.90829 
L 156.52753 166.25314 
L 160.606645 168.326616 
L 164.68576 170.142632 
L 168.764875 171.721495 
L 173.426721 173.265516 
L 178.088566 174.566097 
L 183.333143 175.780772 
L 189.16045 176.873209 
L 195.570488 177.821854 
L 202.563256 178.61897 
L 210.721486 179.310603 
L 220.045177 179.871654 
L 229 180.247215 
L 229 180.247215 
" clip-path="url(#pc16121910d)" style="fill: none; stroke: #b2b2b2; stroke-width: 0.75; stroke-linecap: square"/>
   </g>
   <g id="line2d_154">
    <path d="M -1 116.196298 
L 5.600278 117.001451 
L 12.010315 117.993997 
L 17.837623 119.110552 
L 23.66493 120.457349 
L 29.492237 122.043932 
L 35.902274 124.037427 
L 52.801465 129.469178 
L 56.88058 130.444495 
L 60.376964 131.071733 
L 63.873348 131.486748 
L 67.369732 131.692925 
L 71.448847 131.704281 
L 76.693424 131.471188 
L 86.599846 130.957655 
L 90.678961 130.973838 
L 94.175345 131.181202 
L 97.671729 131.604556 
L 101.168113 132.270629 
L 104.664498 133.19853 
L 108.160882 134.400051 
L 111.657266 135.879325 
L 115.15365 137.631865 
L 118.650035 139.64323 
L 122.729149 142.282079 
L 127.390995 145.607047 
L 133.801033 150.497948 
L 142.541993 157.157715 
L 147.203839 160.45137 
L 151.282954 163.098763 
L 155.362069 165.497557 
L 159.441184 167.638891 
L 163.520299 169.527987 
L 167.599414 171.179418 
L 171.678529 172.613089 
L 176.340374 174.013468 
L 181.00222 175.191961 
L 186.246796 176.291853 
L 192.074103 177.280539 
L 198.484141 178.13877 
L 206.05964 178.911359 
L 214.800601 179.55925 
L 225.289754 180.092764 
L 229 180.234441 
L 229 180.234441 
" clip-path="url(#pc16121910d)" style="fill: none; stroke: #b2b2b2; stroke-width: 0.75; stroke-linecap: square"/>
   </g>
   <g id="line2d_155">
    <path d="M -1 116.039806 
L 6.183008 116.878514 
L 12.593046 117.840583 
L 18.420353 118.926259 
L 24.24766 120.241998 
L 30.074967 121.803243 
L 35.902274 123.597523 
L 44.060504 126.372689 
L 52.218734 129.088483 
L 56.88058 130.392931 
L 60.959695 131.28229 
L 64.456079 131.821565 
L 67.952463 132.147914 
L 72.031578 132.282663 
L 76.693424 132.19032 
L 90.678961 131.724152 
L 94.758076 131.926384 
L 98.25446 132.325961 
L 101.750844 132.966765 
L 105.247228 133.870428 
L 108.160882 134.8341 
L 111.657266 136.247934 
L 115.15365 137.939268 
L 118.650035 139.894572 
L 122.146419 142.08881 
L 126.225534 144.900781 
L 131.47011 148.793025 
L 144.290186 158.445253 
L 148.952031 161.625271 
L 153.031146 164.161462 
L 157.110261 166.445909 
L 161.189376 168.475527 
L 165.268491 170.259454 
L 169.347606 171.814532 
L 174.009451 173.338442 
L 178.671297 174.624119 
L 183.915873 175.826271 
L 189.743181 176.908388 
L 196.153218 177.848649 
L 203.145987 178.639043 
L 211.304217 179.325027 
L 220.627908 179.881586 
L 229 180.23372 
L 229 180.23372 
" clip-path="url(#pc16121910d)" style="fill: none; stroke: #b2b2b2; stroke-width: 0.75; stroke-linecap: square"/>
   </g>
   <g id="line2d_156">
    <path d="M -1 116.484228 
L 5.600278 117.352156 
L 12.010315 118.399648 
L 18.420353 119.664897 
L 25.413122 121.274766 
L 42.312312 125.316651 
L 46.974158 126.098205 
L 51.053273 126.538694 
L 55.132388 126.727832 
L 59.211503 126.67685 
L 63.873348 126.381354 
L 71.448847 125.62065 
L 79.024347 124.932953 
L 83.686192 124.720982 
L 87.765307 124.732307 
L 91.844422 124.961535 
L 95.923537 125.43448 
L 99.419921 126.050483 
L 102.916305 126.873999 
L 106.41269 127.916347 
L 109.909074 129.187478 
L 113.405458 130.695092 
L 116.901842 132.443205 
L 120.398227 134.430259 
L 123.894611 136.646974 
L 127.973726 139.49741 
L 132.635571 143.041279 
L 139.62834 148.697895 
L 148.3693 155.7325 
L 153.031146 159.209759 
L 157.110261 162.006975 
L 161.189376 164.543952 
L 165.268491 166.810784 
L 169.347606 168.812275 
L 173.426721 170.563182 
L 177.505836 172.084058 
L 182.167681 173.570295 
L 186.829527 174.821494 
L 192.074103 175.989561 
L 197.90141 177.039747 
L 204.311448 177.951496 
L 211.304217 178.717494 
L 219.462446 179.382062 
L 229 179.93124 
L 229 179.93124 
" clip-path="url(#pc16121910d)" style="fill: none; stroke: #b2b2b2; stroke-width: 0.75; stroke-linecap: square"/>
   </g>
   <g id="line2d_157">
    <path d="M -1 119.262855 
L 5.600278 120.70601 
L 25.413122 125.241278 
L 29.492237 125.827328 
L 32.988621 126.131044 
L 36.485005 126.233435 
L 39.981389 126.136184 
L 44.060504 125.79774 
L 48.72235 125.185087 
L 57.46331 123.750606 
L 64.456079 122.700337 
L 69.700655 122.126351 
L 74.362501 121.824318 
L 79.024347 121.745841 
L 83.686192 121.910457 
L 87.765307 122.267775 
L 91.844422 122.837269 
L 95.923537 123.633148 
L 100.002652 124.671489 
L 104.081767 125.969766 
L 107.578151 127.302849 
L 111.074535 128.849873 
L 114.57092 130.618271 
L 118.067304 132.611014 
L 122.146419 135.214052 
L 126.225534 138.095714 
L 130.887379 141.676116 
L 137.297417 146.924379 
L 147.203839 155.064199 
L 151.865685 158.615491 
L 155.9448 161.477044 
L 160.023915 164.076028 
L 164.103029 166.401049 
L 168.182144 168.455925 
L 172.261259 170.254923 
L 176.340374 171.818504 
L 181.00222 173.347203 
L 185.664066 174.63463 
L 190.908642 175.836849 
L 196.735949 176.917967 
L 203.145987 177.856712 
L 210.138755 178.645468 
L 218.296985 179.329826 
L 227.620676 179.884964 
L 229 179.95103 
L 229 179.95103 
" clip-path="url(#pc16121910d)" style="fill: none; stroke: #b2b2b2; stroke-width: 0.75; stroke-linecap: square"/>
   </g>
   <g id="line2d_158">
    <path d="M -1 116.588368 
L 5.600278 117.481431 
L 12.010315 118.554544 
L 18.420353 119.841717 
L 25.995852 121.602447 
L 39.398659 124.792694 
L 44.060504 125.645398 
L 48.139619 126.171524 
L 52.218734 126.458202 
L 56.297849 126.504869 
L 60.959695 126.307205 
L 67.369732 125.763324 
L 76.693424 124.958238 
L 81.355269 124.764937 
L 85.434384 124.787443 
L 89.513499 125.024992 
L 93.592614 125.504828 
L 97.088998 126.126376 
L 100.585383 126.955564 
L 104.081767 128.003973 
L 107.578151 129.281673 
L 111.074535 130.796349 
L 114.57092 132.551871 
L 118.067304 134.546407 
L 122.146419 137.162016 
L 126.225534 140.056882 
L 130.887379 143.63809 
L 138.462878 149.792029 
L 146.038378 155.860377 
L 150.700223 159.327354 
L 154.779338 162.1141 
L 158.858453 164.640039 
L 162.937568 166.895896 
L 167.016683 168.886921 
L 171.095798 170.62815 
L 175.174913 172.140274 
L 179.836759 173.617693 
L 184.498604 174.861296 
L 189.743181 176.022149 
L 195.570488 177.06577 
L 201.980525 177.97177 
L 208.973294 178.732909 
L 217.131524 179.393246 
L 227.037946 179.956253 
L 229 180.043892 
L 229 180.043892 
" clip-path="url(#pc16121910d)" style="fill: none; stroke: #b2b2b2; stroke-width: 0.75; stroke-linecap: square"/>
   </g>
   <g id="line2d_159">
    <path d="M -1 116.836455 
L 5.600278 117.769817 
L 12.593046 118.974265 
L 20.168545 120.513387 
L 43.477774 125.470909 
L 48.72235 126.203009 
L 53.384196 126.627384 
L 58.046041 126.833368 
L 63.290618 126.83797 
L 70.866117 126.587084 
L 79.607077 126.335885 
L 84.268923 126.404725 
L 88.348038 126.659459 
L 92.427153 127.140225 
L 95.923537 127.759075 
L 99.419921 128.58824 
L 102.916305 129.642504 
L 106.41269 130.932848 
L 109.909074 132.465711 
L 113.405458 134.241782 
L 116.901842 136.254486 
L 120.980957 138.880648 
L 125.060072 141.765923 
L 130.304649 145.757345 
L 146.621108 158.411902 
L 151.282954 161.616294 
L 155.362069 164.162344 
L 159.441184 166.450955 
L 163.520299 168.48186 
L 167.599414 170.265752 
L 171.678529 171.820265 
L 176.340374 173.343351 
L 181.00222 174.628231 
L 186.246796 175.829605 
L 192.074103 176.91102 
L 198.484141 177.850679 
L 205.47691 178.640576 
L 213.635139 179.326133 
L 222.958831 179.88235 
L 229 180.147642 
L 229 180.147642 
" clip-path="url(#pc16121910d)" style="fill: none; stroke: #4c4c4c; stroke-width: 2; stroke-linecap: square"/>
   </g>
   <g id="line2d_160">
    <path d="M 131.532899 147.284375 
L 106.191874 147.284375 
" clip-path="url(#pc16121910d)" style="fill: none; stroke: #333333; stroke-linecap: square"/>
   </g>
   <g id="PathCollection_2">
    <g clip-path="url(#pc16121910d)">
     <use xlink:href="#m28426f281d" x="118.309213" y="147.284375" style="fill: #333333; stroke: #333333"/>
    </g>
   </g>
  </g>
 </g>
 <defs>
  <clipPath id="p1fb2780f88">
   <rect x="40.793562" y="21.84" width="172.407133" height="67.69625"/>
  </clipPath>
  <clipPath id="pc16121910d">
   <rect x="40.793562" y="113.43625" width="172.407133" height="67.69625"/>
  </clipPath>
 </defs>
</svg>
