<?xml version="1.0" encoding="utf-8" standalone="no"?>
<!DOCTYPE svg PUBLIC "-//W3C//DTD SVG 1.1//EN"
  "http://www.w3.org/Graphics/SVG/1.1/DTD/svg11.dtd">
<svg xmlns:xlink="http://www.w3.org/1999/xlink" width="324pt" height="230.4pt" viewBox="0 0 324 230.4" xmlns="http://www.w3.org/2000/svg" version="1.1">
 <metadata>
  <rdf:RDF xmlns:dc="http://purl.org/dc/elements/1.1/" xmlns:cc="http://creativecommons.org/ns#" xmlns:rdf="http://www.w3.org/1999/02/22-rdf-syntax-ns#">
   <cc:Work>
    <dc:type rdf:resource="http://purl.org/dc/dcmitype/StillImage"/>
    <dc:date>2024-08-14T18:56:41.425695</dc:date>
    <dc:format>image/svg+xml</dc:format>
    <dc:creator>
     <cc:Agent>
      <dc:title>Matplotlib v3.7.1, https://matplotlib.org/</dc:title>
     </cc:Agent>
    </dc:creator>
   </cc:Work>
  </rdf:RDF>
 </metadata>
 <defs>
  <style type="text/css">*{stroke-linejoin: round; stroke-linecap: butt}</style>
 </defs>
 <g id="figure_1">
  <g id="patch_1">
   <path d="M 0 230.4 
L 324 230.4 
L 324 0 
L 0 0 
z
" style="fill: #ffffff"/>
  </g>
  <g id="axes_1">
   <g id="patch_2">
    <path d="M 52.14 193.416 
L 230.3 193.416 
L 230.3 11.52 
L 52.14 11.52 
z
" style="fill: #ffffff"/>
   </g>
   <g id="PathCollection_1">
    <path d="M 141.631829 83.938561 
L 143.935693 77.938561 
L 144.790965 77.938561 
L 147.24676 83.938561 
L 146.343028 83.938561 
L 145.642307 82.120617 
L 143.134121 82.120617 
L 142.474003 83.938561 
L 141.631829 83.938561 
z
M 143.363329 81.474907 
L 145.397382 81.474907 
L 144.771318 79.812824 
Q 144.484481 79.055784 144.345647 78.568554 
Q 144.230388 79.146157 144.022137 79.714592 
L 143.363329 81.474907 
z
" style="fill: #666666; stroke: #666666; stroke-width: 0.48"/>
    <path d="M 113.709695 54.538826 
L 113.709695 48.538826 
L 115.961169 48.538826 
Q 116.648791 48.538826 117.063985 48.720882 
Q 117.479178 48.902939 117.713624 49.281459 
Q 117.949381 49.659979 117.949381 50.073862 
Q 117.949381 50.457621 117.741129 50.798158 
Q 117.532878 51.137385 117.111136 51.345637 
Q 117.654685 51.505427 117.946761 51.890496 
Q 118.240147 52.275565 118.240147 52.799468 
Q 118.240147 53.22121 118.06202 53.584013 
Q 117.883893 53.945506 117.621941 54.141969 
Q 117.35999 54.338433 116.964443 54.439284 
Q 116.570206 54.538826 115.997842 54.538826 
L 113.709695 54.538826 
z
M 114.503408 51.06011 
L 115.801378 51.06011 
Q 116.32921 51.06011 116.558418 50.990692 
Q 116.860972 50.900319 117.014214 50.692068 
Q 117.167455 50.482506 117.167455 50.166855 
Q 117.167455 49.86823 117.024692 49.641642 
Q 116.881928 49.413744 116.614738 49.32992 
Q 116.348857 49.246095 115.703146 49.246095 
L 114.503408 49.246095 
L 114.503408 51.06011 
z
M 114.503408 53.830247 
L 115.997842 53.830247 
Q 116.381601 53.830247 116.537462 53.801432 
Q 116.812511 53.752971 116.995877 53.639022 
Q 117.180553 53.523764 117.298431 53.305034 
Q 117.417619 53.086305 117.417619 52.799468 
Q 117.417619 52.46417 117.246041 52.216626 
Q 117.074463 51.967772 116.769289 51.86823 
Q 116.464115 51.767379 115.890442 51.767379 
L 114.503408 51.767379 
L 114.503408 53.830247 
z
" style="fill: #666666; stroke: #666666; stroke-width: 0.48"/>
    <path d="M 158.932721 58.530926 
L 159.700296 58.724719 
Q 159.458371 59.670888 158.831391 60.167404 
Q 158.204412 60.663921 157.297509 60.663921 
Q 156.35894 60.663921 155.771227 60.282667 
Q 155.183513 59.900147 154.87699 59.175637 
Q 154.570467 58.451128 154.570467 57.620223 
Q 154.570467 56.71332 154.916255 56.039475 
Q 155.26331 55.364365 155.901689 55.014776 
Q 156.541334 54.663921 157.308909 54.663921 
Q 158.180346 54.663921 158.773127 55.10724 
Q 159.367174 55.550558 159.601499 56.353598 
L 158.845324 56.532192 
Q 158.642664 55.89888 158.258877 55.61009 
Q 157.87509 55.320033 157.293709 55.320033 
Q 156.624932 55.320033 156.17528 55.641755 
Q 155.725628 55.962211 155.543234 56.50306 
Q 155.362107 57.042642 155.362107 57.616423 
Q 155.362107 58.356131 155.577433 58.90838 
Q 155.792759 59.460628 156.247478 59.734219 
Q 156.703462 60.006543 157.234178 60.006543 
Q 157.87889 60.006543 158.326008 59.635422 
Q 158.774393 59.263035 158.932721 58.530926 
z
" style="fill: #666666; stroke: #666666; stroke-width: 0.48"/>
    <path d="M 77.887218 155.531926 
L 77.887218 149.531926 
L 79.954016 149.531926 
Q 80.653426 149.531926 81.022778 149.61706 
Q 81.537513 149.736248 81.901625 150.046661 
Q 82.377067 150.448757 82.611514 151.073511 
Q 82.84727 151.696956 82.84727 152.498527 
Q 82.84727 153.182221 82.68748 153.710053 
Q 82.528999 154.237886 82.278835 154.584971 
Q 82.028672 154.930747 81.731357 155.129831 
Q 81.435352 155.327604 81.016229 155.429765 
Q 80.597107 155.531926 80.052247 155.531926 
L 77.887218 155.531926 
z
M 78.680931 154.823347 
L 79.961874 154.823347 
Q 80.555194 154.823347 80.893112 154.713328 
Q 81.231029 154.603308 81.431422 154.401605 
Q 81.71433 154.120007 81.871501 153.643256 
Q 82.028672 153.166504 82.028672 152.486739 
Q 82.028672 151.545024 81.719569 151.039457 
Q 81.410466 150.533891 80.969078 150.362312 
Q 80.649497 150.239195 79.942228 150.239195 
L 78.680931 150.239195 
L 78.680931 154.823347 
z
" style="fill: #666666; stroke: #666666; stroke-width: 0.48"/>
    <path d="M 216.002545 42.994704 
L 216.002545 36.994704 
L 220.341773 36.994704 
L 220.341773 37.701973 
L 216.797568 37.701973 
L 216.797568 39.539563 
L 220.116494 39.539563 
L 220.116494 40.244213 
L 216.797568 40.244213 
L 216.797568 42.286125 
L 220.480607 42.286125 
L 220.480607 42.994704 
L 216.002545 42.994704 
z
" style="fill: #666666; stroke: #666666; stroke-width: 0.48"/>
    <path d="M 148.702391 165.379545 
L 148.702391 159.379545 
L 152.750852 159.379545 
L 152.750852 160.086814 
L 149.496104 160.086814 
L 149.496104 161.94536 
L 152.312083 161.94536 
L 152.312083 162.653939 
L 149.496104 162.653939 
L 149.496104 165.379545 
L 148.702391 165.379545 
z
" style="fill: #666666; stroke: #666666; stroke-width: 0.48"/>
    <path d="M 119.65053 96.059022 
L 119.65053 95.378845 
L 122.107781 95.373778 
L 122.107781 97.52704 
Q 121.5416 97.979225 120.939953 98.207217 
Q 120.338307 98.433943 119.704995 98.433943 
Q 118.850023 98.433943 118.150846 98.067888 
Q 117.452936 97.701834 117.097015 97.00899 
Q 116.741093 96.316147 116.741093 95.461175 
Q 116.741093 94.613803 117.094482 93.880428 
Q 117.449136 93.145786 118.114114 92.789864 
Q 118.779092 92.433943 119.645463 92.433943 
Q 120.274976 92.433943 120.782892 92.637869 
Q 121.292075 92.840529 121.580865 93.205317 
Q 121.870922 93.568838 122.020384 94.155285 
L 121.328807 94.345279 
Q 121.197078 93.90196 121.003285 93.648636 
Q 120.809491 93.395311 120.448503 93.243316 
Q 120.088782 93.090054 119.65053 93.090054 
Q 119.123614 93.090054 118.739827 93.250915 
Q 118.35604 93.41051 118.120447 93.672701 
Q 117.884855 93.933626 117.754393 94.246482 
Q 117.532734 94.784798 117.532734 95.41431 
Q 117.532734 96.189484 117.799991 96.7126 
Q 118.067249 97.234449 118.577699 97.487774 
Q 119.088148 97.741099 119.661929 97.741099 
Q 120.160979 97.741099 120.635964 97.549839 
Q 121.110948 97.357312 121.355406 97.139453 
L 121.355406 96.059022 
L 119.65053 96.059022 
z
" style="fill: #666666; stroke: #666666; stroke-width: 0.48"/>
    <path d="M 123.669493 96.568387 
L 123.669493 90.568387 
L 124.463206 90.568387 
L 124.463206 93.032041 
L 127.581739 93.032041 
L 127.581739 90.568387 
L 128.375452 90.568387 
L 128.375452 96.568387 
L 127.581739 96.568387 
L 127.581739 93.74062 
L 124.463206 93.74062 
L 124.463206 96.568387 
L 123.669493 96.568387 
z
" style="fill: #666666; stroke: #666666; stroke-width: 0.48"/>
    <path d="M 90.851353 129.926353 
L 90.851353 123.926353 
L 91.645066 123.926353 
L 91.645066 129.926353 
L 90.851353 129.926353 
z
" style="fill: #666666; stroke: #666666; stroke-width: 0.48"/>
    <path d="M 110.541996 120.075935 
L 111.246439 119.979348 
Q 111.274771 120.655459 111.500142 120.905298 
Q 111.725512 121.153849 112.124739 121.153849 
Q 112.418364 121.153849 112.630856 121.019915 
Q 112.844636 120.884693 112.924482 120.654171 
Q 113.005615 120.422362 113.005615 119.914957 
L 113.005615 115.850565 
L 113.78604 115.850565 
L 113.78604 119.87117 
Q 113.78604 120.611673 113.607032 121.018627 
Q 113.428023 121.424293 113.039099 121.638073 
Q 112.651462 121.850565 112.128603 121.850565 
Q 111.352041 121.850565 110.938648 121.403688 
Q 110.526542 120.956811 110.541996 120.075935 
z
" style="fill: #666666; stroke: #666666; stroke-width: 0.48"/>
    <path d="M 196.674947 76.37991 
L 196.674947 70.37991 
L 197.46866 70.37991 
L 197.46866 73.35568 
L 200.448359 70.37991 
L 201.52498 70.37991 
L 199.007625 72.810821 
L 201.634999 76.37991 
L 200.587193 76.37991 
L 198.450978 73.342582 
L 197.46866 74.300015 
L 197.46866 76.37991 
L 196.674947 76.37991 
z
" style="fill: #666666; stroke: #666666; stroke-width: 0.48"/>
    <path d="M 136.873697 32.949756 
L 136.873697 26.949756 
L 137.66741 26.949756 
L 137.66741 32.241177 
L 140.622223 32.241177 
L 140.622223 32.949756 
L 136.873697 32.949756 
z
" style="fill: #666666; stroke: #666666; stroke-width: 0.48"/>
   </g>
   <g id="matplotlib.axis_1">
    <g id="xtick_1">
     <g id="line2d_1">
      <path d="M 52.14 193.416 
L 52.14 11.52 
" clip-path="url(#pbb4a5d321b)" style="fill: none; stroke-dasharray: 0.8,1.32; stroke-dashoffset: 0; stroke: #b0b0b0; stroke-width: 0.8"/>
     </g>
     <g id="line2d_2">
      <defs>
       <path id="ma27ec57117" d="M 0 0 
L 0 -3.5 
" style="stroke: #666666; stroke-width: 0.8"/>
      </defs>
      <g>
       <use xlink:href="#ma27ec57117" x="52.14" y="193.416" style="fill: #666666; stroke: #666666; stroke-width: 0.8"/>
      </g>
     </g>
     <g id="text_1">
      <!-- −0.2 -->
      <g style="fill: #666666" transform="translate(44.24375 202.64225) scale(0.08 -0.08)">
       <defs>
        <path id="ArialMT-2212" d="M 3381 1997 
L 356 1997 
L 356 2522 
L 3381 2522 
L 3381 1997 
z
" transform="scale(0.015625)"/>
        <path id="ArialMT-30" d="M 266 2259 
Q 266 3072 433 3567 
Q 600 4063 929 4331 
Q 1259 4600 1759 4600 
Q 2128 4600 2406 4451 
Q 2684 4303 2865 4023 
Q 3047 3744 3150 3342 
Q 3253 2941 3253 2259 
Q 3253 1453 3087 958 
Q 2922 463 2592 192 
Q 2263 -78 1759 -78 
Q 1097 -78 719 397 
Q 266 969 266 2259 
z
M 844 2259 
Q 844 1131 1108 757 
Q 1372 384 1759 384 
Q 2147 384 2411 759 
Q 2675 1134 2675 2259 
Q 2675 3391 2411 3762 
Q 2147 4134 1753 4134 
Q 1366 4134 1134 3806 
Q 844 3388 844 2259 
z
" transform="scale(0.015625)"/>
        <path id="ArialMT-2e" d="M 581 0 
L 581 641 
L 1222 641 
L 1222 0 
L 581 0 
z
" transform="scale(0.015625)"/>
        <path id="ArialMT-32" d="M 3222 541 
L 3222 0 
L 194 0 
Q 188 203 259 391 
Q 375 700 629 1000 
Q 884 1300 1366 1694 
Q 2113 2306 2375 2664 
Q 2638 3022 2638 3341 
Q 2638 3675 2398 3904 
Q 2159 4134 1775 4134 
Q 1369 4134 1125 3890 
Q 881 3647 878 3216 
L 300 3275 
Q 359 3922 746 4261 
Q 1134 4600 1788 4600 
Q 2447 4600 2831 4234 
Q 3216 3869 3216 3328 
Q 3216 3053 3103 2787 
Q 2991 2522 2730 2228 
Q 2469 1934 1863 1422 
Q 1356 997 1212 845 
Q 1069 694 975 541 
L 3222 541 
z
" transform="scale(0.015625)"/>
       </defs>
       <use xlink:href="#ArialMT-2212"/>
       <use xlink:href="#ArialMT-30" x="58.398438"/>
       <use xlink:href="#ArialMT-2e" x="114.013672"/>
       <use xlink:href="#ArialMT-32" x="141.796875"/>
      </g>
     </g>
    </g>
    <g id="xtick_2">
     <g id="line2d_3">
      <path d="M 96.68 193.416 
L 96.68 11.52 
" clip-path="url(#pbb4a5d321b)" style="fill: none; stroke-dasharray: 0.8,1.32; stroke-dashoffset: 0; stroke: #b0b0b0; stroke-width: 0.8"/>
     </g>
     <g id="line2d_4">
      <g>
       <use xlink:href="#ma27ec57117" x="96.68" y="193.416" style="fill: #666666; stroke: #666666; stroke-width: 0.8"/>
      </g>
     </g>
     <g id="text_2">
      <!-- −0.1 -->
      <g style="fill: #666666" transform="translate(88.78375 202.64225) scale(0.08 -0.08)">
       <defs>
        <path id="ArialMT-31" d="M 2384 0 
L 1822 0 
L 1822 3584 
Q 1619 3391 1289 3197 
Q 959 3003 697 2906 
L 697 3450 
Q 1169 3672 1522 3987 
Q 1875 4303 2022 4600 
L 2384 4600 
L 2384 0 
z
" transform="scale(0.015625)"/>
       </defs>
       <use xlink:href="#ArialMT-2212"/>
       <use xlink:href="#ArialMT-30" x="58.398438"/>
       <use xlink:href="#ArialMT-2e" x="114.013672"/>
       <use xlink:href="#ArialMT-31" x="141.796875"/>
      </g>
     </g>
    </g>
    <g id="xtick_3">
     <g id="line2d_5">
      <path d="M 141.22 193.416 
L 141.22 11.52 
" clip-path="url(#pbb4a5d321b)" style="fill: none; stroke-dasharray: 0.8,1.32; stroke-dashoffset: 0; stroke: #b0b0b0; stroke-width: 0.8"/>
     </g>
     <g id="line2d_6">
      <g>
       <use xlink:href="#ma27ec57117" x="141.22" y="193.416" style="fill: #666666; stroke: #666666; stroke-width: 0.8"/>
      </g>
     </g>
     <g id="text_3">
      <!-- 0.0 -->
      <g style="fill: #666666" transform="translate(135.66 202.64225) scale(0.08 -0.08)">
       <use xlink:href="#ArialMT-30"/>
       <use xlink:href="#ArialMT-2e" x="55.615234"/>
       <use xlink:href="#ArialMT-30" x="83.398438"/>
      </g>
     </g>
    </g>
    <g id="xtick_4">
     <g id="line2d_7">
      <path d="M 185.76 193.416 
L 185.76 11.52 
" clip-path="url(#pbb4a5d321b)" style="fill: none; stroke-dasharray: 0.8,1.32; stroke-dashoffset: 0; stroke: #b0b0b0; stroke-width: 0.8"/>
     </g>
     <g id="line2d_8">
      <g>
       <use xlink:href="#ma27ec57117" x="185.76" y="193.416" style="fill: #666666; stroke: #666666; stroke-width: 0.8"/>
      </g>
     </g>
     <g id="text_4">
      <!-- 0.1 -->
      <g style="fill: #666666" transform="translate(180.2 202.64225) scale(0.08 -0.08)">
       <use xlink:href="#ArialMT-30"/>
       <use xlink:href="#ArialMT-2e" x="55.615234"/>
       <use xlink:href="#ArialMT-31" x="83.398438"/>
      </g>
     </g>
    </g>
    <g id="xtick_5">
     <g id="line2d_9">
      <path d="M 230.3 193.416 
L 230.3 11.52 
" clip-path="url(#pbb4a5d321b)" style="fill: none; stroke-dasharray: 0.8,1.32; stroke-dashoffset: 0; stroke: #b0b0b0; stroke-width: 0.8"/>
     </g>
     <g id="line2d_10">
      <g>
       <use xlink:href="#ma27ec57117" x="230.3" y="193.416" style="fill: #666666; stroke: #666666; stroke-width: 0.8"/>
      </g>
     </g>
     <g id="text_5">
      <!-- 0.2 -->
      <g style="fill: #666666" transform="translate(224.74 202.64225) scale(0.08 -0.08)">
       <use xlink:href="#ArialMT-30"/>
       <use xlink:href="#ArialMT-2e" x="55.615234"/>
       <use xlink:href="#ArialMT-32" x="83.398438"/>
      </g>
     </g>
    </g>
    <g id="xtick_6">
     <g id="line2d_11">
      <defs>
       <path id="mb51db06cb0" d="M 0 0 
L 0 -2 
" style="stroke: #666666; stroke-width: 0.6"/>
      </defs>
      <g>
       <use xlink:href="#mb51db06cb0" x="74.41" y="193.416" style="fill: #666666; stroke: #666666; stroke-width: 0.6"/>
      </g>
     </g>
    </g>
    <g id="xtick_7">
     <g id="line2d_12">
      <g>
       <use xlink:href="#mb51db06cb0" x="118.95" y="193.416" style="fill: #666666; stroke: #666666; stroke-width: 0.6"/>
      </g>
     </g>
    </g>
    <g id="xtick_8">
     <g id="line2d_13">
      <g>
       <use xlink:href="#mb51db06cb0" x="163.49" y="193.416" style="fill: #666666; stroke: #666666; stroke-width: 0.6"/>
      </g>
     </g>
    </g>
    <g id="xtick_9">
     <g id="line2d_14">
      <g>
       <use xlink:href="#mb51db06cb0" x="208.03" y="193.416" style="fill: #666666; stroke: #666666; stroke-width: 0.6"/>
      </g>
     </g>
    </g>
    <g id="text_6">
     <!-- Pattern effect years 0-30 1%CO2 ($Wm^{-2}$) -->
     <g style="fill: #666666" transform="translate(67.94 217.91225) scale(0.08 -0.08)">
      <defs>
       <path id="ArialMT-50" d="M 494 0 
L 494 4581 
L 2222 4581 
Q 2678 4581 2919 4538 
Q 3256 4481 3484 4323 
Q 3713 4166 3852 3881 
Q 3991 3597 3991 3256 
Q 3991 2672 3619 2267 
Q 3247 1863 2275 1863 
L 1100 1863 
L 1100 0 
L 494 0 
z
M 1100 2403 
L 2284 2403 
Q 2872 2403 3119 2622 
Q 3366 2841 3366 3238 
Q 3366 3525 3220 3729 
Q 3075 3934 2838 4000 
Q 2684 4041 2272 4041 
L 1100 4041 
L 1100 2403 
z
" transform="scale(0.015625)"/>
       <path id="ArialMT-61" d="M 2588 409 
Q 2275 144 1986 34 
Q 1697 -75 1366 -75 
Q 819 -75 525 192 
Q 231 459 231 875 
Q 231 1119 342 1320 
Q 453 1522 633 1644 
Q 813 1766 1038 1828 
Q 1203 1872 1538 1913 
Q 2219 1994 2541 2106 
Q 2544 2222 2544 2253 
Q 2544 2597 2384 2738 
Q 2169 2928 1744 2928 
Q 1347 2928 1158 2789 
Q 969 2650 878 2297 
L 328 2372 
Q 403 2725 575 2942 
Q 747 3159 1072 3276 
Q 1397 3394 1825 3394 
Q 2250 3394 2515 3294 
Q 2781 3194 2906 3042 
Q 3031 2891 3081 2659 
Q 3109 2516 3109 2141 
L 3109 1391 
Q 3109 606 3145 398 
Q 3181 191 3288 0 
L 2700 0 
Q 2613 175 2588 409 
z
M 2541 1666 
Q 2234 1541 1622 1453 
Q 1275 1403 1131 1340 
Q 988 1278 909 1158 
Q 831 1038 831 891 
Q 831 666 1001 516 
Q 1172 366 1500 366 
Q 1825 366 2078 508 
Q 2331 650 2450 897 
Q 2541 1088 2541 1459 
L 2541 1666 
z
" transform="scale(0.015625)"/>
       <path id="ArialMT-74" d="M 1650 503 
L 1731 6 
Q 1494 -44 1306 -44 
Q 1000 -44 831 53 
Q 663 150 594 308 
Q 525 466 525 972 
L 525 2881 
L 113 2881 
L 113 3319 
L 525 3319 
L 525 4141 
L 1084 4478 
L 1084 3319 
L 1650 3319 
L 1650 2881 
L 1084 2881 
L 1084 941 
Q 1084 700 1114 631 
Q 1144 563 1211 522 
Q 1278 481 1403 481 
Q 1497 481 1650 503 
z
" transform="scale(0.015625)"/>
       <path id="ArialMT-65" d="M 2694 1069 
L 3275 997 
Q 3138 488 2766 206 
Q 2394 -75 1816 -75 
Q 1088 -75 661 373 
Q 234 822 234 1631 
Q 234 2469 665 2931 
Q 1097 3394 1784 3394 
Q 2450 3394 2872 2941 
Q 3294 2488 3294 1666 
Q 3294 1616 3291 1516 
L 816 1516 
Q 847 969 1125 678 
Q 1403 388 1819 388 
Q 2128 388 2347 550 
Q 2566 713 2694 1069 
z
M 847 1978 
L 2700 1978 
Q 2663 2397 2488 2606 
Q 2219 2931 1791 2931 
Q 1403 2931 1139 2672 
Q 875 2413 847 1978 
z
" transform="scale(0.015625)"/>
       <path id="ArialMT-72" d="M 416 0 
L 416 3319 
L 922 3319 
L 922 2816 
Q 1116 3169 1280 3281 
Q 1444 3394 1641 3394 
Q 1925 3394 2219 3213 
L 2025 2691 
Q 1819 2813 1613 2813 
Q 1428 2813 1281 2702 
Q 1134 2591 1072 2394 
Q 978 2094 978 1738 
L 978 0 
L 416 0 
z
" transform="scale(0.015625)"/>
       <path id="ArialMT-6e" d="M 422 0 
L 422 3319 
L 928 3319 
L 928 2847 
Q 1294 3394 1984 3394 
Q 2284 3394 2536 3286 
Q 2788 3178 2913 3003 
Q 3038 2828 3088 2588 
Q 3119 2431 3119 2041 
L 3119 0 
L 2556 0 
L 2556 2019 
Q 2556 2363 2490 2533 
Q 2425 2703 2258 2804 
Q 2091 2906 1866 2906 
Q 1506 2906 1245 2678 
Q 984 2450 984 1813 
L 984 0 
L 422 0 
z
" transform="scale(0.015625)"/>
       <path id="ArialMT-20" transform="scale(0.015625)"/>
       <path id="ArialMT-66" d="M 556 0 
L 556 2881 
L 59 2881 
L 59 3319 
L 556 3319 
L 556 3672 
Q 556 4006 616 4169 
Q 697 4388 901 4523 
Q 1106 4659 1475 4659 
Q 1713 4659 2000 4603 
L 1916 4113 
Q 1741 4144 1584 4144 
Q 1328 4144 1222 4034 
Q 1116 3925 1116 3625 
L 1116 3319 
L 1763 3319 
L 1763 2881 
L 1116 2881 
L 1116 0 
L 556 0 
z
" transform="scale(0.015625)"/>
       <path id="ArialMT-63" d="M 2588 1216 
L 3141 1144 
Q 3050 572 2676 248 
Q 2303 -75 1759 -75 
Q 1078 -75 664 370 
Q 250 816 250 1647 
Q 250 2184 428 2587 
Q 606 2991 970 3192 
Q 1334 3394 1763 3394 
Q 2303 3394 2647 3120 
Q 2991 2847 3088 2344 
L 2541 2259 
Q 2463 2594 2264 2762 
Q 2066 2931 1784 2931 
Q 1359 2931 1093 2626 
Q 828 2322 828 1663 
Q 828 994 1084 691 
Q 1341 388 1753 388 
Q 2084 388 2306 591 
Q 2528 794 2588 1216 
z
" transform="scale(0.015625)"/>
       <path id="ArialMT-79" d="M 397 -1278 
L 334 -750 
Q 519 -800 656 -800 
Q 844 -800 956 -737 
Q 1069 -675 1141 -563 
Q 1194 -478 1313 -144 
Q 1328 -97 1363 -6 
L 103 3319 
L 709 3319 
L 1400 1397 
Q 1534 1031 1641 628 
Q 1738 1016 1872 1384 
L 2581 3319 
L 3144 3319 
L 1881 -56 
Q 1678 -603 1566 -809 
Q 1416 -1088 1222 -1217 
Q 1028 -1347 759 -1347 
Q 597 -1347 397 -1278 
z
" transform="scale(0.015625)"/>
       <path id="ArialMT-73" d="M 197 991 
L 753 1078 
Q 800 744 1014 566 
Q 1228 388 1613 388 
Q 2000 388 2187 545 
Q 2375 703 2375 916 
Q 2375 1106 2209 1216 
Q 2094 1291 1634 1406 
Q 1016 1563 777 1677 
Q 538 1791 414 1992 
Q 291 2194 291 2438 
Q 291 2659 392 2848 
Q 494 3038 669 3163 
Q 800 3259 1026 3326 
Q 1253 3394 1513 3394 
Q 1903 3394 2198 3281 
Q 2494 3169 2634 2976 
Q 2775 2784 2828 2463 
L 2278 2388 
Q 2241 2644 2061 2787 
Q 1881 2931 1553 2931 
Q 1166 2931 1000 2803 
Q 834 2675 834 2503 
Q 834 2394 903 2306 
Q 972 2216 1119 2156 
Q 1203 2125 1616 2013 
Q 2213 1853 2448 1751 
Q 2684 1650 2818 1456 
Q 2953 1263 2953 975 
Q 2953 694 2789 445 
Q 2625 197 2315 61 
Q 2006 -75 1616 -75 
Q 969 -75 630 194 
Q 291 463 197 991 
z
" transform="scale(0.015625)"/>
       <path id="ArialMT-2d" d="M 203 1375 
L 203 1941 
L 1931 1941 
L 1931 1375 
L 203 1375 
z
" transform="scale(0.015625)"/>
       <path id="ArialMT-33" d="M 269 1209 
L 831 1284 
Q 928 806 1161 595 
Q 1394 384 1728 384 
Q 2125 384 2398 659 
Q 2672 934 2672 1341 
Q 2672 1728 2419 1979 
Q 2166 2231 1775 2231 
Q 1616 2231 1378 2169 
L 1441 2663 
Q 1497 2656 1531 2656 
Q 1891 2656 2178 2843 
Q 2466 3031 2466 3422 
Q 2466 3731 2256 3934 
Q 2047 4138 1716 4138 
Q 1388 4138 1169 3931 
Q 950 3725 888 3313 
L 325 3413 
Q 428 3978 793 4289 
Q 1159 4600 1703 4600 
Q 2078 4600 2393 4439 
Q 2709 4278 2876 4000 
Q 3044 3722 3044 3409 
Q 3044 3113 2884 2869 
Q 2725 2625 2413 2481 
Q 2819 2388 3044 2092 
Q 3269 1797 3269 1353 
Q 3269 753 2831 336 
Q 2394 -81 1725 -81 
Q 1122 -81 723 278 
Q 325 638 269 1209 
z
" transform="scale(0.015625)"/>
       <path id="ArialMT-25" d="M 372 3481 
Q 372 3972 619 4315 
Q 866 4659 1334 4659 
Q 1766 4659 2048 4351 
Q 2331 4044 2331 3447 
Q 2331 2866 2045 2552 
Q 1759 2238 1341 2238 
Q 925 2238 648 2547 
Q 372 2856 372 3481 
z
M 1350 4272 
Q 1141 4272 1002 4090 
Q 863 3909 863 3425 
Q 863 2984 1003 2804 
Q 1144 2625 1350 2625 
Q 1563 2625 1702 2806 
Q 1841 2988 1841 3469 
Q 1841 3913 1700 4092 
Q 1559 4272 1350 4272 
z
M 1353 -169 
L 3859 4659 
L 4316 4659 
L 1819 -169 
L 1353 -169 
z
M 3334 1075 
Q 3334 1569 3581 1911 
Q 3828 2253 4300 2253 
Q 4731 2253 5014 1945 
Q 5297 1638 5297 1041 
Q 5297 459 5011 145 
Q 4725 -169 4303 -169 
Q 3888 -169 3611 142 
Q 3334 453 3334 1075 
z
M 4316 1866 
Q 4103 1866 3964 1684 
Q 3825 1503 3825 1019 
Q 3825 581 3965 400 
Q 4106 219 4313 219 
Q 4528 219 4667 400 
Q 4806 581 4806 1063 
Q 4806 1506 4665 1686 
Q 4525 1866 4316 1866 
z
" transform="scale(0.015625)"/>
       <path id="ArialMT-43" d="M 3763 1606 
L 4369 1453 
Q 4178 706 3683 314 
Q 3188 -78 2472 -78 
Q 1731 -78 1267 223 
Q 803 525 561 1097 
Q 319 1669 319 2325 
Q 319 3041 592 3573 
Q 866 4106 1370 4382 
Q 1875 4659 2481 4659 
Q 3169 4659 3637 4309 
Q 4106 3959 4291 3325 
L 3694 3184 
Q 3534 3684 3231 3912 
Q 2928 4141 2469 4141 
Q 1941 4141 1586 3887 
Q 1231 3634 1087 3207 
Q 944 2781 944 2328 
Q 944 1744 1114 1308 
Q 1284 872 1643 656 
Q 2003 441 2422 441 
Q 2931 441 3284 734 
Q 3638 1028 3763 1606 
z
" transform="scale(0.015625)"/>
       <path id="ArialMT-4f" d="M 309 2231 
Q 309 3372 921 4017 
Q 1534 4663 2503 4663 
Q 3138 4663 3647 4359 
Q 4156 4056 4423 3514 
Q 4691 2972 4691 2284 
Q 4691 1588 4409 1038 
Q 4128 488 3612 205 
Q 3097 -78 2500 -78 
Q 1853 -78 1343 234 
Q 834 547 571 1087 
Q 309 1628 309 2231 
z
M 934 2222 
Q 934 1394 1379 917 
Q 1825 441 2497 441 
Q 3181 441 3623 922 
Q 4066 1403 4066 2288 
Q 4066 2847 3877 3264 
Q 3688 3681 3323 3911 
Q 2959 4141 2506 4141 
Q 1863 4141 1398 3698 
Q 934 3256 934 2222 
z
" transform="scale(0.015625)"/>
       <path id="ArialMT-28" d="M 1497 -1347 
Q 1031 -759 709 28 
Q 388 816 388 1659 
Q 388 2403 628 3084 
Q 909 3875 1497 4659 
L 1900 4659 
Q 1522 4009 1400 3731 
Q 1209 3300 1100 2831 
Q 966 2247 966 1656 
Q 966 153 1900 -1347 
L 1497 -1347 
z
" transform="scale(0.015625)"/>
       <path id="ArialMT-57" d="M 1294 0 
L 78 4581 
L 700 4581 
L 1397 1578 
Q 1509 1106 1591 641 
Q 1766 1375 1797 1488 
L 2669 4581 
L 3400 4581 
L 4056 2263 
Q 4303 1400 4413 641 
Q 4500 1075 4641 1638 
L 5359 4581 
L 5969 4581 
L 4713 0 
L 4128 0 
L 3163 3491 
Q 3041 3928 3019 4028 
Q 2947 3713 2884 3491 
L 1913 0 
L 1294 0 
z
" transform="scale(0.015625)"/>
       <path id="ArialMT-6d" d="M 422 0 
L 422 3319 
L 925 3319 
L 925 2853 
Q 1081 3097 1340 3245 
Q 1600 3394 1931 3394 
Q 2300 3394 2536 3241 
Q 2772 3088 2869 2813 
Q 3263 3394 3894 3394 
Q 4388 3394 4653 3120 
Q 4919 2847 4919 2278 
L 4919 0 
L 4359 0 
L 4359 2091 
Q 4359 2428 4304 2576 
Q 4250 2725 4106 2815 
Q 3963 2906 3769 2906 
Q 3419 2906 3187 2673 
Q 2956 2441 2956 1928 
L 2956 0 
L 2394 0 
L 2394 2156 
Q 2394 2531 2256 2718 
Q 2119 2906 1806 2906 
Q 1569 2906 1367 2781 
Q 1166 2656 1075 2415 
Q 984 2175 984 1722 
L 984 0 
L 422 0 
z
" transform="scale(0.015625)"/>
       <path id="ArialMT-29" d="M 791 -1347 
L 388 -1347 
Q 1322 153 1322 1656 
Q 1322 2244 1188 2822 
Q 1081 3291 891 3722 
Q 769 4003 388 4659 
L 791 4659 
Q 1378 3875 1659 3084 
Q 1900 2403 1900 1659 
Q 1900 816 1576 28 
Q 1253 -759 791 -1347 
z
" transform="scale(0.015625)"/>
      </defs>
      <use xlink:href="#ArialMT-50" transform="translate(0 0.99375)"/>
      <use xlink:href="#ArialMT-61" transform="translate(66.699219 0.99375)"/>
      <use xlink:href="#ArialMT-74" transform="translate(122.314453 0.99375)"/>
      <use xlink:href="#ArialMT-74" transform="translate(150.097656 0.99375)"/>
      <use xlink:href="#ArialMT-65" transform="translate(177.880859 0.99375)"/>
      <use xlink:href="#ArialMT-72" transform="translate(233.496094 0.99375)"/>
      <use xlink:href="#ArialMT-6e" transform="translate(266.796875 0.99375)"/>
      <use xlink:href="#ArialMT-20" transform="translate(322.412109 0.99375)"/>
      <use xlink:href="#ArialMT-65" transform="translate(350.195312 0.99375)"/>
      <use xlink:href="#ArialMT-66" transform="translate(405.810547 0.99375)"/>
      <use xlink:href="#ArialMT-66" transform="translate(433.59375 0.99375)"/>
      <use xlink:href="#ArialMT-65" transform="translate(461.376953 0.99375)"/>
      <use xlink:href="#ArialMT-63" transform="translate(516.992188 0.99375)"/>
      <use xlink:href="#ArialMT-74" transform="translate(566.992188 0.99375)"/>
      <use xlink:href="#ArialMT-20" transform="translate(594.775391 0.99375)"/>
      <use xlink:href="#ArialMT-79" transform="translate(622.558594 0.99375)"/>
      <use xlink:href="#ArialMT-65" transform="translate(672.558594 0.99375)"/>
      <use xlink:href="#ArialMT-61" transform="translate(728.173828 0.99375)"/>
      <use xlink:href="#ArialMT-72" transform="translate(783.789062 0.99375)"/>
      <use xlink:href="#ArialMT-73" transform="translate(817.089844 0.99375)"/>
      <use xlink:href="#ArialMT-20" transform="translate(867.089844 0.99375)"/>
      <use xlink:href="#ArialMT-30" transform="translate(894.873047 0.99375)"/>
      <use xlink:href="#ArialMT-2d" transform="translate(950.488281 0.99375)"/>
      <use xlink:href="#ArialMT-33" transform="translate(983.789062 0.99375)"/>
      <use xlink:href="#ArialMT-30" transform="translate(1039.404297 0.99375)"/>
      <use xlink:href="#ArialMT-20" transform="translate(1095.019531 0.99375)"/>
      <use xlink:href="#ArialMT-31" transform="translate(1122.802734 0.99375)"/>
      <use xlink:href="#ArialMT-25" transform="translate(1178.417969 0.99375)"/>
      <use xlink:href="#ArialMT-43" transform="translate(1267.333984 0.99375)"/>
      <use xlink:href="#ArialMT-4f" transform="translate(1339.550781 0.99375)"/>
      <use xlink:href="#ArialMT-32" transform="translate(1417.333984 0.99375)"/>
      <use xlink:href="#ArialMT-20" transform="translate(1472.949219 0.99375)"/>
      <use xlink:href="#ArialMT-28" transform="translate(1500.732422 0.99375)"/>
      <use xlink:href="#ArialMT-57" transform="translate(1534.033203 0.99375)"/>
      <use xlink:href="#ArialMT-6d" transform="translate(1628.417969 0.99375)"/>
      <use xlink:href="#ArialMT-2212" transform="translate(1713.461094 70.6875) scale(0.7)"/>
      <use xlink:href="#ArialMT-32" transform="translate(1754.34 70.6875) scale(0.7)"/>
      <use xlink:href="#ArialMT-29" transform="translate(1798.248789 0.99375)"/>
     </g>
    </g>
   </g>
   <g id="matplotlib.axis_2">
    <g id="ytick_1">
     <g id="line2d_15">
      <path d="M 52.14 193.416 
L 230.3 193.416 
" clip-path="url(#pbb4a5d321b)" style="fill: none; stroke-dasharray: 0.8,1.32; stroke-dashoffset: 0; stroke: #b0b0b0; stroke-width: 0.8"/>
     </g>
     <g id="line2d_16">
      <defs>
       <path id="mbf5979c2bc" d="M 0 0 
L 3.5 0 
" style="stroke: #666666; stroke-width: 0.8"/>
      </defs>
      <g>
       <use xlink:href="#mbf5979c2bc" x="52.14" y="193.416" style="fill: #666666; stroke: #666666; stroke-width: 0.8"/>
      </g>
     </g>
     <g id="text_7">
      <!-- −0.6 -->
      <g style="fill: #666666" transform="translate(32.8475 196.279125) scale(0.08 -0.08)">
       <defs>
        <path id="ArialMT-36" d="M 3184 3459 
L 2625 3416 
Q 2550 3747 2413 3897 
Q 2184 4138 1850 4138 
Q 1581 4138 1378 3988 
Q 1113 3794 959 3422 
Q 806 3050 800 2363 
Q 1003 2672 1297 2822 
Q 1591 2972 1913 2972 
Q 2475 2972 2870 2558 
Q 3266 2144 3266 1488 
Q 3266 1056 3080 686 
Q 2894 316 2569 119 
Q 2244 -78 1831 -78 
Q 1128 -78 684 439 
Q 241 956 241 2144 
Q 241 3472 731 4075 
Q 1159 4600 1884 4600 
Q 2425 4600 2770 4297 
Q 3116 3994 3184 3459 
z
M 888 1484 
Q 888 1194 1011 928 
Q 1134 663 1356 523 
Q 1578 384 1822 384 
Q 2178 384 2434 671 
Q 2691 959 2691 1453 
Q 2691 1928 2437 2201 
Q 2184 2475 1800 2475 
Q 1419 2475 1153 2201 
Q 888 1928 888 1484 
z
" transform="scale(0.015625)"/>
       </defs>
       <use xlink:href="#ArialMT-2212"/>
       <use xlink:href="#ArialMT-30" x="58.398438"/>
       <use xlink:href="#ArialMT-2e" x="114.013672"/>
       <use xlink:href="#ArialMT-36" x="141.796875"/>
      </g>
     </g>
    </g>
    <g id="ytick_2">
     <g id="line2d_17">
      <path d="M 52.14 163.1 
L 230.3 163.1 
" clip-path="url(#pbb4a5d321b)" style="fill: none; stroke-dasharray: 0.8,1.32; stroke-dashoffset: 0; stroke: #b0b0b0; stroke-width: 0.8"/>
     </g>
     <g id="line2d_18">
      <g>
       <use xlink:href="#mbf5979c2bc" x="52.14" y="163.1" style="fill: #666666; stroke: #666666; stroke-width: 0.8"/>
      </g>
     </g>
     <g id="text_8">
      <!-- −0.5 -->
      <g style="fill: #666666" transform="translate(32.8475 165.963125) scale(0.08 -0.08)">
       <defs>
        <path id="ArialMT-35" d="M 266 1200 
L 856 1250 
Q 922 819 1161 601 
Q 1400 384 1738 384 
Q 2144 384 2425 690 
Q 2706 997 2706 1503 
Q 2706 1984 2436 2262 
Q 2166 2541 1728 2541 
Q 1456 2541 1237 2417 
Q 1019 2294 894 2097 
L 366 2166 
L 809 4519 
L 3088 4519 
L 3088 3981 
L 1259 3981 
L 1013 2750 
Q 1425 3038 1878 3038 
Q 2478 3038 2890 2622 
Q 3303 2206 3303 1553 
Q 3303 931 2941 478 
Q 2500 -78 1738 -78 
Q 1113 -78 717 272 
Q 322 622 266 1200 
z
" transform="scale(0.015625)"/>
       </defs>
       <use xlink:href="#ArialMT-2212"/>
       <use xlink:href="#ArialMT-30" x="58.398438"/>
       <use xlink:href="#ArialMT-2e" x="114.013672"/>
       <use xlink:href="#ArialMT-35" x="141.796875"/>
      </g>
     </g>
    </g>
    <g id="ytick_3">
     <g id="line2d_19">
      <path d="M 52.14 132.784 
L 230.3 132.784 
" clip-path="url(#pbb4a5d321b)" style="fill: none; stroke-dasharray: 0.8,1.32; stroke-dashoffset: 0; stroke: #b0b0b0; stroke-width: 0.8"/>
     </g>
     <g id="line2d_20">
      <g>
       <use xlink:href="#mbf5979c2bc" x="52.14" y="132.784" style="fill: #666666; stroke: #666666; stroke-width: 0.8"/>
      </g>
     </g>
     <g id="text_9">
      <!-- −0.4 -->
      <g style="fill: #666666" transform="translate(32.8475 135.647125) scale(0.08 -0.08)">
       <defs>
        <path id="ArialMT-34" d="M 2069 0 
L 2069 1097 
L 81 1097 
L 81 1613 
L 2172 4581 
L 2631 4581 
L 2631 1613 
L 3250 1613 
L 3250 1097 
L 2631 1097 
L 2631 0 
L 2069 0 
z
M 2069 1613 
L 2069 3678 
L 634 1613 
L 2069 1613 
z
" transform="scale(0.015625)"/>
       </defs>
       <use xlink:href="#ArialMT-2212"/>
       <use xlink:href="#ArialMT-30" x="58.398438"/>
       <use xlink:href="#ArialMT-2e" x="114.013672"/>
       <use xlink:href="#ArialMT-34" x="141.796875"/>
      </g>
     </g>
    </g>
    <g id="ytick_4">
     <g id="line2d_21">
      <path d="M 52.14 102.468 
L 230.3 102.468 
" clip-path="url(#pbb4a5d321b)" style="fill: none; stroke-dasharray: 0.8,1.32; stroke-dashoffset: 0; stroke: #b0b0b0; stroke-width: 0.8"/>
     </g>
     <g id="line2d_22">
      <g>
       <use xlink:href="#mbf5979c2bc" x="52.14" y="102.468" style="fill: #666666; stroke: #666666; stroke-width: 0.8"/>
      </g>
     </g>
     <g id="text_10">
      <!-- −0.3 -->
      <g style="fill: #666666" transform="translate(32.8475 105.331125) scale(0.08 -0.08)">
       <use xlink:href="#ArialMT-2212"/>
       <use xlink:href="#ArialMT-30" x="58.398438"/>
       <use xlink:href="#ArialMT-2e" x="114.013672"/>
       <use xlink:href="#ArialMT-33" x="141.796875"/>
      </g>
     </g>
    </g>
    <g id="ytick_5">
     <g id="line2d_23">
      <path d="M 52.14 72.152 
L 230.3 72.152 
" clip-path="url(#pbb4a5d321b)" style="fill: none; stroke-dasharray: 0.8,1.32; stroke-dashoffset: 0; stroke: #b0b0b0; stroke-width: 0.8"/>
     </g>
     <g id="line2d_24">
      <g>
       <use xlink:href="#mbf5979c2bc" x="52.14" y="72.152" style="fill: #666666; stroke: #666666; stroke-width: 0.8"/>
      </g>
     </g>
     <g id="text_11">
      <!-- −0.2 -->
      <g style="fill: #666666" transform="translate(32.8475 75.015125) scale(0.08 -0.08)">
       <use xlink:href="#ArialMT-2212"/>
       <use xlink:href="#ArialMT-30" x="58.398438"/>
       <use xlink:href="#ArialMT-2e" x="114.013672"/>
       <use xlink:href="#ArialMT-32" x="141.796875"/>
      </g>
     </g>
    </g>
    <g id="ytick_6">
     <g id="line2d_25">
      <path d="M 52.14 41.836 
L 230.3 41.836 
" clip-path="url(#pbb4a5d321b)" style="fill: none; stroke-dasharray: 0.8,1.32; stroke-dashoffset: 0; stroke: #b0b0b0; stroke-width: 0.8"/>
     </g>
     <g id="line2d_26">
      <g>
       <use xlink:href="#mbf5979c2bc" x="52.14" y="41.836" style="fill: #666666; stroke: #666666; stroke-width: 0.8"/>
      </g>
     </g>
     <g id="text_12">
      <!-- −0.1 -->
      <g style="fill: #666666" transform="translate(32.8475 44.699125) scale(0.08 -0.08)">
       <use xlink:href="#ArialMT-2212"/>
       <use xlink:href="#ArialMT-30" x="58.398438"/>
       <use xlink:href="#ArialMT-2e" x="114.013672"/>
       <use xlink:href="#ArialMT-31" x="141.796875"/>
      </g>
     </g>
    </g>
    <g id="ytick_7">
     <g id="line2d_27">
      <path d="M 52.14 11.52 
L 230.3 11.52 
" clip-path="url(#pbb4a5d321b)" style="fill: none; stroke-dasharray: 0.8,1.32; stroke-dashoffset: 0; stroke: #b0b0b0; stroke-width: 0.8"/>
     </g>
     <g id="line2d_28">
      <g>
       <use xlink:href="#mbf5979c2bc" x="52.14" y="11.52" style="fill: #666666; stroke: #666666; stroke-width: 0.8"/>
      </g>
     </g>
     <g id="text_13">
      <!-- 0.0 -->
      <g style="fill: #666666" transform="translate(37.52 14.383125) scale(0.08 -0.08)">
       <use xlink:href="#ArialMT-30"/>
       <use xlink:href="#ArialMT-2e" x="55.615234"/>
       <use xlink:href="#ArialMT-30" x="83.398438"/>
      </g>
     </g>
    </g>
    <g id="ytick_8">
     <g id="line2d_29">
      <defs>
       <path id="mc20693ea85" d="M 0 0 
L 2 0 
" style="stroke: #666666; stroke-width: 0.6"/>
      </defs>
      <g>
       <use xlink:href="#mc20693ea85" x="52.14" y="178.258" style="fill: #666666; stroke: #666666; stroke-width: 0.6"/>
      </g>
     </g>
    </g>
    <g id="ytick_9">
     <g id="line2d_30">
      <g>
       <use xlink:href="#mc20693ea85" x="52.14" y="147.942" style="fill: #666666; stroke: #666666; stroke-width: 0.6"/>
      </g>
     </g>
    </g>
    <g id="ytick_10">
     <g id="line2d_31">
      <g>
       <use xlink:href="#mc20693ea85" x="52.14" y="117.626" style="fill: #666666; stroke: #666666; stroke-width: 0.6"/>
      </g>
     </g>
    </g>
    <g id="ytick_11">
     <g id="line2d_32">
      <g>
       <use xlink:href="#mc20693ea85" x="52.14" y="87.31" style="fill: #666666; stroke: #666666; stroke-width: 0.6"/>
      </g>
     </g>
    </g>
    <g id="ytick_12">
     <g id="line2d_33">
      <g>
       <use xlink:href="#mc20693ea85" x="52.14" y="56.994" style="fill: #666666; stroke: #666666; stroke-width: 0.6"/>
      </g>
     </g>
    </g>
    <g id="ytick_13">
     <g id="line2d_34">
      <g>
       <use xlink:href="#mc20693ea85" x="52.14" y="26.678" style="fill: #666666; stroke: #666666; stroke-width: 0.6"/>
      </g>
     </g>
    </g>
    <g id="text_14">
     <!-- Pattern effect 1984-2014 historical ($Wm^{-2}$) -->
     <g style="fill: #666666" transform="translate(27.0875 177.748) rotate(-90) scale(0.08 -0.08)">
      <defs>
       <path id="ArialMT-39" d="M 350 1059 
L 891 1109 
Q 959 728 1153 556 
Q 1347 384 1650 384 
Q 1909 384 2104 503 
Q 2300 622 2425 820 
Q 2550 1019 2634 1356 
Q 2719 1694 2719 2044 
Q 2719 2081 2716 2156 
Q 2547 1888 2255 1720 
Q 1963 1553 1622 1553 
Q 1053 1553 659 1965 
Q 266 2378 266 3053 
Q 266 3750 677 4175 
Q 1088 4600 1706 4600 
Q 2153 4600 2523 4359 
Q 2894 4119 3086 3673 
Q 3278 3228 3278 2384 
Q 3278 1506 3087 986 
Q 2897 466 2520 194 
Q 2144 -78 1638 -78 
Q 1100 -78 759 220 
Q 419 519 350 1059 
z
M 2653 3081 
Q 2653 3566 2395 3850 
Q 2138 4134 1775 4134 
Q 1400 4134 1122 3828 
Q 844 3522 844 3034 
Q 844 2597 1108 2323 
Q 1372 2050 1759 2050 
Q 2150 2050 2401 2323 
Q 2653 2597 2653 3081 
z
" transform="scale(0.015625)"/>
       <path id="ArialMT-38" d="M 1131 2484 
Q 781 2613 612 2850 
Q 444 3088 444 3419 
Q 444 3919 803 4259 
Q 1163 4600 1759 4600 
Q 2359 4600 2725 4251 
Q 3091 3903 3091 3403 
Q 3091 3084 2923 2848 
Q 2756 2613 2416 2484 
Q 2838 2347 3058 2040 
Q 3278 1734 3278 1309 
Q 3278 722 2862 322 
Q 2447 -78 1769 -78 
Q 1091 -78 675 323 
Q 259 725 259 1325 
Q 259 1772 486 2073 
Q 713 2375 1131 2484 
z
M 1019 3438 
Q 1019 3113 1228 2906 
Q 1438 2700 1772 2700 
Q 2097 2700 2305 2904 
Q 2513 3109 2513 3406 
Q 2513 3716 2298 3927 
Q 2084 4138 1766 4138 
Q 1444 4138 1231 3931 
Q 1019 3725 1019 3438 
z
M 838 1322 
Q 838 1081 952 856 
Q 1066 631 1291 507 
Q 1516 384 1775 384 
Q 2178 384 2440 643 
Q 2703 903 2703 1303 
Q 2703 1709 2433 1975 
Q 2163 2241 1756 2241 
Q 1359 2241 1098 1978 
Q 838 1716 838 1322 
z
" transform="scale(0.015625)"/>
       <path id="ArialMT-68" d="M 422 0 
L 422 4581 
L 984 4581 
L 984 2938 
Q 1378 3394 1978 3394 
Q 2347 3394 2619 3248 
Q 2891 3103 3008 2847 
Q 3125 2591 3125 2103 
L 3125 0 
L 2563 0 
L 2563 2103 
Q 2563 2525 2380 2717 
Q 2197 2909 1863 2909 
Q 1613 2909 1392 2779 
Q 1172 2650 1078 2428 
Q 984 2206 984 1816 
L 984 0 
L 422 0 
z
" transform="scale(0.015625)"/>
       <path id="ArialMT-69" d="M 425 3934 
L 425 4581 
L 988 4581 
L 988 3934 
L 425 3934 
z
M 425 0 
L 425 3319 
L 988 3319 
L 988 0 
L 425 0 
z
" transform="scale(0.015625)"/>
       <path id="ArialMT-6f" d="M 213 1659 
Q 213 2581 725 3025 
Q 1153 3394 1769 3394 
Q 2453 3394 2887 2945 
Q 3322 2497 3322 1706 
Q 3322 1066 3130 698 
Q 2938 331 2570 128 
Q 2203 -75 1769 -75 
Q 1072 -75 642 372 
Q 213 819 213 1659 
z
M 791 1659 
Q 791 1022 1069 705 
Q 1347 388 1769 388 
Q 2188 388 2466 706 
Q 2744 1025 2744 1678 
Q 2744 2294 2464 2611 
Q 2184 2928 1769 2928 
Q 1347 2928 1069 2612 
Q 791 2297 791 1659 
z
" transform="scale(0.015625)"/>
       <path id="ArialMT-6c" d="M 409 0 
L 409 4581 
L 972 4581 
L 972 0 
L 409 0 
z
" transform="scale(0.015625)"/>
      </defs>
      <use xlink:href="#ArialMT-50" transform="translate(0 0.99375)"/>
      <use xlink:href="#ArialMT-61" transform="translate(66.699219 0.99375)"/>
      <use xlink:href="#ArialMT-74" transform="translate(122.314453 0.99375)"/>
      <use xlink:href="#ArialMT-74" transform="translate(150.097656 0.99375)"/>
      <use xlink:href="#ArialMT-65" transform="translate(177.880859 0.99375)"/>
      <use xlink:href="#ArialMT-72" transform="translate(233.496094 0.99375)"/>
      <use xlink:href="#ArialMT-6e" transform="translate(266.796875 0.99375)"/>
      <use xlink:href="#ArialMT-20" transform="translate(322.412109 0.99375)"/>
      <use xlink:href="#ArialMT-65" transform="translate(350.195312 0.99375)"/>
      <use xlink:href="#ArialMT-66" transform="translate(405.810547 0.99375)"/>
      <use xlink:href="#ArialMT-66" transform="translate(433.59375 0.99375)"/>
      <use xlink:href="#ArialMT-65" transform="translate(461.376953 0.99375)"/>
      <use xlink:href="#ArialMT-63" transform="translate(516.992188 0.99375)"/>
      <use xlink:href="#ArialMT-74" transform="translate(566.992188 0.99375)"/>
      <use xlink:href="#ArialMT-20" transform="translate(594.775391 0.99375)"/>
      <use xlink:href="#ArialMT-31" transform="translate(622.558594 0.99375)"/>
      <use xlink:href="#ArialMT-39" transform="translate(678.173828 0.99375)"/>
      <use xlink:href="#ArialMT-38" transform="translate(733.789062 0.99375)"/>
      <use xlink:href="#ArialMT-34" transform="translate(789.404297 0.99375)"/>
      <use xlink:href="#ArialMT-2d" transform="translate(845.019531 0.99375)"/>
      <use xlink:href="#ArialMT-32" transform="translate(878.320312 0.99375)"/>
      <use xlink:href="#ArialMT-30" transform="translate(933.935547 0.99375)"/>
      <use xlink:href="#ArialMT-31" transform="translate(989.550781 0.99375)"/>
      <use xlink:href="#ArialMT-34" transform="translate(1045.166016 0.99375)"/>
      <use xlink:href="#ArialMT-20" transform="translate(1100.78125 0.99375)"/>
      <use xlink:href="#ArialMT-68" transform="translate(1128.564453 0.99375)"/>
      <use xlink:href="#ArialMT-69" transform="translate(1184.179688 0.99375)"/>
      <use xlink:href="#ArialMT-73" transform="translate(1206.396484 0.99375)"/>
      <use xlink:href="#ArialMT-74" transform="translate(1256.396484 0.99375)"/>
      <use xlink:href="#ArialMT-6f" transform="translate(1284.179688 0.99375)"/>
      <use xlink:href="#ArialMT-72" transform="translate(1339.794922 0.99375)"/>
      <use xlink:href="#ArialMT-69" transform="translate(1373.095703 0.99375)"/>
      <use xlink:href="#ArialMT-63" transform="translate(1395.3125 0.99375)"/>
      <use xlink:href="#ArialMT-61" transform="translate(1445.3125 0.99375)"/>
      <use xlink:href="#ArialMT-6c" transform="translate(1500.927734 0.99375)"/>
      <use xlink:href="#ArialMT-20" transform="translate(1523.144531 0.99375)"/>
      <use xlink:href="#ArialMT-28" transform="translate(1550.927734 0.99375)"/>
      <use xlink:href="#ArialMT-57" transform="translate(1584.228516 0.99375)"/>
      <use xlink:href="#ArialMT-6d" transform="translate(1678.613281 0.99375)"/>
      <use xlink:href="#ArialMT-2212" transform="translate(1763.656406 70.6875) scale(0.7)"/>
      <use xlink:href="#ArialMT-32" transform="translate(1804.535312 70.6875) scale(0.7)"/>
      <use xlink:href="#ArialMT-29" transform="translate(1848.444102 0.99375)"/>
     </g>
    </g>
   </g>
   <g id="line2d_35"/>
   <g id="line2d_36"/>
   <g id="line2d_37"/>
   <g id="line2d_38"/>
   <g id="line2d_39"/>
   <g id="line2d_40"/>
   <g id="line2d_41"/>
   <g id="line2d_42"/>
   <g id="line2d_43"/>
   <g id="line2d_44"/>
   <g id="line2d_45"/>
   <g id="line2d_46"/>
   <g id="line2d_47">
    <path d="M 141.22 193.416 
L 141.22 11.52 
" clip-path="url(#pbb4a5d321b)" style="fill: none; stroke: #b2b2b2; stroke-width: 0.8; stroke-linecap: square"/>
   </g>
   <g id="line2d_48">
    <path d="M 52.14 138.968183 
L 230.3 37.35872 
" clip-path="url(#pbb4a5d321b)" style="fill: none; stroke: #b2b2b2; stroke-width: 0.8; stroke-linecap: square"/>
   </g>
   <g id="patch_3">
    <path d="M 52.14 193.416 
L 52.14 11.52 
" style="fill: none; stroke: #666666; stroke-linejoin: miter; stroke-linecap: square"/>
   </g>
   <g id="patch_4">
    <path d="M 52.14 193.416 
L 230.3 193.416 
" style="fill: none; stroke: #666666; stroke-linejoin: miter; stroke-linecap: square"/>
   </g>
   <g id="text_15">
    <!-- r = 0.53 -->
    <g style="fill: #666666" transform="translate(194.042 175.2264) scale(0.08 -0.08)">
     <defs>
      <path id="ArialMT-3d" d="M 3381 2694 
L 356 2694 
L 356 3219 
L 3381 3219 
L 3381 2694 
z
M 3381 1303 
L 356 1303 
L 356 1828 
L 3381 1828 
L 3381 1303 
z
" transform="scale(0.015625)"/>
     </defs>
     <use xlink:href="#ArialMT-72"/>
     <use xlink:href="#ArialMT-20" x="33.300781"/>
     <use xlink:href="#ArialMT-3d" x="61.083984"/>
     <use xlink:href="#ArialMT-20" x="119.482422"/>
     <use xlink:href="#ArialMT-30" x="147.265625"/>
     <use xlink:href="#ArialMT-2e" x="202.880859"/>
     <use xlink:href="#ArialMT-35" x="230.664062"/>
     <use xlink:href="#ArialMT-33" x="286.279297"/>
    </g>
   </g>
   <g id="legend_1">
    <g id="line2d_49">
     <defs>
      <path id="m5fd7f51a7b" d="M -2.807466 3 
L -0.503602 -3 
L 0.35167 -3 
L 2.807466 3 
L 1.903733 3 
L 1.203012 1.182056 
L -1.305174 1.182056 
L -1.965291 3 
L -2.807466 3 
z
M -1.075966 0.536346 
L 0.958088 0.536346 
L 0.332024 -1.125737 
Q 0.045187 -1.882777 -0.093648 -2.370007 
Q -0.208906 -1.792403 -0.417158 -1.223969 
L -1.075966 0.536346 
z
" style="stroke: #666666; stroke-width: 0.48"/>
     </defs>
     <g>
      <use xlink:href="#m5fd7f51a7b" x="240.1" y="47.368156" style="fill: #666666; stroke: #666666; stroke-width: 0.48"/>
     </g>
    </g>
    <g id="text_16">
     <!-- BCC-CSM2-MR -->
     <g style="fill: #666666" transform="translate(249.2 49.818156) scale(0.07 -0.07)">
      <defs>
       <path id="ArialMT-42" d="M 469 0 
L 469 4581 
L 2188 4581 
Q 2713 4581 3030 4442 
Q 3347 4303 3526 4014 
Q 3706 3725 3706 3409 
Q 3706 3116 3547 2856 
Q 3388 2597 3066 2438 
Q 3481 2316 3704 2022 
Q 3928 1728 3928 1328 
Q 3928 1006 3792 729 
Q 3656 453 3456 303 
Q 3256 153 2954 76 
Q 2653 0 2216 0 
L 469 0 
z
M 1075 2656 
L 2066 2656 
Q 2469 2656 2644 2709 
Q 2875 2778 2992 2937 
Q 3109 3097 3109 3338 
Q 3109 3566 3000 3739 
Q 2891 3913 2687 3977 
Q 2484 4041 1991 4041 
L 1075 4041 
L 1075 2656 
z
M 1075 541 
L 2216 541 
Q 2509 541 2628 563 
Q 2838 600 2978 687 
Q 3119 775 3209 942 
Q 3300 1109 3300 1328 
Q 3300 1584 3169 1773 
Q 3038 1963 2805 2039 
Q 2572 2116 2134 2116 
L 1075 2116 
L 1075 541 
z
" transform="scale(0.015625)"/>
       <path id="ArialMT-53" d="M 288 1472 
L 859 1522 
Q 900 1178 1048 958 
Q 1197 738 1509 602 
Q 1822 466 2213 466 
Q 2559 466 2825 569 
Q 3091 672 3220 851 
Q 3350 1031 3350 1244 
Q 3350 1459 3225 1620 
Q 3100 1781 2813 1891 
Q 2628 1963 1997 2114 
Q 1366 2266 1113 2400 
Q 784 2572 623 2826 
Q 463 3081 463 3397 
Q 463 3744 659 4045 
Q 856 4347 1234 4503 
Q 1613 4659 2075 4659 
Q 2584 4659 2973 4495 
Q 3363 4331 3572 4012 
Q 3781 3694 3797 3291 
L 3216 3247 
Q 3169 3681 2898 3903 
Q 2628 4125 2100 4125 
Q 1550 4125 1298 3923 
Q 1047 3722 1047 3438 
Q 1047 3191 1225 3031 
Q 1400 2872 2139 2705 
Q 2878 2538 3153 2413 
Q 3553 2228 3743 1945 
Q 3934 1663 3934 1294 
Q 3934 928 3725 604 
Q 3516 281 3123 101 
Q 2731 -78 2241 -78 
Q 1619 -78 1198 103 
Q 778 284 539 648 
Q 300 1013 288 1472 
z
" transform="scale(0.015625)"/>
       <path id="ArialMT-4d" d="M 475 0 
L 475 4581 
L 1388 4581 
L 2472 1338 
Q 2622 884 2691 659 
Q 2769 909 2934 1394 
L 4031 4581 
L 4847 4581 
L 4847 0 
L 4263 0 
L 4263 3834 
L 2931 0 
L 2384 0 
L 1059 3900 
L 1059 0 
L 475 0 
z
" transform="scale(0.015625)"/>
       <path id="ArialMT-52" d="M 503 0 
L 503 4581 
L 2534 4581 
Q 3147 4581 3465 4457 
Q 3784 4334 3975 4021 
Q 4166 3709 4166 3331 
Q 4166 2844 3850 2509 
Q 3534 2175 2875 2084 
Q 3116 1969 3241 1856 
Q 3506 1613 3744 1247 
L 4541 0 
L 3778 0 
L 3172 953 
Q 2906 1366 2734 1584 
Q 2563 1803 2427 1890 
Q 2291 1978 2150 2013 
Q 2047 2034 1813 2034 
L 1109 2034 
L 1109 0 
L 503 0 
z
M 1109 2559 
L 2413 2559 
Q 2828 2559 3062 2645 
Q 3297 2731 3419 2920 
Q 3541 3109 3541 3331 
Q 3541 3656 3305 3865 
Q 3069 4075 2559 4075 
L 1109 4075 
L 1109 2559 
z
" transform="scale(0.015625)"/>
      </defs>
      <use xlink:href="#ArialMT-42"/>
      <use xlink:href="#ArialMT-43" x="66.699219"/>
      <use xlink:href="#ArialMT-43" x="138.916016"/>
      <use xlink:href="#ArialMT-2d" x="211.132812"/>
      <use xlink:href="#ArialMT-43" x="244.433594"/>
      <use xlink:href="#ArialMT-53" x="316.650391"/>
      <use xlink:href="#ArialMT-4d" x="383.349609"/>
      <use xlink:href="#ArialMT-32" x="466.650391"/>
      <use xlink:href="#ArialMT-2d" x="522.265625"/>
      <use xlink:href="#ArialMT-4d" x="555.566406"/>
      <use xlink:href="#ArialMT-52" x="638.867188"/>
     </g>
    </g>
    <g id="line2d_50">
     <defs>
      <path id="m1212989da7" d="M -1.958088 3 
L -1.958088 -3 
L 0.293386 -3 
Q 0.981009 -3 1.396202 -2.817944 
Q 1.811395 -2.635887 2.045842 -2.257367 
Q 2.281598 -1.878847 2.281598 -1.464964 
Q 2.281598 -1.081205 2.073346 -0.740668 
Q 1.865095 -0.401441 1.443353 -0.193189 
Q 1.986902 -0.033399 2.278978 0.35167 
Q 2.572364 0.736739 2.572364 1.260642 
Q 2.572364 1.682384 2.394237 2.045187 
Q 2.21611 2.40668 1.954158 2.603143 
Q 1.692207 2.799607 1.29666 2.900458 
Q 0.902423 3 0.330059 3 
L -1.958088 3 
z
M -1.164375 -0.478716 
L 0.133595 -0.478716 
Q 0.661428 -0.478716 0.890635 -0.548134 
Q 1.193189 -0.638507 1.346431 -0.846758 
Q 1.499673 -1.05632 1.499673 -1.371971 
Q 1.499673 -1.670596 1.356909 -1.897184 
Q 1.214145 -2.125082 0.946955 -2.208906 
Q 0.681074 -2.292731 0.035363 -2.292731 
L -1.164375 -2.292731 
L -1.164375 -0.478716 
z
M -1.164375 2.291421 
L 0.330059 2.291421 
Q 0.713818 2.291421 0.869679 2.262606 
Q 1.144728 2.214145 1.328094 2.100196 
Q 1.51277 1.984938 1.630648 1.766208 
Q 1.749836 1.547479 1.749836 1.260642 
Q 1.749836 0.925344 1.578258 0.6778 
Q 1.40668 0.428946 1.101506 0.329404 
Q 0.796333 0.228553 0.222659 0.228553 
L -1.164375 0.228553 
L -1.164375 2.291421 
z
" style="stroke: #666666; stroke-width: 0.48"/>
     </defs>
     <g>
      <use xlink:href="#m1212989da7" x="240.1" y="57.269875" style="fill: #666666; stroke: #666666; stroke-width: 0.48"/>
     </g>
    </g>
    <g id="text_17">
     <!-- CESM2 -->
     <g style="fill: #666666" transform="translate(249.2 59.719875) scale(0.07 -0.07)">
      <defs>
       <path id="ArialMT-45" d="M 506 0 
L 506 4581 
L 3819 4581 
L 3819 4041 
L 1113 4041 
L 1113 2638 
L 3647 2638 
L 3647 2100 
L 1113 2100 
L 1113 541 
L 3925 541 
L 3925 0 
L 506 0 
z
" transform="scale(0.015625)"/>
      </defs>
      <use xlink:href="#ArialMT-43"/>
      <use xlink:href="#ArialMT-45" x="72.216797"/>
      <use xlink:href="#ArialMT-53" x="138.916016"/>
      <use xlink:href="#ArialMT-4d" x="205.615234"/>
      <use xlink:href="#ArialMT-32" x="288.916016"/>
     </g>
    </g>
    <g id="line2d_51">
     <defs>
      <path id="m5585af0c5f" d="M 1.999367 0.867004 
L 2.766941 1.060798 
Q 2.525016 2.006966 1.898037 2.503483 
Q 1.271058 3 0.364155 3 
Q -0.574414 3 -1.162128 2.618746 
Q -1.749842 2.236225 -2.056365 1.511716 
Q -2.362888 0.787207 -2.362888 -0.043699 
Q -2.362888 -0.950602 -2.017099 -1.624446 
Q -1.670044 -2.299557 -1.031666 -2.649145 
Q -0.39202 -3 0.375554 -3 
Q 1.246992 -3 1.839772 -2.556681 
Q 2.433819 -2.113363 2.668144 -1.310323 
L 1.91197 -1.131729 
Q 1.70931 -1.765041 1.325522 -2.053832 
Q 0.941735 -2.343889 0.360355 -2.343889 
Q -0.308423 -2.343889 -0.758075 -2.022166 
Q -1.207726 -1.70171 -1.39012 -1.160861 
Q -1.571248 -0.621279 -1.571248 -0.047498 
Q -1.571248 0.69221 -1.355921 1.244459 
Q -1.140595 1.796707 -0.685877 2.070298 
Q -0.229892 2.342622 0.300823 2.342622 
Q 0.945535 2.342622 1.392654 1.971501 
Q 1.841039 1.599113 1.999367 0.867004 
z
" style="stroke: #666666; stroke-width: 0.48"/>
     </defs>
     <g>
      <use xlink:href="#m5585af0c5f" x="240.1" y="67.171594" style="fill: #666666; stroke: #666666; stroke-width: 0.48"/>
     </g>
    </g>
    <g id="text_18">
     <!-- CNRM-CM6-1 -->
     <g style="fill: #666666" transform="translate(249.2 69.621594) scale(0.07 -0.07)">
      <defs>
       <path id="ArialMT-4e" d="M 488 0 
L 488 4581 
L 1109 4581 
L 3516 984 
L 3516 4581 
L 4097 4581 
L 4097 0 
L 3475 0 
L 1069 3600 
L 1069 0 
L 488 0 
z
" transform="scale(0.015625)"/>
      </defs>
      <use xlink:href="#ArialMT-43"/>
      <use xlink:href="#ArialMT-4e" x="72.216797"/>
      <use xlink:href="#ArialMT-52" x="144.433594"/>
      <use xlink:href="#ArialMT-4d" x="216.650391"/>
      <use xlink:href="#ArialMT-2d" x="299.951172"/>
      <use xlink:href="#ArialMT-43" x="333.251953"/>
      <use xlink:href="#ArialMT-4d" x="405.46875"/>
      <use xlink:href="#ArialMT-36" x="488.769531"/>
      <use xlink:href="#ArialMT-2d" x="544.384766"/>
      <use xlink:href="#ArialMT-31" x="577.685547"/>
     </g>
    </g>
    <g id="line2d_52">
     <defs>
      <path id="m9c0c27b59d" d="M -2.156516 3 
L -2.156516 -3 
L -0.089718 -3 
Q 0.609692 -3 0.979044 -2.914866 
Q 1.493779 -2.795678 1.857891 -2.485265 
Q 2.333333 -2.08317 2.56778 -1.458415 
Q 2.803536 -0.834971 2.803536 -0.033399 
Q 2.803536 0.650295 2.643746 1.178127 
Q 2.485265 1.705959 2.235102 2.053045 
Q 1.984938 2.398821 1.687623 2.597904 
Q 1.391618 2.795678 0.972495 2.897839 
Q 0.553373 3 0.008513 3 
L -2.156516 3 
z
M -1.362803 2.291421 
L -0.08186 2.291421 
Q 0.51146 2.291421 0.849378 2.181401 
Q 1.187295 2.071382 1.387688 1.869679 
Q 1.670596 1.588081 1.827767 1.111329 
Q 1.984938 0.634578 1.984938 -0.045187 
Q 1.984938 -0.986902 1.675835 -1.492469 
Q 1.366732 -1.998035 0.925344 -2.169614 
Q 0.605763 -2.292731 -0.101506 -2.292731 
L -1.362803 -2.292731 
L -1.362803 2.291421 
z
" style="stroke: #666666; stroke-width: 0.48"/>
     </defs>
     <g>
      <use xlink:href="#m9c0c27b59d" x="240.1" y="77.073313" style="fill: #666666; stroke: #666666; stroke-width: 0.48"/>
     </g>
    </g>
    <g id="text_19">
     <!-- CanESM5 -->
     <g style="fill: #666666" transform="translate(249.2 79.523313) scale(0.07 -0.07)">
      <use xlink:href="#ArialMT-43"/>
      <use xlink:href="#ArialMT-61" x="72.216797"/>
      <use xlink:href="#ArialMT-6e" x="127.832031"/>
      <use xlink:href="#ArialMT-45" x="183.447266"/>
      <use xlink:href="#ArialMT-53" x="250.146484"/>
      <use xlink:href="#ArialMT-4d" x="316.845703"/>
      <use xlink:href="#ArialMT-35" x="400.146484"/>
     </g>
    </g>
    <g id="line2d_53">
     <defs>
      <path id="mb352962c7e" d="M -1.907662 3 
L -1.907662 -3 
L 2.431565 -3 
L 2.431565 -2.292731 
L -1.112639 -2.292731 
L -1.112639 -0.455141 
L 2.206287 -0.455141 
L 2.206287 0.249509 
L -1.112639 0.249509 
L -1.112639 2.291421 
L 2.570399 2.291421 
L 2.570399 3 
L -1.907662 3 
z
" style="stroke: #666666; stroke-width: 0.48"/>
     </defs>
     <g>
      <use xlink:href="#mb352962c7e" x="240.1" y="86.975031" style="fill: #666666; stroke: #666666; stroke-width: 0.48"/>
     </g>
    </g>
    <g id="text_20">
     <!-- E3SM-1-0 -->
     <g style="fill: #666666" transform="translate(249.2 89.425031) scale(0.07 -0.07)">
      <use xlink:href="#ArialMT-45"/>
      <use xlink:href="#ArialMT-33" x="66.699219"/>
      <use xlink:href="#ArialMT-53" x="122.314453"/>
      <use xlink:href="#ArialMT-4d" x="189.013672"/>
      <use xlink:href="#ArialMT-2d" x="272.314453"/>
      <use xlink:href="#ArialMT-31" x="305.615234"/>
      <use xlink:href="#ArialMT-2d" x="361.230469"/>
      <use xlink:href="#ArialMT-30" x="394.53125"/>
     </g>
    </g>
    <g id="line2d_54">
     <defs>
      <path id="m952e5b91fa" d="M -1.680419 3 
L -1.680419 -3 
L 2.368042 -3 
L 2.368042 -2.292731 
L -0.886706 -2.292731 
L -0.886706 -0.434185 
L 1.929273 -0.434185 
L 1.929273 0.274394 
L -0.886706 0.274394 
L -0.886706 3 
L -1.680419 3 
z
" style="stroke: #666666; stroke-width: 0.48"/>
     </defs>
     <g>
      <use xlink:href="#m952e5b91fa" x="240.1" y="96.87675" style="fill: #666666; stroke: #666666; stroke-width: 0.48"/>
     </g>
    </g>
    <g id="text_21">
     <!-- GFDL-CM4 -->
     <g style="fill: #666666" transform="translate(249.2 99.32675) scale(0.07 -0.07)">
      <defs>
       <path id="ArialMT-47" d="M 2638 1797 
L 2638 2334 
L 4578 2338 
L 4578 638 
Q 4131 281 3656 101 
Q 3181 -78 2681 -78 
Q 2006 -78 1454 211 
Q 903 500 622 1047 
Q 341 1594 341 2269 
Q 341 2938 620 3517 
Q 900 4097 1425 4378 
Q 1950 4659 2634 4659 
Q 3131 4659 3532 4498 
Q 3934 4338 4162 4050 
Q 4391 3763 4509 3300 
L 3963 3150 
Q 3859 3500 3706 3700 
Q 3553 3900 3268 4020 
Q 2984 4141 2638 4141 
Q 2222 4141 1919 4014 
Q 1616 3888 1430 3681 
Q 1244 3475 1141 3228 
Q 966 2803 966 2306 
Q 966 1694 1177 1281 
Q 1388 869 1791 669 
Q 2194 469 2647 469 
Q 3041 469 3416 620 
Q 3791 772 3984 944 
L 3984 1797 
L 2638 1797 
z
" transform="scale(0.015625)"/>
       <path id="ArialMT-46" d="M 525 0 
L 525 4581 
L 3616 4581 
L 3616 4041 
L 1131 4041 
L 1131 2622 
L 3281 2622 
L 3281 2081 
L 1131 2081 
L 1131 0 
L 525 0 
z
" transform="scale(0.015625)"/>
       <path id="ArialMT-44" d="M 494 0 
L 494 4581 
L 2072 4581 
Q 2606 4581 2888 4516 
Q 3281 4425 3559 4188 
Q 3922 3881 4101 3404 
Q 4281 2928 4281 2316 
Q 4281 1794 4159 1391 
Q 4038 988 3847 723 
Q 3656 459 3429 307 
Q 3203 156 2883 78 
Q 2563 0 2147 0 
L 494 0 
z
M 1100 541 
L 2078 541 
Q 2531 541 2789 625 
Q 3047 709 3200 863 
Q 3416 1078 3536 1442 
Q 3656 1806 3656 2325 
Q 3656 3044 3420 3430 
Q 3184 3816 2847 3947 
Q 2603 4041 2063 4041 
L 1100 4041 
L 1100 541 
z
" transform="scale(0.015625)"/>
       <path id="ArialMT-4c" d="M 469 0 
L 469 4581 
L 1075 4581 
L 1075 541 
L 3331 541 
L 3331 0 
L 469 0 
z
" transform="scale(0.015625)"/>
      </defs>
      <use xlink:href="#ArialMT-47"/>
      <use xlink:href="#ArialMT-46" x="77.783203"/>
      <use xlink:href="#ArialMT-44" x="138.867188"/>
      <use xlink:href="#ArialMT-4c" x="211.083984"/>
      <use xlink:href="#ArialMT-2d" x="266.699219"/>
      <use xlink:href="#ArialMT-43" x="300"/>
      <use xlink:href="#ArialMT-4d" x="372.216797"/>
      <use xlink:href="#ArialMT-34" x="455.517578"/>
     </g>
    </g>
    <g id="line2d_55">
     <defs>
      <path id="mdc827c427f" d="M 0.442052 0.625079 
L 0.442052 -0.055098 
L 2.899303 -0.060165 
L 2.899303 2.093097 
Q 2.333122 2.545282 1.731476 2.773274 
Q 1.129829 3 0.496517 3 
Q -0.358455 3 -1.057631 2.633946 
Q -1.755541 2.267891 -2.111463 1.575047 
Q -2.467384 0.882204 -2.467384 0.027232 
Q -2.467384 -0.820139 -2.113996 -1.553515 
Q -1.759341 -2.288157 -1.094364 -2.644079 
Q -0.429386 -3 0.436985 -3 
Q 1.066498 -3 1.574414 -2.796073 
Q 2.083597 -2.593414 2.372388 -2.228626 
Q 2.662445 -1.865104 2.811906 -1.278657 
L 2.120329 -1.088664 
Q 1.9886 -1.531982 1.794807 -1.785307 
Q 1.601013 -2.038632 1.240025 -2.190627 
Q 0.880304 -2.343889 0.442052 -2.343889 
Q -0.084864 -2.343889 -0.468651 -2.183027 
Q -0.852438 -2.023433 -1.08803 -1.761241 
Q -1.323623 -1.500317 -1.454085 -1.18746 
Q -1.675744 -0.649145 -1.675744 -0.019633 
Q -1.675744 0.755541 -1.408486 1.278657 
Q -1.141229 1.800507 -0.630779 2.053832 
Q -0.120329 2.307156 0.453452 2.307156 
Q 0.952502 2.307156 1.427486 2.115896 
Q 1.90247 1.923369 2.146928 1.70551 
L 2.146928 0.625079 
L 0.442052 0.625079 
z
" style="stroke: #666666; stroke-width: 0.48"/>
     </defs>
     <g>
      <use xlink:href="#mdc827c427f" x="240.1" y="106.778469" style="fill: #666666; stroke: #666666; stroke-width: 0.48"/>
     </g>
    </g>
    <g id="text_22">
     <!-- GISS-E2-1-G -->
     <g style="fill: #666666" transform="translate(249.2 109.228469) scale(0.07 -0.07)">
      <defs>
       <path id="ArialMT-49" d="M 597 0 
L 597 4581 
L 1203 4581 
L 1203 0 
L 597 0 
z
" transform="scale(0.015625)"/>
      </defs>
      <use xlink:href="#ArialMT-47"/>
      <use xlink:href="#ArialMT-49" x="77.783203"/>
      <use xlink:href="#ArialMT-53" x="105.566406"/>
      <use xlink:href="#ArialMT-53" x="172.265625"/>
      <use xlink:href="#ArialMT-2d" x="238.964844"/>
      <use xlink:href="#ArialMT-45" x="272.265625"/>
      <use xlink:href="#ArialMT-32" x="338.964844"/>
      <use xlink:href="#ArialMT-2d" x="394.580078"/>
      <use xlink:href="#ArialMT-31" x="427.880859"/>
      <use xlink:href="#ArialMT-2d" x="483.496094"/>
      <use xlink:href="#ArialMT-47" x="516.796875"/>
     </g>
    </g>
    <g id="line2d_56">
     <defs>
      <path id="m2dc3b0d90a" d="M -2.017027 3 
L -2.017027 -3 
L -1.223314 -3 
L -1.223314 -0.536346 
L 1.895219 -0.536346 
L 1.895219 -3 
L 2.688933 -3 
L 2.688933 3 
L 1.895219 3 
L 1.895219 0.172233 
L -1.223314 0.172233 
L -1.223314 3 
L -2.017027 3 
z
" style="stroke: #666666; stroke-width: 0.48"/>
     </defs>
     <g>
      <use xlink:href="#m2dc3b0d90a" x="240.1" y="116.680187" style="fill: #666666; stroke: #666666; stroke-width: 0.48"/>
     </g>
    </g>
    <g id="text_23">
     <!-- HadGEM3-GC31-LL -->
     <g style="fill: #666666" transform="translate(249.2 119.130187) scale(0.07 -0.07)">
      <defs>
       <path id="ArialMT-48" d="M 513 0 
L 513 4581 
L 1119 4581 
L 1119 2700 
L 3500 2700 
L 3500 4581 
L 4106 4581 
L 4106 0 
L 3500 0 
L 3500 2159 
L 1119 2159 
L 1119 0 
L 513 0 
z
" transform="scale(0.015625)"/>
       <path id="ArialMT-64" d="M 2575 0 
L 2575 419 
Q 2259 -75 1647 -75 
Q 1250 -75 917 144 
Q 584 363 401 755 
Q 219 1147 219 1656 
Q 219 2153 384 2558 
Q 550 2963 881 3178 
Q 1213 3394 1622 3394 
Q 1922 3394 2156 3267 
Q 2391 3141 2538 2938 
L 2538 4581 
L 3097 4581 
L 3097 0 
L 2575 0 
z
M 797 1656 
Q 797 1019 1065 703 
Q 1334 388 1700 388 
Q 2069 388 2326 689 
Q 2584 991 2584 1609 
Q 2584 2291 2321 2609 
Q 2059 2928 1675 2928 
Q 1300 2928 1048 2622 
Q 797 2316 797 1656 
z
" transform="scale(0.015625)"/>
      </defs>
      <use xlink:href="#ArialMT-48"/>
      <use xlink:href="#ArialMT-61" x="72.216797"/>
      <use xlink:href="#ArialMT-64" x="127.832031"/>
      <use xlink:href="#ArialMT-47" x="183.447266"/>
      <use xlink:href="#ArialMT-45" x="261.230469"/>
      <use xlink:href="#ArialMT-4d" x="327.929688"/>
      <use xlink:href="#ArialMT-33" x="411.230469"/>
      <use xlink:href="#ArialMT-2d" x="466.845703"/>
      <use xlink:href="#ArialMT-47" x="500.146484"/>
      <use xlink:href="#ArialMT-43" x="577.929688"/>
      <use xlink:href="#ArialMT-33" x="650.146484"/>
      <use xlink:href="#ArialMT-31" x="705.761719"/>
      <use xlink:href="#ArialMT-2d" x="761.376953"/>
      <use xlink:href="#ArialMT-4c" x="794.677734"/>
      <use xlink:href="#ArialMT-4c" x="850.292969"/>
     </g>
    </g>
    <g id="line2d_57">
     <defs>
      <path id="mf780348056" d="M -0.005894 3 
L -0.005894 -3 
L 0.787819 -3 
L 0.787819 3 
L -0.005894 3 
z
" style="stroke: #666666; stroke-width: 0.48"/>
     </defs>
     <g>
      <use xlink:href="#mf780348056" x="240.1" y="126.581906" style="fill: #666666; stroke: #666666; stroke-width: 0.48"/>
     </g>
    </g>
    <g id="text_24">
     <!-- IPSL-CM6A-LR -->
     <g style="fill: #666666" transform="translate(249.2 129.031906) scale(0.07 -0.07)">
      <defs>
       <path id="ArialMT-41" d="M -9 0 
L 1750 4581 
L 2403 4581 
L 4278 0 
L 3588 0 
L 3053 1388 
L 1138 1388 
L 634 0 
L -9 0 
z
M 1313 1881 
L 2866 1881 
L 2388 3150 
Q 2169 3728 2063 4100 
Q 1975 3659 1816 3225 
L 1313 1881 
z
" transform="scale(0.015625)"/>
      </defs>
      <use xlink:href="#ArialMT-49"/>
      <use xlink:href="#ArialMT-50" x="27.783203"/>
      <use xlink:href="#ArialMT-53" x="94.482422"/>
      <use xlink:href="#ArialMT-4c" x="161.181641"/>
      <use xlink:href="#ArialMT-2d" x="216.796875"/>
      <use xlink:href="#ArialMT-43" x="250.097656"/>
      <use xlink:href="#ArialMT-4d" x="322.314453"/>
      <use xlink:href="#ArialMT-36" x="405.615234"/>
      <use xlink:href="#ArialMT-41" x="461.230469"/>
      <use xlink:href="#ArialMT-2d" x="527.929688"/>
      <use xlink:href="#ArialMT-4c" x="561.230469"/>
      <use xlink:href="#ArialMT-52" x="616.845703"/>
     </g>
    </g>
    <g id="line2d_58">
     <defs>
      <path id="m769d46c05d" d="M -1.503542 1.22537 
L -0.799099 1.128783 
Q -0.770766 1.804894 -0.545396 2.054733 
Q -0.320026 2.303284 0.079202 2.303284 
Q 0.372827 2.303284 0.585319 2.16935 
Q 0.799099 2.034127 0.878944 1.803606 
Q 0.960077 1.571797 0.960077 1.064392 
L 0.960077 -3 
L 1.740502 -3 
L 1.740502 1.020605 
Q 1.740502 1.761108 1.561494 2.168062 
Q 1.382486 2.573728 0.993561 2.787508 
Q 0.605924 3 0.083065 3 
Q -0.693496 3 -1.10689 2.553123 
Q -1.518995 2.106246 -1.503542 1.22537 
z
" style="stroke: #666666; stroke-width: 0.48"/>
     </defs>
     <g>
      <use xlink:href="#m769d46c05d" x="240.1" y="136.483625" style="fill: #666666; stroke: #666666; stroke-width: 0.48"/>
     </g>
    </g>
    <g id="text_25">
     <!-- MIROC6 -->
     <g style="fill: #666666" transform="translate(249.2 138.933625) scale(0.07 -0.07)">
      <use xlink:href="#ArialMT-4d"/>
      <use xlink:href="#ArialMT-49" x="83.300781"/>
      <use xlink:href="#ArialMT-52" x="111.083984"/>
      <use xlink:href="#ArialMT-4f" x="183.300781"/>
      <use xlink:href="#ArialMT-43" x="261.083984"/>
      <use xlink:href="#ArialMT-36" x="333.300781"/>
     </g>
    </g>
    <g id="line2d_59">
     <defs>
      <path id="m5381bd0466" d="M -2.172888 3 
L -2.172888 -3 
L -1.379175 -3 
L -1.379175 -0.024231 
L 1.600524 -3 
L 2.677145 -3 
L 0.15979 -0.56909 
L 2.787164 3 
L 1.739358 3 
L -0.396857 -0.037328 
L -1.379175 0.920105 
L -1.379175 3 
L -2.172888 3 
z
" style="stroke: #666666; stroke-width: 0.48"/>
     </defs>
     <g>
      <use xlink:href="#m5381bd0466" x="240.1" y="146.385344" style="fill: #666666; stroke: #666666; stroke-width: 0.48"/>
     </g>
    </g>
    <g id="text_26">
     <!-- MRI-ESM2-0 -->
     <g style="fill: #666666" transform="translate(249.2 148.835344) scale(0.07 -0.07)">
      <use xlink:href="#ArialMT-4d"/>
      <use xlink:href="#ArialMT-52" x="83.300781"/>
      <use xlink:href="#ArialMT-49" x="155.517578"/>
      <use xlink:href="#ArialMT-2d" x="183.300781"/>
      <use xlink:href="#ArialMT-45" x="216.601562"/>
      <use xlink:href="#ArialMT-53" x="283.300781"/>
      <use xlink:href="#ArialMT-4d" x="350"/>
      <use xlink:href="#ArialMT-32" x="433.300781"/>
      <use xlink:href="#ArialMT-2d" x="488.916016"/>
      <use xlink:href="#ArialMT-30" x="522.216797"/>
     </g>
    </g>
    <g id="line2d_60">
     <defs>
      <path id="m865232f550" d="M -1.567125 3 
L -1.567125 -3 
L -0.773412 -3 
L -0.773412 2.291421 
L 2.181401 2.291421 
L 2.181401 3 
L -1.567125 3 
z
" style="stroke: #666666; stroke-width: 0.48"/>
     </defs>
     <g>
      <use xlink:href="#m865232f550" x="240.1" y="156.287062" style="fill: #666666; stroke: #666666; stroke-width: 0.48"/>
     </g>
    </g>
    <g id="text_27">
     <!-- NorESM2-LM -->
     <g style="fill: #666666" transform="translate(249.2 158.737062) scale(0.07 -0.07)">
      <use xlink:href="#ArialMT-4e"/>
      <use xlink:href="#ArialMT-6f" x="72.216797"/>
      <use xlink:href="#ArialMT-72" x="127.832031"/>
      <use xlink:href="#ArialMT-45" x="161.132812"/>
      <use xlink:href="#ArialMT-53" x="227.832031"/>
      <use xlink:href="#ArialMT-4d" x="294.53125"/>
      <use xlink:href="#ArialMT-32" x="377.832031"/>
      <use xlink:href="#ArialMT-2d" x="433.447266"/>
      <use xlink:href="#ArialMT-4c" x="466.748047"/>
      <use xlink:href="#ArialMT-4d" x="522.363281"/>
     </g>
    </g>
   </g>
  </g>
 </g>
 <defs>
  <clipPath id="pbb4a5d321b">
   <rect x="52.14" y="11.52" width="178.16" height="181.896"/>
  </clipPath>
 </defs>
</svg>
