<?xml version="1.0" encoding="utf-8" standalone="no"?>
<!DOCTYPE svg PUBLIC "-//W3C//DTD SVG 1.1//EN"
  "http://www.w3.org/Graphics/SVG/1.1/DTD/svg11.dtd">
<svg xmlns:xlink="http://www.w3.org/1999/xlink" width="324pt" height="216pt" viewBox="0 0 324 216" xmlns="http://www.w3.org/2000/svg" version="1.1">
 <metadata>
  <rdf:RDF xmlns:dc="http://purl.org/dc/elements/1.1/" xmlns:cc="http://creativecommons.org/ns#" xmlns:rdf="http://www.w3.org/1999/02/22-rdf-syntax-ns#">
   <cc:Work>
    <dc:type rdf:resource="http://purl.org/dc/dcmitype/StillImage"/>
    <dc:date>2024-08-14T16:12:33.774461</dc:date>
    <dc:format>image/svg+xml</dc:format>
    <dc:creator>
     <cc:Agent>
      <dc:title>Matplotlib v3.7.1, https://matplotlib.org/</dc:title>
     </cc:Agent>
    </dc:creator>
   </cc:Work>
  </rdf:RDF>
 </metadata>
 <defs>
  <style type="text/css">*{stroke-linejoin: round; stroke-linecap: butt}</style>
 </defs>
 <g id="figure_1">
  <g id="patch_1">
   <path d="M 0 216 
L 324 216 
L 324 0 
L 0 0 
z
" style="fill: #ffffff"/>
  </g>
  <g id="axes_1">
   <g id="patch_2">
    <path d="M 43.4475 185.46 
L 308.7 185.46 
L 308.7 11.52 
L 43.4475 11.52 
z
" style="fill: #ffffff"/>
   </g>
   <g id="matplotlib.axis_1">
    <g id="xtick_1">
     <g id="line2d_1">
      <path d="M 43.4475 185.46 
L 43.4475 11.52 
" clip-path="url(#p59d44379db)" style="fill: none; stroke-dasharray: 0.8,1.32; stroke-dashoffset: 0; stroke: #b0b0b0; stroke-width: 0.8"/>
     </g>
     <g id="line2d_2">
      <defs>
       <path id="ma84c7e44d8" d="M 0 0 
L 0 -3.5 
" style="stroke: #666666; stroke-width: 0.8"/>
      </defs>
      <g>
       <use xlink:href="#ma84c7e44d8" x="43.4475" y="185.46" style="fill: #666666; stroke: #666666; stroke-width: 0.8"/>
      </g>
     </g>
     <g id="text_1">
      <!-- 0 -->
      <g style="fill: #666666" transform="translate(41.223125 194.68625) scale(0.08 -0.08)">
       <defs>
        <path id="ArialMT-30" d="M 266 2259 
Q 266 3072 433 3567 
Q 600 4063 929 4331 
Q 1259 4600 1759 4600 
Q 2128 4600 2406 4451 
Q 2684 4303 2865 4023 
Q 3047 3744 3150 3342 
Q 3253 2941 3253 2259 
Q 3253 1453 3087 958 
Q 2922 463 2592 192 
Q 2263 -78 1759 -78 
Q 1097 -78 719 397 
Q 266 969 266 2259 
z
M 844 2259 
Q 844 1131 1108 757 
Q 1372 384 1759 384 
Q 2147 384 2411 759 
Q 2675 1134 2675 2259 
Q 2675 3391 2411 3762 
Q 2147 4134 1753 4134 
Q 1366 4134 1134 3806 
Q 844 3388 844 2259 
z
" transform="scale(0.015625)"/>
       </defs>
       <use xlink:href="#ArialMT-30"/>
      </g>
     </g>
    </g>
    <g id="xtick_2">
     <g id="line2d_3">
      <path d="M 131.865 185.46 
L 131.865 11.52 
" clip-path="url(#p59d44379db)" style="fill: none; stroke-dasharray: 0.8,1.32; stroke-dashoffset: 0; stroke: #b0b0b0; stroke-width: 0.8"/>
     </g>
     <g id="line2d_4">
      <g>
       <use xlink:href="#ma84c7e44d8" x="131.865" y="185.46" style="fill: #666666; stroke: #666666; stroke-width: 0.8"/>
      </g>
     </g>
     <g id="text_2">
      <!-- 50 -->
      <g style="fill: #666666" transform="translate(127.41625 194.68625) scale(0.08 -0.08)">
       <defs>
        <path id="ArialMT-35" d="M 266 1200 
L 856 1250 
Q 922 819 1161 601 
Q 1400 384 1738 384 
Q 2144 384 2425 690 
Q 2706 997 2706 1503 
Q 2706 1984 2436 2262 
Q 2166 2541 1728 2541 
Q 1456 2541 1237 2417 
Q 1019 2294 894 2097 
L 366 2166 
L 809 4519 
L 3088 4519 
L 3088 3981 
L 1259 3981 
L 1013 2750 
Q 1425 3038 1878 3038 
Q 2478 3038 2890 2622 
Q 3303 2206 3303 1553 
Q 3303 931 2941 478 
Q 2500 -78 1738 -78 
Q 1113 -78 717 272 
Q 322 622 266 1200 
z
" transform="scale(0.015625)"/>
       </defs>
       <use xlink:href="#ArialMT-35"/>
       <use xlink:href="#ArialMT-30" x="55.615234"/>
      </g>
     </g>
    </g>
    <g id="xtick_3">
     <g id="line2d_5">
      <path d="M 220.2825 185.46 
L 220.2825 11.52 
" clip-path="url(#p59d44379db)" style="fill: none; stroke-dasharray: 0.8,1.32; stroke-dashoffset: 0; stroke: #b0b0b0; stroke-width: 0.8"/>
     </g>
     <g id="line2d_6">
      <g>
       <use xlink:href="#ma84c7e44d8" x="220.2825" y="185.46" style="fill: #666666; stroke: #666666; stroke-width: 0.8"/>
      </g>
     </g>
     <g id="text_3">
      <!-- 100 -->
      <g style="fill: #666666" transform="translate(213.609375 194.68625) scale(0.08 -0.08)">
       <defs>
        <path id="ArialMT-31" d="M 2384 0 
L 1822 0 
L 1822 3584 
Q 1619 3391 1289 3197 
Q 959 3003 697 2906 
L 697 3450 
Q 1169 3672 1522 3987 
Q 1875 4303 2022 4600 
L 2384 4600 
L 2384 0 
z
" transform="scale(0.015625)"/>
       </defs>
       <use xlink:href="#ArialMT-31"/>
       <use xlink:href="#ArialMT-30" x="55.615234"/>
       <use xlink:href="#ArialMT-30" x="111.230469"/>
      </g>
     </g>
    </g>
    <g id="xtick_4">
     <g id="line2d_7">
      <path d="M 308.7 185.46 
L 308.7 11.52 
" clip-path="url(#p59d44379db)" style="fill: none; stroke-dasharray: 0.8,1.32; stroke-dashoffset: 0; stroke: #b0b0b0; stroke-width: 0.8"/>
     </g>
     <g id="line2d_8">
      <g>
       <use xlink:href="#ma84c7e44d8" x="308.7" y="185.46" style="fill: #666666; stroke: #666666; stroke-width: 0.8"/>
      </g>
     </g>
     <g id="text_4">
      <!-- 150 -->
      <g style="fill: #666666" transform="translate(302.026875 194.68625) scale(0.08 -0.08)">
       <use xlink:href="#ArialMT-31"/>
       <use xlink:href="#ArialMT-35" x="55.615234"/>
       <use xlink:href="#ArialMT-30" x="111.230469"/>
      </g>
     </g>
    </g>
    <g id="xtick_5">
     <g id="line2d_9">
      <defs>
       <path id="mcc4483efcd" d="M 0 0 
L 0 -2 
" style="stroke: #666666; stroke-width: 0.6"/>
      </defs>
      <g>
       <use xlink:href="#mcc4483efcd" x="61.131" y="185.46" style="fill: #666666; stroke: #666666; stroke-width: 0.6"/>
      </g>
     </g>
    </g>
    <g id="xtick_6">
     <g id="line2d_10">
      <g>
       <use xlink:href="#mcc4483efcd" x="78.8145" y="185.46" style="fill: #666666; stroke: #666666; stroke-width: 0.6"/>
      </g>
     </g>
    </g>
    <g id="xtick_7">
     <g id="line2d_11">
      <g>
       <use xlink:href="#mcc4483efcd" x="96.498" y="185.46" style="fill: #666666; stroke: #666666; stroke-width: 0.6"/>
      </g>
     </g>
    </g>
    <g id="xtick_8">
     <g id="line2d_12">
      <g>
       <use xlink:href="#mcc4483efcd" x="114.1815" y="185.46" style="fill: #666666; stroke: #666666; stroke-width: 0.6"/>
      </g>
     </g>
    </g>
    <g id="xtick_9">
     <g id="line2d_13">
      <g>
       <use xlink:href="#mcc4483efcd" x="149.5485" y="185.46" style="fill: #666666; stroke: #666666; stroke-width: 0.6"/>
      </g>
     </g>
    </g>
    <g id="xtick_10">
     <g id="line2d_14">
      <g>
       <use xlink:href="#mcc4483efcd" x="167.232" y="185.46" style="fill: #666666; stroke: #666666; stroke-width: 0.6"/>
      </g>
     </g>
    </g>
    <g id="xtick_11">
     <g id="line2d_15">
      <g>
       <use xlink:href="#mcc4483efcd" x="184.9155" y="185.46" style="fill: #666666; stroke: #666666; stroke-width: 0.6"/>
      </g>
     </g>
    </g>
    <g id="xtick_12">
     <g id="line2d_16">
      <g>
       <use xlink:href="#mcc4483efcd" x="202.599" y="185.46" style="fill: #666666; stroke: #666666; stroke-width: 0.6"/>
      </g>
     </g>
    </g>
    <g id="xtick_13">
     <g id="line2d_17">
      <g>
       <use xlink:href="#mcc4483efcd" x="237.966" y="185.46" style="fill: #666666; stroke: #666666; stroke-width: 0.6"/>
      </g>
     </g>
    </g>
    <g id="xtick_14">
     <g id="line2d_18">
      <g>
       <use xlink:href="#mcc4483efcd" x="255.6495" y="185.46" style="fill: #666666; stroke: #666666; stroke-width: 0.6"/>
      </g>
     </g>
    </g>
    <g id="xtick_15">
     <g id="line2d_19">
      <g>
       <use xlink:href="#mcc4483efcd" x="273.333" y="185.46" style="fill: #666666; stroke: #666666; stroke-width: 0.6"/>
      </g>
     </g>
    </g>
    <g id="xtick_16">
     <g id="line2d_20">
      <g>
       <use xlink:href="#mcc4483efcd" x="291.0165" y="185.46" style="fill: #666666; stroke: #666666; stroke-width: 0.6"/>
      </g>
     </g>
    </g>
    <g id="text_5">
     <!-- Time (years) -->
     <g style="fill: #666666" transform="translate(153.78 206.1) scale(0.08 -0.08)">
      <defs>
       <path id="ArialMT-54" d="M 1659 0 
L 1659 4041 
L 150 4041 
L 150 4581 
L 3781 4581 
L 3781 4041 
L 2266 4041 
L 2266 0 
L 1659 0 
z
" transform="scale(0.015625)"/>
       <path id="ArialMT-69" d="M 425 3934 
L 425 4581 
L 988 4581 
L 988 3934 
L 425 3934 
z
M 425 0 
L 425 3319 
L 988 3319 
L 988 0 
L 425 0 
z
" transform="scale(0.015625)"/>
       <path id="ArialMT-6d" d="M 422 0 
L 422 3319 
L 925 3319 
L 925 2853 
Q 1081 3097 1340 3245 
Q 1600 3394 1931 3394 
Q 2300 3394 2536 3241 
Q 2772 3088 2869 2813 
Q 3263 3394 3894 3394 
Q 4388 3394 4653 3120 
Q 4919 2847 4919 2278 
L 4919 0 
L 4359 0 
L 4359 2091 
Q 4359 2428 4304 2576 
Q 4250 2725 4106 2815 
Q 3963 2906 3769 2906 
Q 3419 2906 3187 2673 
Q 2956 2441 2956 1928 
L 2956 0 
L 2394 0 
L 2394 2156 
Q 2394 2531 2256 2718 
Q 2119 2906 1806 2906 
Q 1569 2906 1367 2781 
Q 1166 2656 1075 2415 
Q 984 2175 984 1722 
L 984 0 
L 422 0 
z
" transform="scale(0.015625)"/>
       <path id="ArialMT-65" d="M 2694 1069 
L 3275 997 
Q 3138 488 2766 206 
Q 2394 -75 1816 -75 
Q 1088 -75 661 373 
Q 234 822 234 1631 
Q 234 2469 665 2931 
Q 1097 3394 1784 3394 
Q 2450 3394 2872 2941 
Q 3294 2488 3294 1666 
Q 3294 1616 3291 1516 
L 816 1516 
Q 847 969 1125 678 
Q 1403 388 1819 388 
Q 2128 388 2347 550 
Q 2566 713 2694 1069 
z
M 847 1978 
L 2700 1978 
Q 2663 2397 2488 2606 
Q 2219 2931 1791 2931 
Q 1403 2931 1139 2672 
Q 875 2413 847 1978 
z
" transform="scale(0.015625)"/>
       <path id="ArialMT-20" transform="scale(0.015625)"/>
       <path id="ArialMT-28" d="M 1497 -1347 
Q 1031 -759 709 28 
Q 388 816 388 1659 
Q 388 2403 628 3084 
Q 909 3875 1497 4659 
L 1900 4659 
Q 1522 4009 1400 3731 
Q 1209 3300 1100 2831 
Q 966 2247 966 1656 
Q 966 153 1900 -1347 
L 1497 -1347 
z
" transform="scale(0.015625)"/>
       <path id="ArialMT-79" d="M 397 -1278 
L 334 -750 
Q 519 -800 656 -800 
Q 844 -800 956 -737 
Q 1069 -675 1141 -563 
Q 1194 -478 1313 -144 
Q 1328 -97 1363 -6 
L 103 3319 
L 709 3319 
L 1400 1397 
Q 1534 1031 1641 628 
Q 1738 1016 1872 1384 
L 2581 3319 
L 3144 3319 
L 1881 -56 
Q 1678 -603 1566 -809 
Q 1416 -1088 1222 -1217 
Q 1028 -1347 759 -1347 
Q 597 -1347 397 -1278 
z
" transform="scale(0.015625)"/>
       <path id="ArialMT-61" d="M 2588 409 
Q 2275 144 1986 34 
Q 1697 -75 1366 -75 
Q 819 -75 525 192 
Q 231 459 231 875 
Q 231 1119 342 1320 
Q 453 1522 633 1644 
Q 813 1766 1038 1828 
Q 1203 1872 1538 1913 
Q 2219 1994 2541 2106 
Q 2544 2222 2544 2253 
Q 2544 2597 2384 2738 
Q 2169 2928 1744 2928 
Q 1347 2928 1158 2789 
Q 969 2650 878 2297 
L 328 2372 
Q 403 2725 575 2942 
Q 747 3159 1072 3276 
Q 1397 3394 1825 3394 
Q 2250 3394 2515 3294 
Q 2781 3194 2906 3042 
Q 3031 2891 3081 2659 
Q 3109 2516 3109 2141 
L 3109 1391 
Q 3109 606 3145 398 
Q 3181 191 3288 0 
L 2700 0 
Q 2613 175 2588 409 
z
M 2541 1666 
Q 2234 1541 1622 1453 
Q 1275 1403 1131 1340 
Q 988 1278 909 1158 
Q 831 1038 831 891 
Q 831 666 1001 516 
Q 1172 366 1500 366 
Q 1825 366 2078 508 
Q 2331 650 2450 897 
Q 2541 1088 2541 1459 
L 2541 1666 
z
" transform="scale(0.015625)"/>
       <path id="ArialMT-72" d="M 416 0 
L 416 3319 
L 922 3319 
L 922 2816 
Q 1116 3169 1280 3281 
Q 1444 3394 1641 3394 
Q 1925 3394 2219 3213 
L 2025 2691 
Q 1819 2813 1613 2813 
Q 1428 2813 1281 2702 
Q 1134 2591 1072 2394 
Q 978 2094 978 1738 
L 978 0 
L 416 0 
z
" transform="scale(0.015625)"/>
       <path id="ArialMT-73" d="M 197 991 
L 753 1078 
Q 800 744 1014 566 
Q 1228 388 1613 388 
Q 2000 388 2187 545 
Q 2375 703 2375 916 
Q 2375 1106 2209 1216 
Q 2094 1291 1634 1406 
Q 1016 1563 777 1677 
Q 538 1791 414 1992 
Q 291 2194 291 2438 
Q 291 2659 392 2848 
Q 494 3038 669 3163 
Q 800 3259 1026 3326 
Q 1253 3394 1513 3394 
Q 1903 3394 2198 3281 
Q 2494 3169 2634 2976 
Q 2775 2784 2828 2463 
L 2278 2388 
Q 2241 2644 2061 2787 
Q 1881 2931 1553 2931 
Q 1166 2931 1000 2803 
Q 834 2675 834 2503 
Q 834 2394 903 2306 
Q 972 2216 1119 2156 
Q 1203 2125 1616 2013 
Q 2213 1853 2448 1751 
Q 2684 1650 2818 1456 
Q 2953 1263 2953 975 
Q 2953 694 2789 445 
Q 2625 197 2315 61 
Q 2006 -75 1616 -75 
Q 969 -75 630 194 
Q 291 463 197 991 
z
" transform="scale(0.015625)"/>
       <path id="ArialMT-29" d="M 791 -1347 
L 388 -1347 
Q 1322 153 1322 1656 
Q 1322 2244 1188 2822 
Q 1081 3291 891 3722 
Q 769 4003 388 4659 
L 791 4659 
Q 1378 3875 1659 3084 
Q 1900 2403 1900 1659 
Q 1900 816 1576 28 
Q 1253 -759 791 -1347 
z
" transform="scale(0.015625)"/>
      </defs>
      <use xlink:href="#ArialMT-54"/>
      <use xlink:href="#ArialMT-69" x="57.333984"/>
      <use xlink:href="#ArialMT-6d" x="79.550781"/>
      <use xlink:href="#ArialMT-65" x="162.851562"/>
      <use xlink:href="#ArialMT-20" x="218.466797"/>
      <use xlink:href="#ArialMT-28" x="246.25"/>
      <use xlink:href="#ArialMT-79" x="279.550781"/>
      <use xlink:href="#ArialMT-65" x="329.550781"/>
      <use xlink:href="#ArialMT-61" x="385.166016"/>
      <use xlink:href="#ArialMT-72" x="440.78125"/>
      <use xlink:href="#ArialMT-73" x="474.082031"/>
      <use xlink:href="#ArialMT-29" x="524.082031"/>
     </g>
    </g>
   </g>
   <g id="matplotlib.axis_2">
    <g id="ytick_1">
     <g id="line2d_21">
      <path d="M 43.4475 185.46 
L 308.7 185.46 
" clip-path="url(#p59d44379db)" style="fill: none; stroke-dasharray: 0.8,1.32; stroke-dashoffset: 0; stroke: #b0b0b0; stroke-width: 0.8"/>
     </g>
     <g id="line2d_22">
      <defs>
       <path id="m059cd424ea" d="M 0 0 
L 3.5 0 
" style="stroke: #666666; stroke-width: 0.8"/>
      </defs>
      <g>
       <use xlink:href="#m059cd424ea" x="43.4475" y="185.46" style="fill: #666666; stroke: #666666; stroke-width: 0.8"/>
      </g>
     </g>
     <g id="text_6">
      <!-- −0.6 -->
      <g style="fill: #666666" transform="translate(24.155 188.323125) scale(0.08 -0.08)">
       <defs>
        <path id="ArialMT-2212" d="M 3381 1997 
L 356 1997 
L 356 2522 
L 3381 2522 
L 3381 1997 
z
" transform="scale(0.015625)"/>
        <path id="ArialMT-2e" d="M 581 0 
L 581 641 
L 1222 641 
L 1222 0 
L 581 0 
z
" transform="scale(0.015625)"/>
        <path id="ArialMT-36" d="M 3184 3459 
L 2625 3416 
Q 2550 3747 2413 3897 
Q 2184 4138 1850 4138 
Q 1581 4138 1378 3988 
Q 1113 3794 959 3422 
Q 806 3050 800 2363 
Q 1003 2672 1297 2822 
Q 1591 2972 1913 2972 
Q 2475 2972 2870 2558 
Q 3266 2144 3266 1488 
Q 3266 1056 3080 686 
Q 2894 316 2569 119 
Q 2244 -78 1831 -78 
Q 1128 -78 684 439 
Q 241 956 241 2144 
Q 241 3472 731 4075 
Q 1159 4600 1884 4600 
Q 2425 4600 2770 4297 
Q 3116 3994 3184 3459 
z
M 888 1484 
Q 888 1194 1011 928 
Q 1134 663 1356 523 
Q 1578 384 1822 384 
Q 2178 384 2434 671 
Q 2691 959 2691 1453 
Q 2691 1928 2437 2201 
Q 2184 2475 1800 2475 
Q 1419 2475 1153 2201 
Q 888 1928 888 1484 
z
" transform="scale(0.015625)"/>
       </defs>
       <use xlink:href="#ArialMT-2212"/>
       <use xlink:href="#ArialMT-30" x="58.398438"/>
       <use xlink:href="#ArialMT-2e" x="114.013672"/>
       <use xlink:href="#ArialMT-36" x="141.796875"/>
      </g>
     </g>
    </g>
    <g id="ytick_2">
     <g id="line2d_23">
      <path d="M 43.4475 141.975 
L 308.7 141.975 
" clip-path="url(#p59d44379db)" style="fill: none; stroke-dasharray: 0.8,1.32; stroke-dashoffset: 0; stroke: #b0b0b0; stroke-width: 0.8"/>
     </g>
     <g id="line2d_24">
      <g>
       <use xlink:href="#m059cd424ea" x="43.4475" y="141.975" style="fill: #666666; stroke: #666666; stroke-width: 0.8"/>
      </g>
     </g>
     <g id="text_7">
      <!-- −0.3 -->
      <g style="fill: #666666" transform="translate(24.155 144.838125) scale(0.08 -0.08)">
       <defs>
        <path id="ArialMT-33" d="M 269 1209 
L 831 1284 
Q 928 806 1161 595 
Q 1394 384 1728 384 
Q 2125 384 2398 659 
Q 2672 934 2672 1341 
Q 2672 1728 2419 1979 
Q 2166 2231 1775 2231 
Q 1616 2231 1378 2169 
L 1441 2663 
Q 1497 2656 1531 2656 
Q 1891 2656 2178 2843 
Q 2466 3031 2466 3422 
Q 2466 3731 2256 3934 
Q 2047 4138 1716 4138 
Q 1388 4138 1169 3931 
Q 950 3725 888 3313 
L 325 3413 
Q 428 3978 793 4289 
Q 1159 4600 1703 4600 
Q 2078 4600 2393 4439 
Q 2709 4278 2876 4000 
Q 3044 3722 3044 3409 
Q 3044 3113 2884 2869 
Q 2725 2625 2413 2481 
Q 2819 2388 3044 2092 
Q 3269 1797 3269 1353 
Q 3269 753 2831 336 
Q 2394 -81 1725 -81 
Q 1122 -81 723 278 
Q 325 638 269 1209 
z
" transform="scale(0.015625)"/>
       </defs>
       <use xlink:href="#ArialMT-2212"/>
       <use xlink:href="#ArialMT-30" x="58.398438"/>
       <use xlink:href="#ArialMT-2e" x="114.013672"/>
       <use xlink:href="#ArialMT-33" x="141.796875"/>
      </g>
     </g>
    </g>
    <g id="ytick_3">
     <g id="line2d_25">
      <path d="M 43.4475 98.49 
L 308.7 98.49 
" clip-path="url(#p59d44379db)" style="fill: none; stroke-dasharray: 0.8,1.32; stroke-dashoffset: 0; stroke: #b0b0b0; stroke-width: 0.8"/>
     </g>
     <g id="line2d_26">
      <g>
       <use xlink:href="#m059cd424ea" x="43.4475" y="98.49" style="fill: #666666; stroke: #666666; stroke-width: 0.8"/>
      </g>
     </g>
     <g id="text_8">
      <!-- 0.0 -->
      <g style="fill: #666666" transform="translate(28.8275 101.353125) scale(0.08 -0.08)">
       <use xlink:href="#ArialMT-30"/>
       <use xlink:href="#ArialMT-2e" x="55.615234"/>
       <use xlink:href="#ArialMT-30" x="83.398438"/>
      </g>
     </g>
    </g>
    <g id="ytick_4">
     <g id="line2d_27">
      <path d="M 43.4475 55.005 
L 308.7 55.005 
" clip-path="url(#p59d44379db)" style="fill: none; stroke-dasharray: 0.8,1.32; stroke-dashoffset: 0; stroke: #b0b0b0; stroke-width: 0.8"/>
     </g>
     <g id="line2d_28">
      <g>
       <use xlink:href="#m059cd424ea" x="43.4475" y="55.005" style="fill: #666666; stroke: #666666; stroke-width: 0.8"/>
      </g>
     </g>
     <g id="text_9">
      <!-- 0.3 -->
      <g style="fill: #666666" transform="translate(28.8275 57.868125) scale(0.08 -0.08)">
       <use xlink:href="#ArialMT-30"/>
       <use xlink:href="#ArialMT-2e" x="55.615234"/>
       <use xlink:href="#ArialMT-33" x="83.398438"/>
      </g>
     </g>
    </g>
    <g id="ytick_5">
     <g id="line2d_29">
      <path d="M 43.4475 11.52 
L 308.7 11.52 
" clip-path="url(#p59d44379db)" style="fill: none; stroke-dasharray: 0.8,1.32; stroke-dashoffset: 0; stroke: #b0b0b0; stroke-width: 0.8"/>
     </g>
     <g id="line2d_30">
      <g>
       <use xlink:href="#m059cd424ea" x="43.4475" y="11.52" style="fill: #666666; stroke: #666666; stroke-width: 0.8"/>
      </g>
     </g>
     <g id="text_10">
      <!-- 0.6 -->
      <g style="fill: #666666" transform="translate(28.8275 14.383125) scale(0.08 -0.08)">
       <use xlink:href="#ArialMT-30"/>
       <use xlink:href="#ArialMT-2e" x="55.615234"/>
       <use xlink:href="#ArialMT-36" x="83.398438"/>
      </g>
     </g>
    </g>
    <g id="ytick_6">
     <g id="line2d_31">
      <defs>
       <path id="mac081c235f" d="M 0 0 
L 2 0 
" style="stroke: #666666; stroke-width: 0.6"/>
      </defs>
      <g>
       <use xlink:href="#mac081c235f" x="43.4475" y="170.965" style="fill: #666666; stroke: #666666; stroke-width: 0.6"/>
      </g>
     </g>
    </g>
    <g id="ytick_7">
     <g id="line2d_32">
      <g>
       <use xlink:href="#mac081c235f" x="43.4475" y="156.47" style="fill: #666666; stroke: #666666; stroke-width: 0.6"/>
      </g>
     </g>
    </g>
    <g id="ytick_8">
     <g id="line2d_33">
      <g>
       <use xlink:href="#mac081c235f" x="43.4475" y="127.48" style="fill: #666666; stroke: #666666; stroke-width: 0.6"/>
      </g>
     </g>
    </g>
    <g id="ytick_9">
     <g id="line2d_34">
      <g>
       <use xlink:href="#mac081c235f" x="43.4475" y="112.985" style="fill: #666666; stroke: #666666; stroke-width: 0.6"/>
      </g>
     </g>
    </g>
    <g id="ytick_10">
     <g id="line2d_35">
      <g>
       <use xlink:href="#mac081c235f" x="43.4475" y="83.995" style="fill: #666666; stroke: #666666; stroke-width: 0.6"/>
      </g>
     </g>
    </g>
    <g id="ytick_11">
     <g id="line2d_36">
      <g>
       <use xlink:href="#mac081c235f" x="43.4475" y="69.5" style="fill: #666666; stroke: #666666; stroke-width: 0.6"/>
      </g>
     </g>
    </g>
    <g id="ytick_12">
     <g id="line2d_37">
      <g>
       <use xlink:href="#mac081c235f" x="43.4475" y="40.51" style="fill: #666666; stroke: #666666; stroke-width: 0.6"/>
      </g>
     </g>
    </g>
    <g id="ytick_13">
     <g id="line2d_38">
      <g>
       <use xlink:href="#mac081c235f" x="43.4475" y="26.015" style="fill: #666666; stroke: #666666; stroke-width: 0.6"/>
      </g>
     </g>
    </g>
    <g id="text_11">
     <!-- Pattern effect $\left(Wm^{-2}\right)$ -->
     <g style="fill: #666666" transform="translate(18.565 137.65) rotate(-90) scale(0.08 -0.08)">
      <defs>
       <path id="ArialMT-50" d="M 494 0 
L 494 4581 
L 2222 4581 
Q 2678 4581 2919 4538 
Q 3256 4481 3484 4323 
Q 3713 4166 3852 3881 
Q 3991 3597 3991 3256 
Q 3991 2672 3619 2267 
Q 3247 1863 2275 1863 
L 1100 1863 
L 1100 0 
L 494 0 
z
M 1100 2403 
L 2284 2403 
Q 2872 2403 3119 2622 
Q 3366 2841 3366 3238 
Q 3366 3525 3220 3729 
Q 3075 3934 2838 4000 
Q 2684 4041 2272 4041 
L 1100 4041 
L 1100 2403 
z
" transform="scale(0.015625)"/>
       <path id="ArialMT-74" d="M 1650 503 
L 1731 6 
Q 1494 -44 1306 -44 
Q 1000 -44 831 53 
Q 663 150 594 308 
Q 525 466 525 972 
L 525 2881 
L 113 2881 
L 113 3319 
L 525 3319 
L 525 4141 
L 1084 4478 
L 1084 3319 
L 1650 3319 
L 1650 2881 
L 1084 2881 
L 1084 941 
Q 1084 700 1114 631 
Q 1144 563 1211 522 
Q 1278 481 1403 481 
Q 1497 481 1650 503 
z
" transform="scale(0.015625)"/>
       <path id="ArialMT-6e" d="M 422 0 
L 422 3319 
L 928 3319 
L 928 2847 
Q 1294 3394 1984 3394 
Q 2284 3394 2536 3286 
Q 2788 3178 2913 3003 
Q 3038 2828 3088 2588 
Q 3119 2431 3119 2041 
L 3119 0 
L 2556 0 
L 2556 2019 
Q 2556 2363 2490 2533 
Q 2425 2703 2258 2804 
Q 2091 2906 1866 2906 
Q 1506 2906 1245 2678 
Q 984 2450 984 1813 
L 984 0 
L 422 0 
z
" transform="scale(0.015625)"/>
       <path id="ArialMT-66" d="M 556 0 
L 556 2881 
L 59 2881 
L 59 3319 
L 556 3319 
L 556 3672 
Q 556 4006 616 4169 
Q 697 4388 901 4523 
Q 1106 4659 1475 4659 
Q 1713 4659 2000 4603 
L 1916 4113 
Q 1741 4144 1584 4144 
Q 1328 4144 1222 4034 
Q 1116 3925 1116 3625 
L 1116 3319 
L 1763 3319 
L 1763 2881 
L 1116 2881 
L 1116 0 
L 556 0 
z
" transform="scale(0.015625)"/>
       <path id="ArialMT-63" d="M 2588 1216 
L 3141 1144 
Q 3050 572 2676 248 
Q 2303 -75 1759 -75 
Q 1078 -75 664 370 
Q 250 816 250 1647 
Q 250 2184 428 2587 
Q 606 2991 970 3192 
Q 1334 3394 1763 3394 
Q 2303 3394 2647 3120 
Q 2991 2847 3088 2344 
L 2541 2259 
Q 2463 2594 2264 2762 
Q 2066 2931 1784 2931 
Q 1359 2931 1093 2626 
Q 828 2322 828 1663 
Q 828 994 1084 691 
Q 1341 388 1753 388 
Q 2084 388 2306 591 
Q 2528 794 2588 1216 
z
" transform="scale(0.015625)"/>
       <path id="STIXSizeOneSym-Regular-28" d="M 2445 -858 
L 2445 -1050 
Q 1728 -371 1309 630 
Q 890 1632 890 2886 
Q 890 4122 1309 5136 
Q 1728 6150 2445 6822 
L 2445 6630 
Q 1408 5363 1408 2886 
Q 1408 410 2445 -858 
z
" transform="scale(0.015625)"/>
       <path id="ArialMT-57" d="M 1294 0 
L 78 4581 
L 700 4581 
L 1397 1578 
Q 1509 1106 1591 641 
Q 1766 1375 1797 1488 
L 2669 4581 
L 3400 4581 
L 4056 2263 
Q 4303 1400 4413 641 
Q 4500 1075 4641 1638 
L 5359 4581 
L 5969 4581 
L 4713 0 
L 4128 0 
L 3163 3491 
Q 3041 3928 3019 4028 
Q 2947 3713 2884 3491 
L 1913 0 
L 1294 0 
z
" transform="scale(0.015625)"/>
       <path id="ArialMT-32" d="M 3222 541 
L 3222 0 
L 194 0 
Q 188 203 259 391 
Q 375 700 629 1000 
Q 884 1300 1366 1694 
Q 2113 2306 2375 2664 
Q 2638 3022 2638 3341 
Q 2638 3675 2398 3904 
Q 2159 4134 1775 4134 
Q 1369 4134 1125 3890 
Q 881 3647 878 3216 
L 300 3275 
Q 359 3922 746 4261 
Q 1134 4600 1788 4600 
Q 2447 4600 2831 4234 
Q 3216 3869 3216 3328 
Q 3216 3053 3103 2787 
Q 2991 2522 2730 2228 
Q 2469 1934 1863 1422 
Q 1356 997 1212 845 
Q 1069 694 975 541 
L 3222 541 
z
" transform="scale(0.015625)"/>
       <path id="STIXSizeOneSym-Regular-29" d="M 550 6630 
L 550 6822 
Q 1267 6144 1686 5142 
Q 2106 4141 2106 2886 
Q 2106 1651 1686 636 
Q 1267 -378 550 -1050 
L 550 -858 
Q 1587 410 1587 2886 
Q 1587 5363 550 6630 
z
" transform="scale(0.015625)"/>
      </defs>
      <use xlink:href="#ArialMT-50" transform="translate(0 0.99375)"/>
      <use xlink:href="#ArialMT-61" transform="translate(66.699219 0.99375)"/>
      <use xlink:href="#ArialMT-74" transform="translate(122.314453 0.99375)"/>
      <use xlink:href="#ArialMT-74" transform="translate(150.097656 0.99375)"/>
      <use xlink:href="#ArialMT-65" transform="translate(177.880859 0.99375)"/>
      <use xlink:href="#ArialMT-72" transform="translate(233.496094 0.99375)"/>
      <use xlink:href="#ArialMT-6e" transform="translate(266.796875 0.99375)"/>
      <use xlink:href="#ArialMT-20" transform="translate(322.412109 0.99375)"/>
      <use xlink:href="#ArialMT-65" transform="translate(350.195312 0.99375)"/>
      <use xlink:href="#ArialMT-66" transform="translate(405.810547 0.99375)"/>
      <use xlink:href="#ArialMT-66" transform="translate(433.59375 0.99375)"/>
      <use xlink:href="#ArialMT-65" transform="translate(461.376953 0.99375)"/>
      <use xlink:href="#ArialMT-63" transform="translate(516.992188 0.99375)"/>
      <use xlink:href="#ArialMT-74" transform="translate(566.992188 0.99375)"/>
      <use xlink:href="#ArialMT-20" transform="translate(594.775391 0.99375)"/>
      <use xlink:href="#STIXSizeOneSym-Regular-28" transform="translate(622.558594 16.99375) scale(0.975661)"/>
      <use xlink:href="#ArialMT-57" transform="translate(668.217834 0.99375)"/>
      <use xlink:href="#ArialMT-6d" transform="translate(762.6026 0.99375)"/>
      <use xlink:href="#ArialMT-2212" transform="translate(847.645725 70.6875) scale(0.7)"/>
      <use xlink:href="#ArialMT-32" transform="translate(888.524631 70.6875) scale(0.7)"/>
      <use xlink:href="#STIXSizeOneSym-Regular-29" transform="translate(932.43342 16.99375) scale(0.975661)"/>
     </g>
    </g>
   </g>
   <g id="line2d_39">
    <path d="M 43.4475 85.502319 
L 45.21585 104.28729 
L 46.9842 114.413995 
L 48.75255 84.26399 
L 50.5209 90.010494 
L 52.28925 102.023106 
L 54.0576 84.914484 
L 55.82595 106.486284 
L 57.5943 129.554746 
L 59.36265 112.925206 
L 61.131 101.642635 
L 62.89935 120.54985 
L 64.6677 63.810829 
L 66.43605 78.225472 
L 68.2044 97.613436 
L 69.97275 54.065981 
L 71.7411 82.622895 
L 73.50945 92.699106 
L 75.2778 77.511109 
L 77.04615 100.958034 
L 78.8145 90.864328 
L 80.58285 83.049707 
L 82.3512 94.013654 
L 84.11955 106.661365 
L 85.8879 117.663934 
L 87.65625 108.356233 
L 89.4246 76.356589 
L 91.19295 61.199977 
L 92.9613 70.753836 
L 94.72965 110.53433 
L 96.498 78.468326 
L 98.26635 66.130896 
L 100.0347 112.881356 
L 101.80305 115.120509 
L 103.5714 130.998103 
L 105.33975 93.958592 
L 107.1081 98.562352 
L 108.87645 114.598344 
L 110.6448 126.473708 
L 112.41315 91.999342 
L 114.1815 100.812905 
L 115.94985 90.936069 
L 117.7182 131.073704 
L 119.48655 108.807418 
L 121.2549 125.410516 
L 123.02325 120.655462 
L 124.7916 125.637695 
L 126.55995 118.628438 
L 128.3283 77.206374 
L 130.09665 97.760312 
L 131.865 116.367108 
L 133.63335 137.539934 
L 135.4017 145.299314 
L 137.17005 133.365557 
L 138.9384 133.777954 
L 140.70675 99.311371 
L 142.4751 108.903001 
L 144.24345 139.736323 
L 146.0118 122.505295 
L 147.78015 83.261823 
L 149.5485 82.97232 
L 151.31685 135.242451 
L 153.0852 140.427519 
L 154.85355 128.09186 
L 156.6219 105.603537 
L 158.39025 106.172593 
L 160.1586 119.046112 
L 161.92695 125.633199 
L 163.6953 130.095941 
L 165.46365 133.619001 
L 167.232 101.002012 
L 169.00035 114.992803 
L 170.7687 148.004049 
L 172.53705 117.661868 
L 174.3054 144.942774 
L 176.07375 140.561615 
L 177.8421 152.803283 
L 179.61045 137.629038 
L 181.3788 157.927044 
L 183.14715 139.979245 
L 184.9155 156.227412 
L 186.68385 154.387508 
L 188.4522 143.002299 
L 190.22055 126.894104 
L 191.9889 138.10894 
L 195.5256 109.301475 
L 197.29395 120.901258 
L 199.0623 141.77967 
L 200.83065 148.602604 
L 202.599 126.885586 
L 204.36735 135.538741 
L 206.1357 136.754356 
L 207.90405 112.120766 
L 209.6724 148.3287 
L 211.44075 126.75872 
L 213.2091 128.599913 
L 214.97745 108.058995 
L 216.7458 130.505743 
L 218.51415 124.171447 
L 220.2825 115.655375 
L 222.05085 133.458531 
L 223.8192 116.2901 
L 225.58755 125.337555 
L 227.3559 122.767622 
L 229.12425 121.529745 
L 230.8926 116.029776 
L 232.66095 127.987615 
L 234.4293 110.480692 
L 236.19765 89.923179 
L 237.966 107.637806 
L 239.73435 112.46053 
L 241.5027 87.072421 
L 243.27105 92.885208 
L 246.80775 109.317813 
L 248.5761 134.330896 
L 250.34445 115.540004 
L 252.1128 137.864732 
L 253.88115 105.59645 
L 255.6495 122.147865 
L 257.41785 85.960165 
L 259.1862 100.443982 
L 260.95455 102.817479 
L 262.7229 120.530507 
L 264.49125 97.604224 
L 266.2596 109.621396 
L 268.02795 98.495208 
L 269.7963 121.243924 
L 271.56465 111.976381 
L 273.333 116.209781 
L 275.10135 90.40414 
L 276.8697 133.493277 
L 278.63805 107.946142 
L 280.4064 112.673316 
L 282.17475 111.49294 
L 283.9431 116.845262 
L 285.71145 117.285516 
L 287.4798 123.526351 
L 289.24815 126.370531 
L 291.0165 89.90839 
L 292.78485 101.293525 
L 294.5532 83.965526 
L 296.32155 113.220357 
L 298.0899 118.972057 
L 299.85825 116.769854 
L 301.6266 106.815428 
L 303.39495 99.328366 
L 305.1633 114.744214 
L 306.93165 105.559133 
L 308.7 88.77848 
L 308.7 88.77848 
" clip-path="url(#p59d44379db)" style="fill: none; stroke: #0173b2; stroke-linecap: square"/>
   </g>
   <g id="line2d_40">
    <path d="M 43.4475 106.165598 
L 45.21585 84.929883 
L 46.9842 112.818255 
L 48.75255 116.128755 
L 50.5209 116.337468 
L 52.28925 116.753261 
L 54.0576 61.250167 
L 55.82595 55.454192 
L 57.5943 83.939106 
L 59.36265 92.92199 
L 61.131 121.494039 
L 62.89935 73.72907 
L 64.6677 60.554542 
L 66.43605 105.359315 
L 68.2044 75.566617 
L 69.97275 77.009157 
L 71.7411 76.596391 
L 73.50945 106.833701 
L 75.2778 56.224036 
L 77.04615 51.805566 
L 78.8145 90.584233 
L 80.58285 77.859668 
L 82.3512 92.399639 
L 84.11955 72.199376 
L 85.8879 105.737702 
L 87.65625 103.33318 
L 89.4246 88.137695 
L 91.19295 100.340143 
L 92.9613 86.503489 
L 94.72965 83.379929 
L 96.498 110.353605 
L 98.26635 115.530356 
L 100.0347 73.415571 
L 101.80305 81.772684 
L 103.5714 98.714006 
L 105.33975 68.900558 
L 107.1081 105.149617 
L 108.87645 103.628167 
L 110.6448 82.336463 
L 112.41315 80.913961 
L 114.1815 103.442854 
L 115.94985 121.489054 
L 117.7182 116.152816 
L 119.48655 109.46279 
L 121.2549 104.796681 
L 123.02325 103.227089 
L 124.7916 107.461414 
L 126.55995 82.916165 
L 128.3283 106.491302 
L 130.09665 106.409163 
L 131.865 93.913831 
L 133.63335 87.523074 
L 135.4017 106.79997 
L 137.17005 97.427229 
L 138.9384 98.496724 
L 140.70675 102.257777 
L 142.4751 121.932981 
L 144.24345 84.719121 
L 147.78015 107.534376 
L 149.5485 149.731118 
L 151.31685 85.027393 
L 153.0852 68.731661 
L 154.85355 105.336972 
L 156.6219 109.699647 
L 158.39025 103.582783 
L 160.1586 108.216075 
L 161.92695 111.733478 
L 163.6953 92.440202 
L 165.46365 120.909692 
L 167.232 144.26357 
L 169.00035 82.830595 
L 170.7687 94.448707 
L 172.53705 119.412081 
L 174.3054 127.552211 
L 176.07375 121.67488 
L 177.8421 88.571129 
L 179.61045 99.644179 
L 181.3788 109.071168 
L 183.14715 129.295965 
L 184.9155 130.432517 
L 186.68385 164.362982 
L 188.4522 132.480018 
L 190.22055 140.65138 
L 191.9889 130.438428 
L 193.75725 94.872108 
L 195.5256 100.628972 
L 197.29395 123.95442 
L 199.0623 103.032235 
L 200.83065 116.337216 
L 204.36735 108.210721 
L 206.1357 93.872523 
L 207.90405 111.191948 
L 209.6724 130.186511 
L 211.44075 114.274167 
L 213.2091 117.673695 
L 214.97745 132.651434 
L 216.7458 86.703186 
L 218.51415 93.49281 
L 220.2825 110.954549 
L 222.05085 119.270355 
L 223.8192 131.504583 
L 225.58755 130.600017 
L 227.3559 122.835553 
L 229.12425 119.411775 
L 230.8926 123.532107 
L 232.66095 109.054083 
L 234.4293 113.192283 
L 236.19765 137.936355 
L 237.966 106.814593 
L 239.73435 127.509412 
L 241.5027 116.824676 
L 243.27105 128.787483 
L 245.0394 107.967726 
L 246.80775 125.949656 
L 248.5761 130.55145 
L 250.34445 125.035736 
L 252.1128 115.143814 
L 253.88115 103.53456 
L 255.6495 108.058517 
L 257.41785 115.564979 
L 259.1862 136.900003 
L 260.95455 98.269691 
L 262.7229 87.470892 
L 264.49125 97.04135 
L 266.2596 88.180523 
L 268.02795 120.319819 
L 269.7963 108.132361 
L 271.56465 97.679162 
L 273.333 113.267493 
L 275.10135 89.519766 
L 276.8697 114.01178 
L 278.63805 105.497457 
L 280.4064 108.403563 
L 282.17475 109.915546 
L 283.9431 101.298713 
L 285.71145 88.852751 
L 287.4798 104.079898 
L 289.24815 83.216502 
L 291.0165 86.952357 
L 292.78485 85.44066 
L 294.5532 79.067827 
L 296.32155 88.699043 
L 298.0899 83.979856 
L 299.85825 69.496408 
L 301.6266 105.039982 
L 303.39495 96.390859 
L 305.1633 62.645178 
L 306.93165 91.718725 
L 308.7 71.606759 
L 308.7 71.606759 
" clip-path="url(#p59d44379db)" style="fill: none; stroke: #de8f05; stroke-linecap: square"/>
   </g>
   <g id="line2d_41">
    <path d="M 43.4475 80.273179 
L 45.21585 104.083204 
L 46.9842 97.259672 
L 48.75255 88.933061 
L 50.5209 94.272726 
L 52.28925 123.435202 
L 54.0576 125.980424 
L 55.82595 104.211303 
L 57.5943 87.315802 
L 59.36265 100.775474 
L 61.131 104.673068 
L 62.89935 116.282103 
L 64.6677 95.204277 
L 66.43605 78.131509 
L 68.2044 108.872308 
L 71.7411 94.265009 
L 73.50945 126.209373 
L 75.2778 92.294273 
L 77.04615 75.870942 
L 78.8145 100.616251 
L 80.58285 90.936712 
L 82.3512 86.263266 
L 84.11955 116.899274 
L 85.8879 112.382902 
L 87.65625 125.125022 
L 89.4246 94.481909 
L 91.19295 98.018042 
L 92.9613 120.715819 
L 94.72965 107.712247 
L 96.498 113.617302 
L 98.26635 101.133687 
L 100.0347 115.734919 
L 101.80305 94.963052 
L 103.5714 84.978807 
L 105.33975 119.005823 
L 107.1081 96.275364 
L 108.87645 109.988138 
L 110.6448 93.869409 
L 112.41315 114.077645 
L 114.1815 126.525915 
L 115.94985 140.43678 
L 117.7182 122.008925 
L 119.48655 116.844234 
L 121.2549 126.002667 
L 123.02325 82.0605 
L 124.7916 93.234927 
L 126.55995 123.175411 
L 128.3283 115.569163 
L 130.09665 144.080141 
L 131.865 124.306367 
L 133.63335 121.713536 
L 135.4017 117.196521 
L 137.17005 135.514511 
L 138.9384 112.397283 
L 140.70675 128.85037 
L 142.4751 142.907102 
L 144.24345 124.131692 
L 146.0118 129.170745 
L 147.78015 149.279399 
L 151.31685 107.15356 
L 153.0852 142.501861 
L 154.85355 92.972249 
L 156.6219 126.340884 
L 158.39025 142.943214 
L 160.1586 141.119328 
L 161.92695 146.718706 
L 163.6953 124.519842 
L 165.46365 136.7425 
L 167.232 130.251608 
L 169.00035 111.281694 
L 170.7687 121.879588 
L 172.53705 126.398881 
L 174.3054 131.434808 
L 176.07375 113.997913 
L 177.8421 144.306622 
L 179.61045 150.4933 
L 181.3788 150.149254 
L 183.14715 146.975778 
L 184.9155 119.482209 
L 186.68385 150.467285 
L 188.4522 125.142269 
L 190.22055 136.596254 
L 191.9889 144.470251 
L 193.75725 137.887732 
L 195.5256 153.115933 
L 197.29395 124.500479 
L 199.0623 130.062791 
L 200.83065 142.217179 
L 202.599 161.019851 
L 204.36735 147.317441 
L 206.1357 143.304347 
L 207.90405 152.192987 
L 209.6724 132.554178 
L 211.44075 121.787156 
L 213.2091 140.020609 
L 214.97745 139.097814 
L 216.7458 139.979843 
L 218.51415 163.003746 
L 220.2825 116.476785 
L 222.05085 129.489715 
L 223.8192 125.602961 
L 225.58755 109.536728 
L 227.3559 109.941273 
L 229.12425 137.312248 
L 230.8926 109.462491 
L 232.66095 129.503981 
L 234.4293 137.583453 
L 236.19765 138.417316 
L 237.966 134.701228 
L 239.73435 136.438486 
L 241.5027 121.779892 
L 243.27105 124.178886 
L 245.0394 121.850153 
L 246.80775 131.005397 
L 248.5761 96.558199 
L 250.34445 111.421904 
L 252.1128 140.966066 
L 253.88115 106.618676 
L 255.6495 98.796442 
L 257.41785 121.086453 
L 259.1862 94.971966 
L 262.7229 127.41328 
L 264.49125 114.868738 
L 266.2596 121.741962 
L 268.02795 118.980714 
L 269.7963 95.742901 
L 271.56465 90.596529 
L 273.333 122.176343 
L 275.10135 126.067162 
L 276.8697 113.264346 
L 278.63805 99.083631 
L 280.4064 96.683663 
L 282.17475 103.933427 
L 283.9431 105.061369 
L 285.71145 114.304997 
L 287.4798 103.730814 
L 289.24815 103.410461 
L 291.0165 100.406496 
L 292.78485 121.024427 
L 294.5532 100.479541 
L 296.32155 112.028516 
L 298.0899 110.525929 
L 299.85825 103.319166 
L 301.6266 129.210261 
L 303.39495 93.264888 
L 305.1633 95.694461 
L 306.93165 76.616012 
L 308.7 83.375933 
L 308.7 83.375933 
" clip-path="url(#p59d44379db)" style="fill: none; stroke: #029e73; stroke-linecap: square"/>
   </g>
   <g id="line2d_42">
    <path d="M 43.4475 90.647032 
L 45.21585 97.766792 
L 46.9842 108.163974 
L 48.75255 96.441935 
L 50.5209 100.206896 
L 52.28925 114.070523 
L 54.0576 90.715025 
L 55.82595 88.71726 
L 57.5943 100.269885 
L 59.36265 102.207556 
L 61.131 109.269914 
L 62.89935 103.520341 
L 64.6677 73.189882 
L 66.43605 87.238766 
L 68.2044 94.017454 
L 69.97275 77.56561 
L 71.7411 84.494765 
L 73.50945 108.580727 
L 75.2778 75.343139 
L 77.04615 76.211514 
L 78.8145 94.021604 
L 80.58285 83.948696 
L 82.3512 90.892186 
L 84.11955 98.586672 
L 85.8879 111.92818 
L 87.65625 112.271479 
L 89.4246 86.325397 
L 91.19295 86.519387 
L 92.9613 92.657715 
L 94.72965 100.542169 
L 96.498 100.813078 
L 98.26635 94.26498 
L 100.0347 100.677282 
L 101.80305 97.285415 
L 103.5714 104.896972 
L 105.33975 93.954991 
L 107.1081 99.995778 
L 108.87645 109.404883 
L 110.6448 100.893194 
L 112.41315 95.66365 
L 114.1815 110.260558 
L 115.94985 117.620634 
L 117.7182 123.078482 
L 119.48655 111.704814 
L 121.2549 118.736621 
L 123.02325 101.981017 
L 124.7916 108.778012 
L 126.55995 108.240005 
L 128.3283 99.755613 
L 130.09665 116.083205 
L 131.865 111.529102 
L 133.63335 115.592181 
L 135.4017 123.098602 
L 137.17005 122.102432 
L 138.9384 114.890654 
L 140.70675 110.13984 
L 142.4751 124.581028 
L 144.24345 116.195712 
L 146.0118 115.828643 
L 147.78015 113.358533 
L 149.5485 120.125164 
L 151.31685 109.141135 
L 153.0852 117.220347 
L 154.85355 108.80036 
L 156.6219 113.881356 
L 158.39025 117.566197 
L 161.92695 128.028461 
L 163.6953 115.685328 
L 165.46365 130.423731 
L 167.232 125.172397 
L 169.00035 103.035031 
L 170.7687 121.444115 
L 172.53705 121.15761 
L 174.3054 134.643264 
L 176.07375 125.411469 
L 177.8421 128.560345 
L 179.61045 129.255505 
L 181.3788 139.049155 
L 183.14715 138.750329 
L 184.9155 135.380713 
L 186.68385 156.405925 
L 188.4522 133.541529 
L 190.22055 134.713913 
L 191.9889 137.67254 
L 193.75725 118.875614 
L 197.29395 123.118719 
L 199.0623 124.958232 
L 200.83065 135.719 
L 202.599 133.416648 
L 204.36735 130.355634 
L 206.1357 124.643742 
L 207.90405 125.168567 
L 209.6724 137.02313 
L 211.44075 120.940014 
L 213.2091 128.764739 
L 214.97745 126.602747 
L 216.7458 119.062924 
L 218.51415 126.889334 
L 220.2825 114.362236 
L 222.05085 127.4062 
L 223.8192 124.465882 
L 225.58755 121.824766 
L 227.3559 118.514816 
L 229.12425 126.084589 
L 230.8926 116.341458 
L 232.66095 122.181893 
L 234.4293 120.418809 
L 236.19765 122.092283 
L 237.966 116.384542 
L 239.73435 125.469476 
L 241.5027 108.558997 
L 243.27105 115.283859 
L 245.0394 110.294582 
L 246.80775 122.090955 
L 248.5761 120.480182 
L 250.34445 117.332548 
L 252.1128 131.324871 
L 253.88115 105.249896 
L 255.6495 109.667608 
L 257.41785 107.537199 
L 259.1862 110.771984 
L 260.95455 104.070919 
L 262.7229 111.804893 
L 264.49125 103.171437 
L 266.2596 106.514627 
L 268.02795 112.59858 
L 269.7963 108.373062 
L 271.56465 100.084024 
L 273.333 117.217873 
L 275.10135 101.997023 
L 276.8697 120.256468 
L 278.63805 104.175743 
L 280.4064 105.920181 
L 282.17475 108.447304 
L 283.9431 107.735115 
L 285.71145 106.814421 
L 287.4798 110.445688 
L 289.24815 104.332498 
L 291.0165 92.422415 
L 292.78485 102.586204 
L 294.5532 87.837631 
L 296.32155 104.649306 
L 298.0899 104.492614 
L 299.85825 96.528476 
L 301.6266 113.688557 
L 303.39495 96.328038 
L 305.1633 91.027951 
L 306.93165 91.297957 
L 308.7 81.253724 
L 308.7 81.253724 
" clip-path="url(#p59d44379db)" style="fill: none; stroke: #333333; stroke-width: 2; stroke-linecap: square"/>
   </g>
   <g id="line2d_43">
    <path d="M 43.4475 98.49 
L 308.7 98.49 
" clip-path="url(#p59d44379db)" style="fill: none; stroke-dasharray: 1,1.65; stroke-dashoffset: 0; stroke: #808080"/>
   </g>
   <g id="patch_3">
    <path d="M 43.4475 185.46 
L 43.4475 11.52 
" style="fill: none; stroke: #666666; stroke-linejoin: miter; stroke-linecap: square"/>
   </g>
   <g id="patch_4">
    <path d="M 43.4475 185.46 
L 308.7 185.46 
" style="fill: none; stroke: #666666; stroke-linejoin: miter; stroke-linecap: square"/>
   </g>
   <g id="legend_1">
    <g id="text_12">
     <!-- Member ID -->
     <g style="fill: #666666" transform="translate(260.06625 24.44625) scale(0.08 -0.08)">
      <defs>
       <path id="ArialMT-4d" d="M 475 0 
L 475 4581 
L 1388 4581 
L 2472 1338 
Q 2622 884 2691 659 
Q 2769 909 2934 1394 
L 4031 4581 
L 4847 4581 
L 4847 0 
L 4263 0 
L 4263 3834 
L 2931 0 
L 2384 0 
L 1059 3900 
L 1059 0 
L 475 0 
z
" transform="scale(0.015625)"/>
       <path id="ArialMT-62" d="M 941 0 
L 419 0 
L 419 4581 
L 981 4581 
L 981 2947 
Q 1338 3394 1891 3394 
Q 2197 3394 2470 3270 
Q 2744 3147 2920 2923 
Q 3097 2700 3197 2384 
Q 3297 2069 3297 1709 
Q 3297 856 2875 390 
Q 2453 -75 1863 -75 
Q 1275 -75 941 416 
L 941 0 
z
M 934 1684 
Q 934 1088 1097 822 
Q 1363 388 1816 388 
Q 2184 388 2453 708 
Q 2722 1028 2722 1663 
Q 2722 2313 2464 2622 
Q 2206 2931 1841 2931 
Q 1472 2931 1203 2611 
Q 934 2291 934 1684 
z
" transform="scale(0.015625)"/>
       <path id="ArialMT-49" d="M 597 0 
L 597 4581 
L 1203 4581 
L 1203 0 
L 597 0 
z
" transform="scale(0.015625)"/>
       <path id="ArialMT-44" d="M 494 0 
L 494 4581 
L 2072 4581 
Q 2606 4581 2888 4516 
Q 3281 4425 3559 4188 
Q 3922 3881 4101 3404 
Q 4281 2928 4281 2316 
Q 4281 1794 4159 1391 
Q 4038 988 3847 723 
Q 3656 459 3429 307 
Q 3203 156 2883 78 
Q 2563 0 2147 0 
L 494 0 
z
M 1100 541 
L 2078 541 
Q 2531 541 2789 625 
Q 3047 709 3200 863 
Q 3416 1078 3536 1442 
Q 3656 1806 3656 2325 
Q 3656 3044 3420 3430 
Q 3184 3816 2847 3947 
Q 2603 4041 2063 4041 
L 1100 4041 
L 1100 541 
z
" transform="scale(0.015625)"/>
      </defs>
      <use xlink:href="#ArialMT-4d"/>
      <use xlink:href="#ArialMT-65" x="83.300781"/>
      <use xlink:href="#ArialMT-6d" x="138.916016"/>
      <use xlink:href="#ArialMT-62" x="222.216797"/>
      <use xlink:href="#ArialMT-65" x="277.832031"/>
      <use xlink:href="#ArialMT-72" x="333.447266"/>
      <use xlink:href="#ArialMT-20" x="366.748047"/>
      <use xlink:href="#ArialMT-49" x="394.53125"/>
      <use xlink:href="#ArialMT-44" x="422.314453"/>
     </g>
    </g>
    <g id="line2d_44">
     <path d="M 258.1925 33.06 
L 262.1925 33.06 
L 266.1925 33.06 
" style="fill: none; stroke: #0173b2; stroke-linecap: square"/>
    </g>
    <g id="text_13">
     <!-- r1i1p1f1 -->
     <g style="fill: #666666" transform="translate(272.5925 35.86) scale(0.08 -0.08)">
      <defs>
       <path id="ArialMT-70" d="M 422 -1272 
L 422 3319 
L 934 3319 
L 934 2888 
Q 1116 3141 1344 3267 
Q 1572 3394 1897 3394 
Q 2322 3394 2647 3175 
Q 2972 2956 3137 2557 
Q 3303 2159 3303 1684 
Q 3303 1175 3120 767 
Q 2938 359 2589 142 
Q 2241 -75 1856 -75 
Q 1575 -75 1351 44 
Q 1128 163 984 344 
L 984 -1272 
L 422 -1272 
z
M 931 1641 
Q 931 1000 1190 694 
Q 1450 388 1819 388 
Q 2194 388 2461 705 
Q 2728 1022 2728 1688 
Q 2728 2322 2467 2637 
Q 2206 2953 1844 2953 
Q 1484 2953 1207 2617 
Q 931 2281 931 1641 
z
" transform="scale(0.015625)"/>
      </defs>
      <use xlink:href="#ArialMT-72"/>
      <use xlink:href="#ArialMT-31" x="33.300781"/>
      <use xlink:href="#ArialMT-69" x="88.916016"/>
      <use xlink:href="#ArialMT-31" x="111.132812"/>
      <use xlink:href="#ArialMT-70" x="166.748047"/>
      <use xlink:href="#ArialMT-31" x="222.363281"/>
      <use xlink:href="#ArialMT-66" x="277.978516"/>
      <use xlink:href="#ArialMT-31" x="305.761719"/>
     </g>
    </g>
    <g id="line2d_45">
     <path d="M 258.1925 44.47375 
L 262.1925 44.47375 
L 266.1925 44.47375 
" style="fill: none; stroke: #de8f05; stroke-linecap: square"/>
    </g>
    <g id="text_14">
     <!-- r2i1p1f1 -->
     <g style="fill: #666666" transform="translate(272.5925 47.27375) scale(0.08 -0.08)">
      <use xlink:href="#ArialMT-72"/>
      <use xlink:href="#ArialMT-32" x="33.300781"/>
      <use xlink:href="#ArialMT-69" x="88.916016"/>
      <use xlink:href="#ArialMT-31" x="111.132812"/>
      <use xlink:href="#ArialMT-70" x="166.748047"/>
      <use xlink:href="#ArialMT-31" x="222.363281"/>
      <use xlink:href="#ArialMT-66" x="277.978516"/>
      <use xlink:href="#ArialMT-31" x="305.761719"/>
     </g>
    </g>
    <g id="line2d_46">
     <path d="M 258.1925 55.8875 
L 262.1925 55.8875 
L 266.1925 55.8875 
" style="fill: none; stroke: #029e73; stroke-linecap: square"/>
    </g>
    <g id="text_15">
     <!-- r3i1p1f1 -->
     <g style="fill: #666666" transform="translate(272.5925 58.6875) scale(0.08 -0.08)">
      <use xlink:href="#ArialMT-72"/>
      <use xlink:href="#ArialMT-33" x="33.300781"/>
      <use xlink:href="#ArialMT-69" x="88.916016"/>
      <use xlink:href="#ArialMT-31" x="111.132812"/>
      <use xlink:href="#ArialMT-70" x="166.748047"/>
      <use xlink:href="#ArialMT-31" x="222.363281"/>
      <use xlink:href="#ArialMT-66" x="277.978516"/>
      <use xlink:href="#ArialMT-31" x="305.761719"/>
     </g>
    </g>
    <g id="line2d_47">
     <path d="M 258.1925 67.20375 
L 262.1925 67.20375 
L 266.1925 67.20375 
" style="fill: none; stroke: #333333; stroke-width: 2; stroke-linecap: square"/>
    </g>
    <g id="text_16">
     <!-- Mean -->
     <g style="fill: #666666" transform="translate(272.5925 70.00375) scale(0.08 -0.08)">
      <use xlink:href="#ArialMT-4d"/>
      <use xlink:href="#ArialMT-65" x="83.300781"/>
      <use xlink:href="#ArialMT-61" x="138.916016"/>
      <use xlink:href="#ArialMT-6e" x="194.53125"/>
     </g>
    </g>
   </g>
  </g>
 </g>
 <defs>
  <clipPath id="p59d44379db">
   <rect x="43.4475" y="11.52" width="265.2525" height="173.94"/>
  </clipPath>
 </defs>
</svg>
